M48
; DRILL file {KiCad 9.0.3} date 2025-08-06T23:44:21+0200
; FORMAT={-:-/ absolute / metric / decimal}
; #@! TF.CreationDate,2025-08-06T23:44:21+02:00
; #@! TF.GenerationSoftware,Kicad,Pcbnew,9.0.3
; #@! TF.FileFunction,Plated,1,4,PTH
FMAT,2
METRIC
; #@! TA.AperFunction,Plated,PTH,ViaDrill
T1C0.250
%
G90
G05
T1
X134.874Y-84.074
X134.874Y-85.471
X134.874Y-87.884
X135.255Y-100.838
X135.255Y-101.854
X135.61Y-93.95
X135.763Y-90.932
X137.795Y-101.854
X138.049Y-91.059
X138.303Y-86.487
X139.093Y-90.395
X139.191Y-88.9
X139.954Y-98.425
X140.036Y-97.11
X140.081Y-84.709
X140.081Y-94.361
X140.144Y-101.058
X140.642Y-99.028
X141.097Y-84.959
X141.107Y-97.687
X141.351Y-87.757
X141.859Y-93.853
X142.069Y-92.284
X142.113Y-91.313
X143.002Y-89.662
X143.256Y-84.709
X143.256Y-93.726
X143.327Y-96.902
X143.764Y-98.933
X143.764Y-99.949
X144.201Y-96.901
X144.272Y-84.706
X144.272Y-93.726
X144.78Y-97.663
X145.288Y-92.285
X145.422Y-91.107
X145.542Y-93.726
X145.796Y-86.868
X145.796Y-88.646
X145.923Y-102.108
X146.304Y-84.836
X146.558Y-97.79
X147.056Y-88.265
X147.463Y-96.977
X147.829Y-93.472
X147.955Y-85.09
X148.022Y-99.12
X148.336Y-95.25
X148.717Y-101.219
X149.352Y-85.087
X150.368Y-85.087
X150.495Y-92.893
X152.273Y-95.504
X152.273Y-98.298
X152.273Y-101.854
X152.527Y-86.233
X152.527Y-87.122
X152.527Y-89.916
X152.527Y-91.059
M30
