G04 #@! TF.GenerationSoftware,KiCad,Pcbnew,9.0.3*
G04 #@! TF.CreationDate,2025-08-06T23:44:27+02:00*
G04 #@! TF.ProjectId,MADC,4d414443-2e6b-4696-9361-645f70636258,rev?*
G04 #@! TF.SameCoordinates,Original*
G04 #@! TF.FileFunction,Legend,Top*
G04 #@! TF.FilePolarity,Positive*
%FSLAX46Y46*%
G04 Gerber Fmt 4.6, Leading zero omitted, Abs format (unit mm)*
G04 Created by KiCad (PCBNEW 9.0.3) date 2025-08-06 23:44:27*
%MOMM*%
%LPD*%
G01*
G04 APERTURE LIST*
%ADD10C,0.200000*%
%ADD11C,0.120000*%
G04 APERTURE END LIST*
D10*
X149036285Y-99776507D02*
X149036285Y-98876507D01*
X149036285Y-98876507D02*
X149336285Y-99519364D01*
X149336285Y-99519364D02*
X149636285Y-98876507D01*
X149636285Y-98876507D02*
X149636285Y-99776507D01*
X150021999Y-99519364D02*
X150450571Y-99519364D01*
X149936285Y-99776507D02*
X150236285Y-98876507D01*
X150236285Y-98876507D02*
X150536285Y-99776507D01*
X150836285Y-99776507D02*
X150836285Y-98876507D01*
X150836285Y-98876507D02*
X151050571Y-98876507D01*
X151050571Y-98876507D02*
X151179142Y-98919364D01*
X151179142Y-98919364D02*
X151264857Y-99005078D01*
X151264857Y-99005078D02*
X151307714Y-99090792D01*
X151307714Y-99090792D02*
X151350571Y-99262221D01*
X151350571Y-99262221D02*
X151350571Y-99390792D01*
X151350571Y-99390792D02*
X151307714Y-99562221D01*
X151307714Y-99562221D02*
X151264857Y-99647935D01*
X151264857Y-99647935D02*
X151179142Y-99733650D01*
X151179142Y-99733650D02*
X151050571Y-99776507D01*
X151050571Y-99776507D02*
X150836285Y-99776507D01*
X152250571Y-99690792D02*
X152207714Y-99733650D01*
X152207714Y-99733650D02*
X152079142Y-99776507D01*
X152079142Y-99776507D02*
X151993428Y-99776507D01*
X151993428Y-99776507D02*
X151864857Y-99733650D01*
X151864857Y-99733650D02*
X151779142Y-99647935D01*
X151779142Y-99647935D02*
X151736285Y-99562221D01*
X151736285Y-99562221D02*
X151693428Y-99390792D01*
X151693428Y-99390792D02*
X151693428Y-99262221D01*
X151693428Y-99262221D02*
X151736285Y-99090792D01*
X151736285Y-99090792D02*
X151779142Y-99005078D01*
X151779142Y-99005078D02*
X151864857Y-98919364D01*
X151864857Y-98919364D02*
X151993428Y-98876507D01*
X151993428Y-98876507D02*
X152079142Y-98876507D01*
X152079142Y-98876507D02*
X152207714Y-98919364D01*
X152207714Y-98919364D02*
X152250571Y-98962221D01*
X149250571Y-100325457D02*
X149550571Y-101225457D01*
X149550571Y-101225457D02*
X149850571Y-100325457D01*
X150622000Y-101225457D02*
X150107714Y-101225457D01*
X150364857Y-101225457D02*
X150364857Y-100325457D01*
X150364857Y-100325457D02*
X150279143Y-100454028D01*
X150279143Y-100454028D02*
X150193428Y-100539742D01*
X150193428Y-100539742D02*
X150107714Y-100582600D01*
X151007714Y-101139742D02*
X151050571Y-101182600D01*
X151050571Y-101182600D02*
X151007714Y-101225457D01*
X151007714Y-101225457D02*
X150964857Y-101182600D01*
X150964857Y-101182600D02*
X151007714Y-101139742D01*
X151007714Y-101139742D02*
X151007714Y-101225457D01*
X151607714Y-100325457D02*
X151693428Y-100325457D01*
X151693428Y-100325457D02*
X151779142Y-100368314D01*
X151779142Y-100368314D02*
X151822000Y-100411171D01*
X151822000Y-100411171D02*
X151864857Y-100496885D01*
X151864857Y-100496885D02*
X151907714Y-100668314D01*
X151907714Y-100668314D02*
X151907714Y-100882600D01*
X151907714Y-100882600D02*
X151864857Y-101054028D01*
X151864857Y-101054028D02*
X151822000Y-101139742D01*
X151822000Y-101139742D02*
X151779142Y-101182600D01*
X151779142Y-101182600D02*
X151693428Y-101225457D01*
X151693428Y-101225457D02*
X151607714Y-101225457D01*
X151607714Y-101225457D02*
X151522000Y-101182600D01*
X151522000Y-101182600D02*
X151479142Y-101139742D01*
X151479142Y-101139742D02*
X151436285Y-101054028D01*
X151436285Y-101054028D02*
X151393428Y-100882600D01*
X151393428Y-100882600D02*
X151393428Y-100668314D01*
X151393428Y-100668314D02*
X151436285Y-100496885D01*
X151436285Y-100496885D02*
X151479142Y-100411171D01*
X151479142Y-100411171D02*
X151522000Y-100368314D01*
X151522000Y-100368314D02*
X151607714Y-100325457D01*
D11*
G04 #@! TO.C,C6*
X134514000Y-91682835D02*
X134514000Y-91451165D01*
X135234000Y-91682835D02*
X135234000Y-91451165D01*
G04 #@! TO.C,D1*
X145374000Y-83351000D02*
X142714000Y-83351000D01*
X145374000Y-85051000D02*
X142714000Y-85051000D01*
X145374000Y-85051000D02*
X145374000Y-83351000D01*
G04 #@! TO.C,R12*
X149861000Y-96814621D02*
X149861000Y-96479379D01*
X150621000Y-96814621D02*
X150621000Y-96479379D01*
G04 #@! TO.C,R2*
X136057621Y-93092000D02*
X135722379Y-93092000D01*
X136057621Y-93852000D02*
X135722379Y-93852000D01*
G04 #@! TO.C,C15*
X148992000Y-86602835D02*
X148992000Y-86371165D01*
X149712000Y-86602835D02*
X149712000Y-86371165D01*
G04 #@! TO.C,U6*
X148758000Y-91563500D02*
X148758000Y-89363500D01*
X148758000Y-91563500D02*
X148758000Y-93763500D01*
X151978000Y-91563500D02*
X151978000Y-89363500D01*
X151978000Y-91563500D02*
X151978000Y-93763500D01*
X152133000Y-88903500D02*
X151803000Y-88663500D01*
X152133000Y-88423500D01*
X152133000Y-88903500D01*
G36*
X152133000Y-88903500D02*
G01*
X151803000Y-88663500D01*
X152133000Y-88423500D01*
X152133000Y-88903500D01*
G37*
G04 #@! TO.C,C7*
X138291835Y-93112000D02*
X138060165Y-93112000D01*
X138291835Y-93832000D02*
X138060165Y-93832000D01*
G04 #@! TO.C,R11*
X148845000Y-96814621D02*
X148845000Y-96479379D01*
X149605000Y-96814621D02*
X149605000Y-96479379D01*
G04 #@! TO.C,R9*
X147956000Y-86654621D02*
X147956000Y-86319379D01*
X148716000Y-86654621D02*
X148716000Y-86319379D01*
G04 #@! TO.C,C8*
X137300580Y-87628000D02*
X137019420Y-87628000D01*
X137300580Y-88648000D02*
X137019420Y-88648000D01*
G04 #@! TO.C,C11*
X139086000Y-91682835D02*
X139086000Y-91451165D01*
X139806000Y-91682835D02*
X139806000Y-91451165D01*
G04 #@! TO.C,C16*
X151913000Y-96762835D02*
X151913000Y-96531165D01*
X152633000Y-96762835D02*
X152633000Y-96531165D01*
G04 #@! TO.C,C12*
X146960000Y-86602835D02*
X146960000Y-86371165D01*
X147680000Y-86602835D02*
X147680000Y-86371165D01*
G04 #@! TO.C,C1*
X147722000Y-92317835D02*
X147722000Y-92086165D01*
X148442000Y-92317835D02*
X148442000Y-92086165D01*
G04 #@! TO.C,C4*
X139467000Y-99833165D02*
X139467000Y-100064835D01*
X140187000Y-99833165D02*
X140187000Y-100064835D01*
G04 #@! TO.C,R10*
X150877000Y-96479379D02*
X150877000Y-96814621D01*
X151637000Y-96479379D02*
X151637000Y-96814621D01*
G04 #@! TO.C,R8*
X151004000Y-86319379D02*
X151004000Y-86654621D01*
X151764000Y-86319379D02*
X151764000Y-86654621D01*
G04 #@! TO.C,C2*
X146800835Y-100986000D02*
X146569165Y-100986000D01*
X146800835Y-101706000D02*
X146569165Y-101706000D01*
G04 #@! TO.C,U4*
X135600000Y-90932000D02*
X135600000Y-90132000D01*
X135600000Y-90932000D02*
X135600000Y-91732000D01*
X138720000Y-90932000D02*
X138720000Y-90132000D01*
X138720000Y-90932000D02*
X138720000Y-91732000D01*
X135650000Y-92232000D02*
X135320000Y-92472000D01*
X135320000Y-91992000D01*
X135650000Y-92232000D01*
G36*
X135650000Y-92232000D02*
G01*
X135320000Y-92472000D01*
X135320000Y-91992000D01*
X135650000Y-92232000D01*
G37*
G04 #@! TO.C,U1*
X143764000Y-88574500D02*
X141564000Y-88574500D01*
X143764000Y-88574500D02*
X145964000Y-88574500D01*
X143764000Y-94044500D02*
X141564000Y-94044500D01*
X143764000Y-94044500D02*
X145964000Y-94044500D01*
X139904000Y-89034500D02*
X139574000Y-89274500D01*
X139574000Y-88794500D01*
X139904000Y-89034500D01*
G36*
X139904000Y-89034500D02*
G01*
X139574000Y-89274500D01*
X139574000Y-88794500D01*
X139904000Y-89034500D01*
G37*
G04 #@! TO.C,U3*
X143764000Y-94275000D02*
X142264000Y-94275000D01*
X143764000Y-94275000D02*
X145264000Y-94275000D01*
X143764000Y-97495000D02*
X142264000Y-97495000D01*
X143764000Y-97495000D02*
X145264000Y-97495000D01*
X141551500Y-94400000D02*
X141311500Y-94070000D01*
X141791500Y-94070000D01*
X141551500Y-94400000D01*
G36*
X141551500Y-94400000D02*
G01*
X141311500Y-94070000D01*
X141791500Y-94070000D01*
X141551500Y-94400000D01*
G37*
G04 #@! TO.C,C13*
X139721000Y-86113665D02*
X139721000Y-86345335D01*
X140441000Y-86113665D02*
X140441000Y-86345335D01*
G04 #@! TO.C,C3*
X147087000Y-95616335D02*
X147087000Y-95384665D01*
X147807000Y-95616335D02*
X147807000Y-95384665D01*
G04 #@! TO.C,U5*
X143764000Y-85308000D02*
X142964000Y-85308000D01*
X143764000Y-85308000D02*
X144564000Y-85308000D01*
X143764000Y-88428000D02*
X142964000Y-88428000D01*
X143764000Y-88428000D02*
X144564000Y-88428000D01*
X142464000Y-85358000D02*
X142224000Y-85028000D01*
X142704000Y-85028000D01*
X142464000Y-85358000D01*
G36*
X142464000Y-85358000D02*
G01*
X142224000Y-85028000D01*
X142704000Y-85028000D01*
X142464000Y-85358000D01*
G37*
G04 #@! TO.C,R3*
X136992379Y-86107000D02*
X137327621Y-86107000D01*
X136992379Y-86867000D02*
X137327621Y-86867000D01*
G04 #@! TO.C,C9*
X139721000Y-95769165D02*
X139721000Y-96000835D01*
X140441000Y-95769165D02*
X140441000Y-96000835D01*
G04 #@! TO.C,RN3*
X135423000Y-97155000D02*
X135423000Y-95655000D01*
X135423000Y-97155000D02*
X135423000Y-98655000D01*
X138643000Y-97155000D02*
X138643000Y-95655000D01*
X138643000Y-97155000D02*
X138643000Y-98655000D01*
X135598000Y-99342500D02*
X135268000Y-99582500D01*
X135268000Y-99102500D01*
X135598000Y-99342500D01*
G36*
X135598000Y-99342500D02*
G01*
X135268000Y-99582500D01*
X135268000Y-99102500D01*
X135598000Y-99342500D01*
G37*
G04 #@! TO.C,R1*
X134494000Y-89116879D02*
X134494000Y-89452121D01*
X135254000Y-89116879D02*
X135254000Y-89452121D01*
G04 #@! TO.C,R7*
X149988000Y-86654621D02*
X149988000Y-86319379D01*
X150748000Y-86654621D02*
X150748000Y-86319379D01*
G04 #@! TO.C,C10*
X147087000Y-98436165D02*
X147087000Y-98667835D01*
X147807000Y-98436165D02*
X147807000Y-98667835D01*
G04 #@! TO.C,U2*
X143764000Y-97827500D02*
X142264000Y-97827500D01*
X143764000Y-97827500D02*
X145264000Y-97827500D01*
X143764000Y-101047500D02*
X142264000Y-101047500D01*
X143764000Y-101047500D02*
X145264000Y-101047500D01*
X141551500Y-98002500D02*
X141311500Y-97672500D01*
X141791500Y-97672500D01*
X141551500Y-98002500D01*
G36*
X141551500Y-98002500D02*
G01*
X141311500Y-97672500D01*
X141791500Y-97672500D01*
X141551500Y-98002500D01*
G37*
G04 #@! TO.C,R5*
X145924000Y-86654621D02*
X145924000Y-86319379D01*
X146684000Y-86654621D02*
X146684000Y-86319379D01*
G04 #@! TO.C,R6*
X140717000Y-86397121D02*
X140717000Y-86061879D01*
X141477000Y-86397121D02*
X141477000Y-86061879D01*
G04 #@! TD*
M02*
