G04 #@! TF.GenerationSoftware,KiCad,Pcbnew,9.0.3*
G04 #@! TF.CreationDate,2025-08-06T23:44:26+02:00*
G04 #@! TF.ProjectId,MADC,4d414443-2e6b-4696-9361-645f70636258,rev?*
G04 #@! TF.SameCoordinates,Original*
G04 #@! TF.FileFunction,Copper,L3,Inr*
G04 #@! TF.FilePolarity,Positive*
%FSLAX46Y46*%
G04 Gerber Fmt 4.6, Leading zero omitted, Abs format (unit mm)*
G04 Created by KiCad (PCBNEW 9.0.3) date 2025-08-06 23:44:26*
%MOMM*%
%LPD*%
G01*
G04 APERTURE LIST*
G04 #@! TA.AperFunction,NonConductor*
%ADD10C,0.100000*%
G04 #@! TD*
%ADD11C,0.100000*%
G04 #@! TA.AperFunction,ViaPad*
%ADD12C,0.650000*%
G04 #@! TD*
G04 #@! TA.AperFunction,Conductor*
%ADD13C,0.508000*%
G04 #@! TD*
G04 APERTURE END LIST*
D10*
X136525000Y-83566000D02*
X137414000Y-83566000D01*
X137414000Y-84582000D01*
X136525000Y-84582000D01*
X136525000Y-83566000D01*
X138303000Y-83566000D02*
X139192000Y-83566000D01*
X139192000Y-84582000D01*
X138303000Y-84582000D01*
X138303000Y-83566000D01*
X137414000Y-83566000D02*
X138303000Y-83566000D01*
X138303000Y-84582000D01*
X137414000Y-84582000D01*
X137414000Y-83566000D01*
X135636000Y-83566000D02*
X136525000Y-83566000D01*
X136525000Y-84582000D01*
X135636000Y-84582000D01*
X135636000Y-83566000D01*
D11*
D10*
X137987982Y-83812409D02*
X137678458Y-83812409D01*
X137678458Y-83812409D02*
X137845125Y-84002885D01*
X137845125Y-84002885D02*
X137773696Y-84002885D01*
X137773696Y-84002885D02*
X137726077Y-84026695D01*
X137726077Y-84026695D02*
X137702268Y-84050504D01*
X137702268Y-84050504D02*
X137678458Y-84098123D01*
X137678458Y-84098123D02*
X137678458Y-84217171D01*
X137678458Y-84217171D02*
X137702268Y-84264790D01*
X137702268Y-84264790D02*
X137726077Y-84288600D01*
X137726077Y-84288600D02*
X137773696Y-84312409D01*
X137773696Y-84312409D02*
X137916553Y-84312409D01*
X137916553Y-84312409D02*
X137964172Y-84288600D01*
X137964172Y-84288600D02*
X137987982Y-84264790D01*
D12*
G04 #@! TO.N,+3.3V*
X145923000Y-102108000D03*
X152527000Y-87122000D03*
X152273000Y-95504000D03*
X149352000Y-85086500D03*
X152527000Y-86233000D03*
G04 #@! TO.N,GNDA*
X143256000Y-93726000D03*
X140081000Y-94361000D03*
X147462857Y-96976980D03*
X139954000Y-98425000D03*
X144272000Y-93726000D03*
X135255000Y-101854000D03*
X140081000Y-84709000D03*
X134874000Y-84074000D03*
X142113000Y-91313000D03*
X143764000Y-99949000D03*
X150368000Y-85086500D03*
X138049000Y-91059000D03*
X135763000Y-90932000D03*
X146304000Y-84836000D03*
X135255000Y-100838000D03*
X134874000Y-85471000D03*
X147056000Y-88265000D03*
X143764000Y-98933000D03*
X141351000Y-87757000D03*
G04 #@! TO.N,Net-(D1-A)*
X143256000Y-84709000D03*
G04 #@! TO.N,Net-(D1-K)*
X144272000Y-84705500D03*
X138303000Y-86487000D03*
G04 #@! TO.N,VCC*
X145796000Y-86868000D03*
X148336000Y-95250000D03*
X137795000Y-101854000D03*
X145421961Y-91106767D03*
X140144500Y-101058500D03*
X134874000Y-87884000D03*
G04 #@! TO.N,VEE*
X140036000Y-97110000D03*
X148022500Y-99119500D03*
X141097000Y-84959500D03*
X147955000Y-85090000D03*
X139092969Y-90395138D03*
X135610128Y-93949780D03*
G04 #@! TO.N,/AD_ID*
X145796000Y-88646000D03*
G04 #@! TO.N,GNDD*
X152527000Y-89916000D03*
X152527000Y-91059000D03*
X152273000Y-98298000D03*
X152273000Y-101854000D03*
X147829500Y-93472000D03*
G04 #@! TO.N,/SW_VRH*
X148717000Y-101219000D03*
G04 #@! TO.N,/AD_IRP*
X145542000Y-93726000D03*
G04 #@! TO.N,/AD_IIN*
X139191000Y-88900000D03*
G04 #@! TO.N,/AD_CMP*
X150495000Y-92893000D03*
G04 #@! TO.N,/AD_IRN*
X141859000Y-93853000D03*
G04 #@! TO.N,VREF*
X146558000Y-97790000D03*
G04 #@! TO.N,/AD_REF+*
X143327000Y-96901829D03*
G04 #@! TO.N,Net-(RN1-Pad6)*
X145288000Y-92285500D03*
G04 #@! TO.N,/AD_REF-*
X144201000Y-96901000D03*
G04 #@! TO.N,Net-(RN1-Pad5)*
X142068500Y-92284500D03*
G04 #@! TO.N,Net-(RN1-Pad7)*
X143002000Y-89662000D03*
G04 #@! TO.N,Net-(RN2-Pad7)*
X140642114Y-99028012D03*
G04 #@! TO.N,Net-(U3B--)*
X141106725Y-97687000D03*
X144780000Y-97663000D03*
G04 #@! TD*
D13*
G04 #@! TO.N,+3.3V*
X152019000Y-87630000D02*
X149352000Y-87630000D01*
X145923000Y-102108000D02*
X149479000Y-102108000D01*
X152527000Y-87122000D02*
X152019000Y-87630000D01*
X149352000Y-87630000D02*
X149352000Y-90043000D01*
X151511000Y-100076000D02*
X151511000Y-96012000D01*
X151511000Y-96012000D02*
X151511000Y-95325000D01*
X151511000Y-95631000D02*
X151511000Y-96012000D01*
X149352000Y-85086500D02*
X149352000Y-87630000D01*
X149479000Y-102108000D02*
X151511000Y-100076000D01*
X149352000Y-90043000D02*
X151511000Y-92202000D01*
X152146000Y-95631000D02*
X151511000Y-95631000D01*
X152273000Y-95504000D02*
X152146000Y-95631000D01*
X151511000Y-92202000D02*
X151511000Y-95325000D01*
G04 #@! TO.N,VCC*
X147850799Y-94959299D02*
X146685000Y-93793500D01*
X148512553Y-95680553D02*
X148512553Y-95296320D01*
X140111000Y-101092000D02*
X140144500Y-101058500D01*
X149098000Y-99695000D02*
X149098000Y-96266000D01*
X137160000Y-101219000D02*
X137160000Y-101092000D01*
X145170000Y-100330000D02*
X148463000Y-100330000D01*
X146685000Y-93793500D02*
X146685000Y-91113720D01*
X140241500Y-101058500D02*
X140335000Y-100965000D01*
X145668969Y-91106767D02*
X145669000Y-91106798D01*
X144535000Y-100965000D02*
X145170000Y-100330000D01*
X146712360Y-91086360D02*
X145442368Y-91086360D01*
X145161000Y-86868000D02*
X145796000Y-86868000D01*
X134263000Y-88495000D02*
X134874000Y-87884000D01*
X144653000Y-91059000D02*
X144272000Y-90678000D01*
X137160000Y-98552000D02*
X134263000Y-95655000D01*
X149098000Y-96266000D02*
X148512553Y-95680553D01*
X144272000Y-90678000D02*
X144272000Y-87757000D01*
X140335000Y-100965000D02*
X144535000Y-100965000D01*
X148466233Y-95250000D02*
X148336000Y-95250000D01*
X148512553Y-95296320D02*
X148466233Y-95250000D01*
X146685000Y-91113720D02*
X146712360Y-91086360D01*
X137160000Y-101092000D02*
X140111000Y-101092000D01*
X137160000Y-101219000D02*
X137160000Y-98552000D01*
X140144500Y-101058500D02*
X140241500Y-101058500D01*
X145421961Y-91106767D02*
X145374194Y-91059000D01*
X148463000Y-100330000D02*
X149098000Y-99695000D01*
X134263000Y-95655000D02*
X134263000Y-88495000D01*
X148045299Y-94959299D02*
X147850799Y-94959299D01*
X144272000Y-87757000D02*
X145161000Y-86868000D01*
X148336000Y-95250000D02*
X148045299Y-94959299D01*
X137795000Y-101854000D02*
X137160000Y-101219000D01*
X145421961Y-91106767D02*
X145668969Y-91106767D01*
X145374194Y-91059000D02*
X144653000Y-91059000D01*
X145442368Y-91086360D02*
X145421961Y-91106767D01*
G04 #@! TO.N,VEE*
X136872930Y-93946930D02*
X135612978Y-93946930D01*
X140036000Y-97110000D02*
X136872930Y-93946930D01*
X147069500Y-83820000D02*
X142236500Y-83820000D01*
X147955000Y-99060000D02*
X145034000Y-99060000D01*
X142621000Y-97917000D02*
X141351000Y-96647000D01*
X148014500Y-99119500D02*
X147955000Y-99060000D01*
X141097000Y-85403000D02*
X141097000Y-84959500D01*
X135612978Y-93946930D02*
X135610128Y-93949780D01*
X136779000Y-93980000D02*
X139092969Y-91666031D01*
X142236500Y-83820000D02*
X141097000Y-84959500D01*
X135610128Y-93949780D02*
X135616720Y-93949780D01*
X143891000Y-97917000D02*
X142621000Y-97917000D01*
X140126000Y-97110000D02*
X140036000Y-97110000D01*
X139092969Y-90395138D02*
X140462000Y-89026107D01*
X135646940Y-93980000D02*
X136779000Y-93980000D01*
X140462000Y-89026107D02*
X140462000Y-86038000D01*
X140589000Y-96647000D02*
X140126000Y-97110000D01*
X135616720Y-93949780D02*
X135646940Y-93980000D01*
X140462000Y-86038000D02*
X141097000Y-85403000D01*
X145034000Y-99060000D02*
X143891000Y-97917000D01*
X141351000Y-96647000D02*
X140589000Y-96647000D01*
X139092969Y-91666031D02*
X139092969Y-90395138D01*
X147955000Y-85090000D02*
X147955000Y-84705500D01*
X147955000Y-84705500D02*
X147069500Y-83820000D01*
X148022500Y-99119500D02*
X148014500Y-99119500D01*
G04 #@! TD*
G04 #@! TA.AperFunction,Conductor*
G04 #@! TO.N,VCC*
G36*
X134455769Y-83584306D02*
G01*
X134474075Y-83628500D01*
X134455769Y-83672694D01*
X134410289Y-83718173D01*
X134410286Y-83718177D01*
X134333991Y-83850322D01*
X134333990Y-83850326D01*
X134294501Y-83997700D01*
X134294500Y-83997708D01*
X134294500Y-84150291D01*
X134294501Y-84150299D01*
X134333990Y-84297673D01*
X134333991Y-84297677D01*
X134410286Y-84429822D01*
X134410289Y-84429826D01*
X134518173Y-84537710D01*
X134518177Y-84537713D01*
X134518179Y-84537715D01*
X134650322Y-84614008D01*
X134797707Y-84653500D01*
X134797708Y-84653500D01*
X134950292Y-84653500D01*
X134950293Y-84653500D01*
X135097678Y-84614008D01*
X135229821Y-84537715D01*
X135229828Y-84537707D01*
X135230950Y-84536848D01*
X135231643Y-84536662D01*
X135233369Y-84535666D01*
X135233635Y-84536128D01*
X135277155Y-84524465D01*
X135318583Y-84548381D01*
X135331500Y-84586431D01*
X135331500Y-84622086D01*
X135331501Y-84622094D01*
X135352249Y-84699529D01*
X135352250Y-84699532D01*
X135352251Y-84699533D01*
X135392339Y-84768968D01*
X135449032Y-84825661D01*
X135518467Y-84865749D01*
X135518470Y-84865750D01*
X135565857Y-84878447D01*
X135595912Y-84886500D01*
X135676088Y-84886500D01*
X136484912Y-84886500D01*
X136565088Y-84886500D01*
X137373912Y-84886500D01*
X137454088Y-84886500D01*
X138202000Y-84886500D01*
X138246194Y-84904806D01*
X138264500Y-84949000D01*
X138264500Y-85849415D01*
X138246194Y-85893609D01*
X138218177Y-85909785D01*
X138079324Y-85946991D01*
X138079322Y-85946991D01*
X137947177Y-86023286D01*
X137947173Y-86023289D01*
X137839289Y-86131173D01*
X137839286Y-86131177D01*
X137762991Y-86263322D01*
X137762990Y-86263326D01*
X137723501Y-86410700D01*
X137723500Y-86410708D01*
X137723500Y-86563291D01*
X137723501Y-86563299D01*
X137762990Y-86710673D01*
X137762991Y-86710677D01*
X137839286Y-86842822D01*
X137839289Y-86842826D01*
X137947173Y-86950710D01*
X137947177Y-86950713D01*
X137947179Y-86950715D01*
X138079322Y-87027008D01*
X138079325Y-87027009D01*
X138218176Y-87064214D01*
X138231120Y-87074146D01*
X138246194Y-87080390D01*
X138249425Y-87088192D01*
X138256127Y-87093334D01*
X138264500Y-87124584D01*
X138264500Y-87186500D01*
X138246194Y-87230694D01*
X138202000Y-87249000D01*
X135763000Y-87249000D01*
X135636000Y-87376000D01*
X135636000Y-88773000D01*
X135763000Y-88900000D01*
X138242561Y-88900000D01*
X138254047Y-88904757D01*
X138266479Y-88904758D01*
X138275269Y-88913548D01*
X138286755Y-88918306D01*
X138291512Y-88929791D01*
X138300304Y-88938583D01*
X138300303Y-88951015D01*
X138305061Y-88962500D01*
X138300303Y-88986418D01*
X138285431Y-89022321D01*
X138284374Y-89024555D01*
X138264500Y-89124470D01*
X138264500Y-90435348D01*
X138246194Y-90479542D01*
X138202000Y-90497848D01*
X138185824Y-90495718D01*
X138125299Y-90479501D01*
X138125294Y-90479500D01*
X138125293Y-90479500D01*
X137972707Y-90479500D01*
X137972706Y-90479500D01*
X137972700Y-90479501D01*
X137825326Y-90518990D01*
X137825322Y-90518991D01*
X137693177Y-90595286D01*
X137693173Y-90595289D01*
X137585289Y-90703173D01*
X137585286Y-90703177D01*
X137508991Y-90835322D01*
X137508990Y-90835326D01*
X137469501Y-90982700D01*
X137469500Y-90982708D01*
X137469500Y-91135291D01*
X137469501Y-91135299D01*
X137508990Y-91282673D01*
X137508991Y-91282677D01*
X137547138Y-91348749D01*
X137574251Y-91395710D01*
X137585286Y-91414822D01*
X137585289Y-91414826D01*
X137693173Y-91522710D01*
X137693177Y-91522713D01*
X137693179Y-91522715D01*
X137734870Y-91546785D01*
X137763989Y-91584735D01*
X137757746Y-91632161D01*
X137749839Y-91642982D01*
X137488878Y-91929673D01*
X137394344Y-92033527D01*
X137204244Y-92242369D01*
X136275855Y-93262289D01*
X136243283Y-93298072D01*
X136199997Y-93318431D01*
X136197064Y-93318500D01*
X135534870Y-93318500D01*
X135435611Y-93338235D01*
X135391436Y-93356524D01*
X135391424Y-93356530D01*
X135307268Y-93412732D01*
X135307257Y-93412740D01*
X135171620Y-93548291D01*
X135126728Y-93593154D01*
X135108202Y-93611667D01*
X135089701Y-93630156D01*
X135089698Y-93630160D01*
X135033440Y-93714285D01*
X135015118Y-93758456D01*
X135015118Y-93758457D01*
X135004663Y-93810868D01*
X135004663Y-93810869D01*
X134995319Y-93857701D01*
X134995319Y-93857709D01*
X134995044Y-94284541D01*
X134995022Y-94318869D01*
X134995022Y-94318870D01*
X134994987Y-94371396D01*
X134999140Y-94417798D01*
X134999141Y-94417806D01*
X135003128Y-94439819D01*
X135003128Y-94439821D01*
X135015524Y-94484764D01*
X135015534Y-94484792D01*
X135174626Y-94908624D01*
X135174634Y-94908641D01*
X135174635Y-94908643D01*
X135194870Y-94950637D01*
X135194882Y-94950657D01*
X135206336Y-94969812D01*
X135206344Y-94969824D01*
X135206348Y-94969830D01*
X135233767Y-95007523D01*
X135233771Y-95007528D01*
X136854420Y-96859698D01*
X136974051Y-96996419D01*
X137541444Y-97644869D01*
X137661075Y-97781590D01*
X137733456Y-97864311D01*
X139126668Y-99456555D01*
X139126683Y-99456570D01*
X139167197Y-99493970D01*
X139167199Y-99493973D01*
X139167206Y-99493978D01*
X139188415Y-99509735D01*
X139235943Y-99537740D01*
X139632587Y-99717724D01*
X139684966Y-99735052D01*
X139703730Y-99739109D01*
X139710782Y-99740635D01*
X139710783Y-99740635D01*
X139710792Y-99740637D01*
X139765642Y-99746500D01*
X139765648Y-99746500D01*
X140130826Y-99746500D01*
X140130826Y-99746499D01*
X140214234Y-99732729D01*
X140252279Y-99719815D01*
X140326830Y-99679971D01*
X140393595Y-99603849D01*
X140393603Y-99603833D01*
X140393932Y-99603376D01*
X140394100Y-99603270D01*
X140395619Y-99601540D01*
X140396143Y-99602000D01*
X140434550Y-99578109D01*
X140460918Y-99579403D01*
X140565816Y-99607511D01*
X140565819Y-99607511D01*
X140565821Y-99607512D01*
X140565822Y-99607512D01*
X140718406Y-99607512D01*
X140718407Y-99607512D01*
X140825656Y-99578774D01*
X140873081Y-99585017D01*
X140893799Y-99604421D01*
X140925714Y-99652186D01*
X140925717Y-99652189D01*
X140967296Y-99679971D01*
X141009903Y-99708440D01*
X141051269Y-99725574D01*
X141053492Y-99726626D01*
X141054097Y-99726746D01*
X141054098Y-99726747D01*
X141153404Y-99746500D01*
X143136865Y-99746500D01*
X143181059Y-99764806D01*
X143199365Y-99809000D01*
X143197235Y-99825176D01*
X143184501Y-99872700D01*
X143184500Y-99872708D01*
X143184500Y-100025291D01*
X143184501Y-100025299D01*
X143223990Y-100172673D01*
X143223991Y-100172677D01*
X143223992Y-100172678D01*
X143296342Y-100297992D01*
X143300286Y-100304822D01*
X143300289Y-100304826D01*
X143408173Y-100412710D01*
X143408177Y-100412713D01*
X143408179Y-100412715D01*
X143540322Y-100489008D01*
X143687707Y-100528500D01*
X143687708Y-100528500D01*
X143840292Y-100528500D01*
X143840293Y-100528500D01*
X143987678Y-100489008D01*
X144119821Y-100412715D01*
X144227715Y-100304821D01*
X144304008Y-100172678D01*
X144343500Y-100025293D01*
X144343500Y-99872707D01*
X144341904Y-99866750D01*
X144330765Y-99825176D01*
X144337009Y-99777750D01*
X144374959Y-99748630D01*
X144391135Y-99746500D01*
X148183112Y-99746500D01*
X148183113Y-99746500D01*
X148282419Y-99726746D01*
X148326613Y-99708440D01*
X148410800Y-99652188D01*
X148628188Y-99434800D01*
X148684440Y-99350613D01*
X148701578Y-99309238D01*
X148702626Y-99307021D01*
X148702746Y-99306419D01*
X148702747Y-99306418D01*
X148722500Y-99207112D01*
X148722500Y-97706547D01*
X148716965Y-97653238D01*
X148711690Y-97628108D01*
X148711688Y-97628100D01*
X148695328Y-97577088D01*
X148695325Y-97577079D01*
X148518853Y-97175225D01*
X148492357Y-97128651D01*
X148492354Y-97128646D01*
X148477420Y-97107758D01*
X148475287Y-97105346D01*
X148441917Y-97067615D01*
X148364447Y-96996419D01*
X148294003Y-96931680D01*
X148293999Y-96931677D01*
X148293998Y-96931676D01*
X148243387Y-96895325D01*
X148243380Y-96895321D01*
X148217280Y-96880977D01*
X148217267Y-96880971D01*
X148159450Y-96857734D01*
X148159445Y-96857733D01*
X148073240Y-96852085D01*
X148030338Y-96830929D01*
X148016958Y-96805898D01*
X148002865Y-96753302D01*
X147926572Y-96621159D01*
X147926570Y-96621157D01*
X147926567Y-96621153D01*
X147818683Y-96513269D01*
X147818679Y-96513266D01*
X147818678Y-96513265D01*
X147752606Y-96475118D01*
X147686534Y-96436971D01*
X147686531Y-96436970D01*
X147582309Y-96409044D01*
X147544358Y-96379924D01*
X147537755Y-96363441D01*
X147514249Y-96266775D01*
X147514248Y-96266772D01*
X147514247Y-96266768D01*
X147494094Y-96223386D01*
X147434342Y-96141646D01*
X147434339Y-96141643D01*
X147434337Y-96141640D01*
X145554454Y-94414018D01*
X145534301Y-94370636D01*
X145550727Y-94325709D01*
X145594109Y-94305556D01*
X145596745Y-94305500D01*
X145618292Y-94305500D01*
X145618293Y-94305500D01*
X145765678Y-94266008D01*
X145897821Y-94189715D01*
X146005715Y-94081821D01*
X146082008Y-93949678D01*
X146121500Y-93802293D01*
X146121500Y-93649707D01*
X146082008Y-93502322D01*
X146036130Y-93422860D01*
X146036130Y-93422858D01*
X146020455Y-93395708D01*
X147250000Y-93395708D01*
X147250000Y-93548291D01*
X147250001Y-93548299D01*
X147289490Y-93695673D01*
X147289491Y-93695677D01*
X147325736Y-93758454D01*
X147351046Y-93802293D01*
X147365786Y-93827822D01*
X147365789Y-93827826D01*
X147473673Y-93935710D01*
X147473677Y-93935713D01*
X147473679Y-93935715D01*
X147605822Y-94012008D01*
X147753207Y-94051500D01*
X147753208Y-94051500D01*
X147905792Y-94051500D01*
X147905793Y-94051500D01*
X148053178Y-94012008D01*
X148185321Y-93935715D01*
X148293215Y-93827821D01*
X148369508Y-93695678D01*
X148409000Y-93548293D01*
X148409000Y-93395707D01*
X148369508Y-93248322D01*
X148293215Y-93116179D01*
X148293213Y-93116177D01*
X148293210Y-93116173D01*
X148185326Y-93008289D01*
X148185322Y-93008286D01*
X148185321Y-93008285D01*
X148117782Y-92969291D01*
X148053177Y-92931991D01*
X148053173Y-92931990D01*
X147905799Y-92892501D01*
X147905794Y-92892500D01*
X147905793Y-92892500D01*
X147753207Y-92892500D01*
X147753206Y-92892500D01*
X147753200Y-92892501D01*
X147605826Y-92931990D01*
X147605822Y-92931991D01*
X147473677Y-93008286D01*
X147473673Y-93008289D01*
X147365789Y-93116173D01*
X147365786Y-93116177D01*
X147289491Y-93248322D01*
X147289490Y-93248326D01*
X147250001Y-93395700D01*
X147250000Y-93395708D01*
X146020455Y-93395708D01*
X146005717Y-93370182D01*
X146005710Y-93370173D01*
X145897826Y-93262289D01*
X145897822Y-93262286D01*
X145897821Y-93262285D01*
X145831749Y-93224138D01*
X145765677Y-93185991D01*
X145765673Y-93185990D01*
X145618299Y-93146501D01*
X145618294Y-93146500D01*
X145618293Y-93146500D01*
X145465707Y-93146500D01*
X145465706Y-93146500D01*
X145465700Y-93146501D01*
X145318326Y-93185990D01*
X145318322Y-93185991D01*
X145186177Y-93262286D01*
X145186173Y-93262289D01*
X145078289Y-93370173D01*
X145078286Y-93370177D01*
X145001991Y-93502322D01*
X145001991Y-93502324D01*
X144967370Y-93631530D01*
X144938250Y-93669480D01*
X144890823Y-93675723D01*
X144852873Y-93646603D01*
X144846630Y-93631530D01*
X144829086Y-93566059D01*
X144812008Y-93502322D01*
X144735715Y-93370179D01*
X144735713Y-93370177D01*
X144735710Y-93370173D01*
X144627826Y-93262289D01*
X144627822Y-93262286D01*
X144627821Y-93262285D01*
X144561749Y-93224138D01*
X144495677Y-93185991D01*
X144495673Y-93185990D01*
X144348299Y-93146501D01*
X144348294Y-93146500D01*
X144348293Y-93146500D01*
X144195707Y-93146500D01*
X144195702Y-93146500D01*
X144181552Y-93150292D01*
X144166004Y-93148244D01*
X144150505Y-93150626D01*
X144143643Y-93145300D01*
X144134126Y-93144047D01*
X144111937Y-93122329D01*
X144110705Y-93120298D01*
X144110563Y-93119954D01*
X144109846Y-93118881D01*
X144109139Y-93117715D01*
X144109073Y-93117288D01*
X144105892Y-93111626D01*
X144104781Y-93109233D01*
X144104381Y-93108324D01*
X144104256Y-93108104D01*
X144086334Y-93083587D01*
X144084819Y-93081421D01*
X144054335Y-93035790D01*
X144049985Y-93031440D01*
X144050011Y-93031413D01*
X144045555Y-93027542D01*
X144044509Y-93026372D01*
X144044505Y-93026366D01*
X144044499Y-93026360D01*
X144044495Y-93026356D01*
X143200947Y-92251130D01*
X143155330Y-92209208D01*
X144708500Y-92209208D01*
X144708500Y-92361791D01*
X144708501Y-92361799D01*
X144747990Y-92509173D01*
X144747991Y-92509177D01*
X144824286Y-92641322D01*
X144824289Y-92641326D01*
X144932173Y-92749210D01*
X144932177Y-92749213D01*
X144932179Y-92749215D01*
X145064322Y-92825508D01*
X145211707Y-92865000D01*
X145211708Y-92865000D01*
X145364292Y-92865000D01*
X145364293Y-92865000D01*
X145511678Y-92825508D01*
X145643821Y-92749215D01*
X145751715Y-92641321D01*
X145828008Y-92509178D01*
X145867500Y-92361793D01*
X145867500Y-92209207D01*
X145828008Y-92061822D01*
X145751715Y-91929679D01*
X145751713Y-91929677D01*
X145751710Y-91929673D01*
X145643826Y-91821789D01*
X145643822Y-91821786D01*
X145643821Y-91821785D01*
X145577749Y-91783638D01*
X145511677Y-91745491D01*
X145511673Y-91745490D01*
X145364299Y-91706001D01*
X145364294Y-91706000D01*
X145364293Y-91706000D01*
X145211707Y-91706000D01*
X145211706Y-91706000D01*
X145211700Y-91706001D01*
X145064326Y-91745490D01*
X145064322Y-91745491D01*
X144932177Y-91821786D01*
X144932173Y-91821789D01*
X144824289Y-91929673D01*
X144824286Y-91929677D01*
X144747991Y-92061822D01*
X144747990Y-92061826D01*
X144708501Y-92209200D01*
X144708500Y-92209208D01*
X143155330Y-92209208D01*
X143154708Y-92208636D01*
X143134556Y-92165255D01*
X143134500Y-92162619D01*
X143134500Y-90274396D01*
X143152806Y-90230202D01*
X143180821Y-90214026D01*
X143225678Y-90202008D01*
X143357821Y-90125715D01*
X143465715Y-90017821D01*
X143542008Y-89885678D01*
X143581500Y-89738293D01*
X143581500Y-89585707D01*
X143542008Y-89438322D01*
X143465715Y-89306179D01*
X143465713Y-89306177D01*
X143465710Y-89306173D01*
X143357826Y-89198289D01*
X143357822Y-89198286D01*
X143357821Y-89198285D01*
X143225678Y-89121992D01*
X143225677Y-89121991D01*
X143225676Y-89121991D01*
X143180823Y-89109972D01*
X143142873Y-89080851D01*
X143134500Y-89049602D01*
X143134500Y-88569708D01*
X145216500Y-88569708D01*
X145216500Y-88722291D01*
X145216501Y-88722299D01*
X145255990Y-88869673D01*
X145255991Y-88869677D01*
X145332286Y-89001822D01*
X145332289Y-89001826D01*
X145440173Y-89109710D01*
X145440177Y-89109713D01*
X145440179Y-89109715D01*
X145572322Y-89186008D01*
X145719707Y-89225500D01*
X145719708Y-89225500D01*
X145872292Y-89225500D01*
X145872293Y-89225500D01*
X146019678Y-89186008D01*
X146151821Y-89109715D01*
X146259715Y-89001821D01*
X146336008Y-88869678D01*
X146375500Y-88722293D01*
X146375500Y-88569707D01*
X146336008Y-88422322D01*
X146259715Y-88290179D01*
X146259713Y-88290177D01*
X146259710Y-88290173D01*
X146158245Y-88188708D01*
X146476500Y-88188708D01*
X146476500Y-88341291D01*
X146476501Y-88341299D01*
X146515990Y-88488673D01*
X146515991Y-88488677D01*
X146592286Y-88620822D01*
X146592289Y-88620826D01*
X146700173Y-88728710D01*
X146700177Y-88728713D01*
X146700179Y-88728715D01*
X146832322Y-88805008D01*
X146979707Y-88844500D01*
X146979708Y-88844500D01*
X147132292Y-88844500D01*
X147132293Y-88844500D01*
X147279678Y-88805008D01*
X147411821Y-88728715D01*
X147519715Y-88620821D01*
X147596008Y-88488678D01*
X147635500Y-88341293D01*
X147635500Y-88188707D01*
X147596008Y-88041322D01*
X147519715Y-87909179D01*
X147519713Y-87909177D01*
X147519710Y-87909173D01*
X147411826Y-87801289D01*
X147411822Y-87801286D01*
X147411821Y-87801285D01*
X147345749Y-87763138D01*
X147279677Y-87724991D01*
X147279673Y-87724990D01*
X147132299Y-87685501D01*
X147132294Y-87685500D01*
X147132293Y-87685500D01*
X146979707Y-87685500D01*
X146979706Y-87685500D01*
X146979700Y-87685501D01*
X146832326Y-87724990D01*
X146832322Y-87724991D01*
X146700177Y-87801286D01*
X146700173Y-87801289D01*
X146592289Y-87909173D01*
X146592286Y-87909177D01*
X146515991Y-88041322D01*
X146515990Y-88041326D01*
X146476501Y-88188700D01*
X146476500Y-88188708D01*
X146158245Y-88188708D01*
X146151826Y-88182289D01*
X146151822Y-88182286D01*
X146151821Y-88182285D01*
X146085749Y-88144138D01*
X146019677Y-88105991D01*
X146019673Y-88105990D01*
X145872299Y-88066501D01*
X145872294Y-88066500D01*
X145872293Y-88066500D01*
X145719707Y-88066500D01*
X145719706Y-88066500D01*
X145719700Y-88066501D01*
X145572326Y-88105990D01*
X145572322Y-88105991D01*
X145440177Y-88182286D01*
X145440173Y-88182289D01*
X145332289Y-88290173D01*
X145332286Y-88290177D01*
X145255991Y-88422322D01*
X145255990Y-88422326D01*
X145216501Y-88569700D01*
X145216500Y-88569708D01*
X143134500Y-88569708D01*
X143134500Y-86747376D01*
X143152806Y-86703182D01*
X143599182Y-86256806D01*
X143643376Y-86238500D01*
X148183112Y-86238500D01*
X148183113Y-86238500D01*
X148282419Y-86218746D01*
X148326613Y-86200440D01*
X148360276Y-86177946D01*
X148407192Y-86168614D01*
X148446966Y-86195189D01*
X148457500Y-86229913D01*
X148457500Y-90918809D01*
X148463106Y-90972438D01*
X148463109Y-90972456D01*
X148468447Y-90997716D01*
X148468453Y-90997737D01*
X148485025Y-91049058D01*
X148485026Y-91049060D01*
X148662282Y-91449758D01*
X148662287Y-91449768D01*
X148689115Y-91496556D01*
X148689119Y-91496561D01*
X148689121Y-91496565D01*
X148704235Y-91517524D01*
X148704244Y-91517534D01*
X148740148Y-91557746D01*
X148740161Y-91557760D01*
X149897479Y-92609867D01*
X149923807Y-92628616D01*
X149949187Y-92669163D01*
X149947922Y-92695702D01*
X149915501Y-92816700D01*
X149915500Y-92816708D01*
X149915500Y-92969291D01*
X149915501Y-92969299D01*
X149954990Y-93116673D01*
X149954991Y-93116677D01*
X149982379Y-93164114D01*
X150031285Y-93248821D01*
X150092694Y-93310230D01*
X150111000Y-93354424D01*
X150111000Y-93516276D01*
X150109799Y-93528468D01*
X150108500Y-93534997D01*
X150108500Y-100205747D01*
X150090194Y-100249941D01*
X150088846Y-100251250D01*
X149329157Y-100966580D01*
X149284432Y-100983549D01*
X149240808Y-100963923D01*
X149232187Y-100952331D01*
X149180715Y-100863179D01*
X149180713Y-100863177D01*
X149180710Y-100863173D01*
X149072826Y-100755289D01*
X149072822Y-100755286D01*
X149072821Y-100755285D01*
X149006749Y-100717138D01*
X148940677Y-100678991D01*
X148940673Y-100678990D01*
X148793299Y-100639501D01*
X148793294Y-100639500D01*
X148793293Y-100639500D01*
X148640707Y-100639500D01*
X148640706Y-100639500D01*
X148640700Y-100639501D01*
X148493326Y-100678990D01*
X148493322Y-100678991D01*
X148361177Y-100755286D01*
X148361173Y-100755289D01*
X148253289Y-100863173D01*
X148253286Y-100863177D01*
X148176991Y-100995322D01*
X148176990Y-100995326D01*
X148137501Y-101142700D01*
X148137500Y-101142708D01*
X148137500Y-101278000D01*
X148119194Y-101322194D01*
X148075000Y-101340500D01*
X145821887Y-101340500D01*
X145805411Y-101343777D01*
X145722581Y-101360253D01*
X145678389Y-101378559D01*
X145678385Y-101378561D01*
X145594200Y-101434811D01*
X145376811Y-101652200D01*
X145320561Y-101736385D01*
X145320558Y-101736389D01*
X145305328Y-101773157D01*
X145305326Y-101773163D01*
X145302254Y-101780581D01*
X145302253Y-101780582D01*
X145296030Y-101811869D01*
X145295800Y-101813025D01*
X145295796Y-101813042D01*
X145282500Y-101879887D01*
X145282500Y-102209112D01*
X145282499Y-102209112D01*
X145302253Y-102308418D01*
X145320558Y-102352610D01*
X145320559Y-102352612D01*
X145320560Y-102352613D01*
X145346729Y-102391778D01*
X145356061Y-102438693D01*
X145329486Y-102478467D01*
X145294762Y-102489000D01*
X135547400Y-102489000D01*
X135503206Y-102470694D01*
X135484900Y-102426500D01*
X135503206Y-102382306D01*
X135516147Y-102372374D01*
X135610821Y-102317715D01*
X135718715Y-102209821D01*
X135795008Y-102077678D01*
X135834500Y-101930293D01*
X135834500Y-101777707D01*
X135795008Y-101630322D01*
X135718715Y-101498179D01*
X135718713Y-101498177D01*
X135718710Y-101498173D01*
X135610731Y-101390194D01*
X135592425Y-101346000D01*
X135610731Y-101301806D01*
X135718710Y-101193826D01*
X135718715Y-101193821D01*
X135795008Y-101061678D01*
X135834500Y-100914293D01*
X135834500Y-100761707D01*
X135795008Y-100614322D01*
X135718715Y-100482179D01*
X135718713Y-100482177D01*
X135718710Y-100482173D01*
X135610826Y-100374289D01*
X135610822Y-100374286D01*
X135610821Y-100374285D01*
X135490508Y-100304822D01*
X135478677Y-100297991D01*
X135478673Y-100297990D01*
X135331299Y-100258501D01*
X135331294Y-100258500D01*
X135331293Y-100258500D01*
X135178707Y-100258500D01*
X135178706Y-100258500D01*
X135178700Y-100258501D01*
X135031326Y-100297990D01*
X135031322Y-100297991D01*
X134899177Y-100374286D01*
X134899173Y-100374289D01*
X134791289Y-100482173D01*
X134791286Y-100482177D01*
X134714991Y-100614322D01*
X134714990Y-100614326D01*
X134675501Y-100761700D01*
X134675500Y-100761708D01*
X134675500Y-100914291D01*
X134675501Y-100914299D01*
X134714990Y-101061673D01*
X134714991Y-101061677D01*
X134791286Y-101193822D01*
X134791289Y-101193826D01*
X134899269Y-101301806D01*
X134917575Y-101346000D01*
X134899269Y-101390194D01*
X134791289Y-101498173D01*
X134791286Y-101498177D01*
X134714991Y-101630322D01*
X134714990Y-101630326D01*
X134675501Y-101777700D01*
X134675500Y-101777708D01*
X134675500Y-101930291D01*
X134675501Y-101930299D01*
X134714990Y-102077673D01*
X134714991Y-102077677D01*
X134714992Y-102077678D01*
X134790876Y-102209113D01*
X134791286Y-102209822D01*
X134791289Y-102209826D01*
X134899173Y-102317710D01*
X134899177Y-102317713D01*
X134899179Y-102317715D01*
X134993850Y-102372373D01*
X135022970Y-102410324D01*
X135016727Y-102457750D01*
X134978776Y-102486870D01*
X134962600Y-102489000D01*
X134264888Y-102489000D01*
X134220694Y-102470694D01*
X134026806Y-102276806D01*
X134008500Y-102232612D01*
X134008500Y-90855708D01*
X135183500Y-90855708D01*
X135183500Y-91008291D01*
X135183501Y-91008299D01*
X135222990Y-91155673D01*
X135222991Y-91155677D01*
X135222992Y-91155678D01*
X135295353Y-91281011D01*
X135299286Y-91287822D01*
X135299289Y-91287826D01*
X135407173Y-91395710D01*
X135407177Y-91395713D01*
X135407179Y-91395715D01*
X135539322Y-91472008D01*
X135686707Y-91511500D01*
X135686708Y-91511500D01*
X135839292Y-91511500D01*
X135839293Y-91511500D01*
X135986678Y-91472008D01*
X136118821Y-91395715D01*
X136226715Y-91287821D01*
X136303008Y-91155678D01*
X136342500Y-91008293D01*
X136342500Y-90855707D01*
X136303008Y-90708322D01*
X136226715Y-90576179D01*
X136226713Y-90576177D01*
X136226710Y-90576173D01*
X136118826Y-90468289D01*
X136118822Y-90468286D01*
X136118821Y-90468285D01*
X136052749Y-90430138D01*
X135986677Y-90391991D01*
X135986673Y-90391990D01*
X135839299Y-90352501D01*
X135839294Y-90352500D01*
X135839293Y-90352500D01*
X135686707Y-90352500D01*
X135686706Y-90352500D01*
X135686700Y-90352501D01*
X135539326Y-90391990D01*
X135539322Y-90391991D01*
X135407177Y-90468286D01*
X135407173Y-90468289D01*
X135299289Y-90576173D01*
X135299286Y-90576177D01*
X135222991Y-90708322D01*
X135222990Y-90708326D01*
X135183501Y-90855700D01*
X135183500Y-90855708D01*
X134008500Y-90855708D01*
X134008500Y-85394708D01*
X134294500Y-85394708D01*
X134294500Y-85547291D01*
X134294501Y-85547299D01*
X134333990Y-85694673D01*
X134333991Y-85694677D01*
X134410286Y-85826822D01*
X134410289Y-85826826D01*
X134518173Y-85934710D01*
X134518177Y-85934713D01*
X134518179Y-85934715D01*
X134650322Y-86011008D01*
X134797707Y-86050500D01*
X134797708Y-86050500D01*
X134950292Y-86050500D01*
X134950293Y-86050500D01*
X135097678Y-86011008D01*
X135229821Y-85934715D01*
X135337715Y-85826821D01*
X135414008Y-85694678D01*
X135453500Y-85547293D01*
X135453500Y-85394707D01*
X135414008Y-85247322D01*
X135337715Y-85115179D01*
X135337713Y-85115177D01*
X135337710Y-85115173D01*
X135229826Y-85007289D01*
X135229822Y-85007286D01*
X135229821Y-85007285D01*
X135128869Y-84949000D01*
X135097677Y-84930991D01*
X135097673Y-84930990D01*
X134950299Y-84891501D01*
X134950294Y-84891500D01*
X134950293Y-84891500D01*
X134797707Y-84891500D01*
X134797706Y-84891500D01*
X134797700Y-84891501D01*
X134650326Y-84930990D01*
X134650322Y-84930991D01*
X134518177Y-85007286D01*
X134518173Y-85007289D01*
X134410289Y-85115173D01*
X134410286Y-85115177D01*
X134333991Y-85247322D01*
X134333990Y-85247326D01*
X134294501Y-85394700D01*
X134294500Y-85394708D01*
X134008500Y-85394708D01*
X134008500Y-83822388D01*
X134026806Y-83778194D01*
X134220694Y-83584306D01*
X134264888Y-83566000D01*
X134411575Y-83566000D01*
X134455769Y-83584306D01*
G37*
G04 #@! TD.AperFunction*
G04 #@! TD*
G04 #@! TA.AperFunction,Conductor*
G04 #@! TO.N,+3.3V*
G36*
X152799306Y-83711306D02*
G01*
X152973194Y-83885194D01*
X152991500Y-83929388D01*
X152991500Y-89410075D01*
X152973194Y-89454269D01*
X152929000Y-89472575D01*
X152884806Y-89454269D01*
X152882826Y-89452289D01*
X152882822Y-89452286D01*
X152882821Y-89452285D01*
X152809711Y-89410075D01*
X152750677Y-89375991D01*
X152750673Y-89375990D01*
X152603299Y-89336501D01*
X152603294Y-89336500D01*
X152603293Y-89336500D01*
X152450707Y-89336500D01*
X152450706Y-89336500D01*
X152450700Y-89336501D01*
X152303326Y-89375990D01*
X152303322Y-89375991D01*
X152171177Y-89452286D01*
X152171173Y-89452289D01*
X152063289Y-89560173D01*
X152063286Y-89560177D01*
X151986991Y-89692322D01*
X151986990Y-89692326D01*
X151947501Y-89839700D01*
X151947500Y-89839708D01*
X151947500Y-89992291D01*
X151947501Y-89992299D01*
X151986990Y-90139673D01*
X151986991Y-90139677D01*
X152063286Y-90271822D01*
X152063289Y-90271826D01*
X152171173Y-90379710D01*
X152171182Y-90379717D01*
X152264117Y-90433374D01*
X152293237Y-90471324D01*
X152286993Y-90518750D01*
X152264117Y-90541626D01*
X152171182Y-90595282D01*
X152171173Y-90595289D01*
X152063289Y-90703173D01*
X152063286Y-90703177D01*
X151986991Y-90835322D01*
X151986990Y-90835326D01*
X151947501Y-90982700D01*
X151947500Y-90982708D01*
X151947500Y-91135291D01*
X151947501Y-91135299D01*
X151986990Y-91282673D01*
X151986991Y-91282677D01*
X152063286Y-91414822D01*
X152063289Y-91414826D01*
X152171173Y-91522710D01*
X152171177Y-91522713D01*
X152171179Y-91522715D01*
X152303322Y-91599008D01*
X152450707Y-91638500D01*
X152450708Y-91638500D01*
X152603292Y-91638500D01*
X152603293Y-91638500D01*
X152750678Y-91599008D01*
X152882821Y-91522715D01*
X152884802Y-91520733D01*
X152928994Y-91502424D01*
X152973190Y-91520725D01*
X152991500Y-91564918D01*
X152991500Y-102252612D01*
X152973194Y-102296806D01*
X152799306Y-102470694D01*
X152755112Y-102489000D01*
X152565400Y-102489000D01*
X152521206Y-102470694D01*
X152502900Y-102426500D01*
X152521206Y-102382306D01*
X152534147Y-102372374D01*
X152628821Y-102317715D01*
X152736715Y-102209821D01*
X152813008Y-102077678D01*
X152852500Y-101930293D01*
X152852500Y-101777707D01*
X152813008Y-101630322D01*
X152736715Y-101498179D01*
X152736713Y-101498177D01*
X152736710Y-101498173D01*
X152628826Y-101390289D01*
X152628822Y-101390286D01*
X152628821Y-101390285D01*
X152562749Y-101352138D01*
X152496677Y-101313991D01*
X152496673Y-101313990D01*
X152349299Y-101274501D01*
X152349294Y-101274500D01*
X152349293Y-101274500D01*
X152196707Y-101274500D01*
X152196706Y-101274500D01*
X152196700Y-101274501D01*
X152049326Y-101313990D01*
X152049322Y-101313991D01*
X151917177Y-101390286D01*
X151917173Y-101390289D01*
X151809289Y-101498173D01*
X151809286Y-101498177D01*
X151732991Y-101630322D01*
X151732990Y-101630326D01*
X151693501Y-101777700D01*
X151693500Y-101777708D01*
X151693500Y-101930291D01*
X151693501Y-101930299D01*
X151732990Y-102077673D01*
X151732991Y-102077677D01*
X151809286Y-102209822D01*
X151809289Y-102209826D01*
X151917173Y-102317710D01*
X151917177Y-102317713D01*
X151917179Y-102317715D01*
X152011850Y-102372373D01*
X152040970Y-102410324D01*
X152034727Y-102457750D01*
X151996776Y-102486870D01*
X151980600Y-102489000D01*
X145821888Y-102489000D01*
X145777694Y-102470694D01*
X145560306Y-102253306D01*
X145542000Y-102209112D01*
X145542000Y-101879888D01*
X145560306Y-101835694D01*
X145777694Y-101618306D01*
X145821888Y-101600000D01*
X148252576Y-101600000D01*
X148296770Y-101618306D01*
X148361179Y-101682715D01*
X148493322Y-101759008D01*
X148640707Y-101798500D01*
X148640708Y-101798500D01*
X148793292Y-101798500D01*
X148793293Y-101798500D01*
X148940678Y-101759008D01*
X149072821Y-101682715D01*
X149180715Y-101574821D01*
X149257008Y-101442678D01*
X149270948Y-101390650D01*
X149288467Y-101361332D01*
X149701500Y-100972416D01*
X150368000Y-100344832D01*
X150368000Y-98221708D01*
X151693500Y-98221708D01*
X151693500Y-98374291D01*
X151693501Y-98374299D01*
X151732990Y-98521673D01*
X151732991Y-98521677D01*
X151809286Y-98653822D01*
X151809289Y-98653826D01*
X151917173Y-98761710D01*
X151917177Y-98761713D01*
X151917179Y-98761715D01*
X152049322Y-98838008D01*
X152196707Y-98877500D01*
X152196708Y-98877500D01*
X152349292Y-98877500D01*
X152349293Y-98877500D01*
X152496678Y-98838008D01*
X152628821Y-98761715D01*
X152736715Y-98653821D01*
X152813008Y-98521678D01*
X152852500Y-98374293D01*
X152852500Y-98221707D01*
X152813008Y-98074322D01*
X152736715Y-97942179D01*
X152736713Y-97942177D01*
X152736710Y-97942173D01*
X152628826Y-97834289D01*
X152628822Y-97834286D01*
X152628821Y-97834285D01*
X152562749Y-97796138D01*
X152496677Y-97757991D01*
X152496673Y-97757990D01*
X152349299Y-97718501D01*
X152349294Y-97718500D01*
X152349293Y-97718500D01*
X152196707Y-97718500D01*
X152196706Y-97718500D01*
X152196700Y-97718501D01*
X152049326Y-97757990D01*
X152049322Y-97757991D01*
X151917177Y-97834286D01*
X151917173Y-97834289D01*
X151809289Y-97942173D01*
X151809286Y-97942177D01*
X151732991Y-98074322D01*
X151732990Y-98074326D01*
X151693501Y-98221700D01*
X151693500Y-98221708D01*
X150368000Y-98221708D01*
X150368000Y-93535000D01*
X150386306Y-93490806D01*
X150430500Y-93472500D01*
X150571292Y-93472500D01*
X150571293Y-93472500D01*
X150718678Y-93433008D01*
X150850821Y-93356715D01*
X150958715Y-93248821D01*
X151035008Y-93116678D01*
X151074500Y-92969293D01*
X151074500Y-92816707D01*
X151035008Y-92669322D01*
X150958715Y-92537179D01*
X150958713Y-92537177D01*
X150958710Y-92537173D01*
X150850826Y-92429289D01*
X150850822Y-92429286D01*
X150850821Y-92429285D01*
X150733922Y-92361793D01*
X150718677Y-92352991D01*
X150718673Y-92352990D01*
X150571299Y-92313501D01*
X150571294Y-92313500D01*
X150571293Y-92313500D01*
X150418707Y-92313500D01*
X150418706Y-92313500D01*
X150418700Y-92313501D01*
X150271326Y-92352990D01*
X150271322Y-92352991D01*
X150173727Y-92409338D01*
X150145329Y-92425734D01*
X150097904Y-92431977D01*
X150072038Y-92417853D01*
X149214748Y-91638498D01*
X148914716Y-91365741D01*
X148899602Y-91344782D01*
X148722343Y-90944078D01*
X148717000Y-90918793D01*
X148717000Y-85010208D01*
X149788500Y-85010208D01*
X149788500Y-85162791D01*
X149788501Y-85162799D01*
X149827990Y-85310173D01*
X149827991Y-85310177D01*
X149904286Y-85442322D01*
X149904289Y-85442326D01*
X150012173Y-85550210D01*
X150012177Y-85550213D01*
X150012179Y-85550215D01*
X150144322Y-85626508D01*
X150291707Y-85666000D01*
X150291708Y-85666000D01*
X150444292Y-85666000D01*
X150444293Y-85666000D01*
X150591678Y-85626508D01*
X150723821Y-85550215D01*
X150831715Y-85442321D01*
X150908008Y-85310178D01*
X150947500Y-85162793D01*
X150947500Y-85010207D01*
X150908008Y-84862822D01*
X150831715Y-84730679D01*
X150831713Y-84730677D01*
X150831710Y-84730673D01*
X150723826Y-84622789D01*
X150723822Y-84622786D01*
X150723821Y-84622785D01*
X150657749Y-84584638D01*
X150591677Y-84546491D01*
X150591673Y-84546490D01*
X150444299Y-84507001D01*
X150444294Y-84507000D01*
X150444293Y-84507000D01*
X150291707Y-84507000D01*
X150291706Y-84507000D01*
X150291700Y-84507001D01*
X150144326Y-84546490D01*
X150144322Y-84546491D01*
X150012177Y-84622786D01*
X150012173Y-84622789D01*
X149904289Y-84730673D01*
X149904286Y-84730677D01*
X149827991Y-84862822D01*
X149827990Y-84862826D01*
X149788501Y-85010200D01*
X149788500Y-85010208D01*
X148717000Y-85010208D01*
X148717000Y-83972888D01*
X148735306Y-83928694D01*
X148952694Y-83711306D01*
X148996888Y-83693000D01*
X152755112Y-83693000D01*
X152799306Y-83711306D01*
G37*
G04 #@! TD.AperFunction*
G04 #@! TD*
G04 #@! TA.AperFunction,Conductor*
G04 #@! TO.N,VEE*
G36*
X148227306Y-83584306D02*
G01*
X148444694Y-83801694D01*
X148463000Y-83845888D01*
X148463000Y-83939081D01*
X148461799Y-83951274D01*
X148457500Y-83972886D01*
X148457500Y-85704612D01*
X148439194Y-85748806D01*
X148227306Y-85960694D01*
X148183112Y-85979000D01*
X143510000Y-85979000D01*
X142875000Y-86614000D01*
X142875000Y-89048129D01*
X142856694Y-89092323D01*
X142828677Y-89108499D01*
X142778324Y-89121991D01*
X142778322Y-89121991D01*
X142646177Y-89198286D01*
X142646173Y-89198289D01*
X142538289Y-89306173D01*
X142538286Y-89306177D01*
X142461991Y-89438322D01*
X142461990Y-89438326D01*
X142422501Y-89585700D01*
X142422500Y-89585708D01*
X142422500Y-89738291D01*
X142422501Y-89738299D01*
X142461990Y-89885673D01*
X142461991Y-89885677D01*
X142538286Y-90017822D01*
X142538289Y-90017826D01*
X142646173Y-90125710D01*
X142646177Y-90125713D01*
X142646179Y-90125715D01*
X142778322Y-90202008D01*
X142828678Y-90215501D01*
X142866626Y-90244619D01*
X142875000Y-90275870D01*
X142875000Y-92304023D01*
X143061079Y-92475031D01*
X143868912Y-93217435D01*
X143869507Y-93218716D01*
X143870815Y-93219258D01*
X143879505Y-93240238D01*
X143889065Y-93260817D01*
X143888579Y-93262145D01*
X143889121Y-93263453D01*
X143880426Y-93284443D01*
X143872639Y-93305744D01*
X143870816Y-93307647D01*
X143808195Y-93370269D01*
X143764000Y-93388575D01*
X143719806Y-93370270D01*
X143719806Y-93370269D01*
X143611826Y-93262289D01*
X143611822Y-93262286D01*
X143611821Y-93262285D01*
X143537296Y-93219258D01*
X143479677Y-93185991D01*
X143479673Y-93185990D01*
X143332299Y-93146501D01*
X143332294Y-93146500D01*
X143332293Y-93146500D01*
X143179707Y-93146500D01*
X143179706Y-93146500D01*
X143179700Y-93146501D01*
X143032326Y-93185990D01*
X143032322Y-93185991D01*
X142900177Y-93262286D01*
X142900173Y-93262289D01*
X142792289Y-93370173D01*
X142792286Y-93370177D01*
X142715991Y-93502322D01*
X142715990Y-93502326D01*
X142676501Y-93649700D01*
X142676500Y-93649708D01*
X142676500Y-93802291D01*
X142676501Y-93802299D01*
X142715990Y-93949673D01*
X142715991Y-93949677D01*
X142792286Y-94081822D01*
X142792289Y-94081826D01*
X142900173Y-94189710D01*
X142900177Y-94189713D01*
X142900179Y-94189715D01*
X143032322Y-94266008D01*
X143179707Y-94305500D01*
X143179708Y-94305500D01*
X143332292Y-94305500D01*
X143332293Y-94305500D01*
X143479678Y-94266008D01*
X143611821Y-94189715D01*
X143664214Y-94137322D01*
X143719806Y-94081731D01*
X143764000Y-94063425D01*
X143808194Y-94081731D01*
X143916173Y-94189710D01*
X143916177Y-94189713D01*
X143916179Y-94189715D01*
X144048322Y-94266008D01*
X144195707Y-94305500D01*
X144195708Y-94305500D01*
X144348292Y-94305500D01*
X144348293Y-94305500D01*
X144495678Y-94266008D01*
X144627821Y-94189715D01*
X144728674Y-94088861D01*
X144772865Y-94070557D01*
X144815155Y-94087038D01*
X147258749Y-96332715D01*
X147278902Y-96376097D01*
X147262476Y-96421024D01*
X147242689Y-96434859D01*
X147242727Y-96434924D01*
X147241985Y-96435351D01*
X147240384Y-96436472D01*
X147239185Y-96436968D01*
X147107034Y-96513266D01*
X147107030Y-96513269D01*
X146999146Y-96621153D01*
X146999143Y-96621157D01*
X146922848Y-96753302D01*
X146922847Y-96753306D01*
X146883358Y-96900680D01*
X146883357Y-96900688D01*
X146883357Y-97053271D01*
X146883358Y-97053279D01*
X146922849Y-97200660D01*
X146923621Y-97202524D01*
X146923620Y-97203539D01*
X146923909Y-97204615D01*
X146923620Y-97204692D01*
X146923615Y-97250360D01*
X146889787Y-97284180D01*
X146841951Y-97284174D01*
X146834630Y-97280564D01*
X146809681Y-97266160D01*
X146781677Y-97249991D01*
X146781673Y-97249990D01*
X146634299Y-97210501D01*
X146634294Y-97210500D01*
X146634293Y-97210500D01*
X146481707Y-97210500D01*
X146481706Y-97210500D01*
X146481700Y-97210501D01*
X146334326Y-97249990D01*
X146334322Y-97249991D01*
X146202177Y-97326286D01*
X146202173Y-97326289D01*
X146094289Y-97434173D01*
X146094286Y-97434177D01*
X146017991Y-97566322D01*
X146017990Y-97566326D01*
X145978501Y-97713700D01*
X145978500Y-97713708D01*
X145978500Y-97866291D01*
X145978501Y-97866299D01*
X146017990Y-98013673D01*
X146017991Y-98013677D01*
X146050032Y-98069173D01*
X146093868Y-98145099D01*
X146094286Y-98145822D01*
X146094289Y-98145826D01*
X146202173Y-98253710D01*
X146202177Y-98253713D01*
X146202179Y-98253715D01*
X146334322Y-98330008D01*
X146481707Y-98369500D01*
X146481708Y-98369500D01*
X146634292Y-98369500D01*
X146634293Y-98369500D01*
X146781678Y-98330008D01*
X146913821Y-98253715D01*
X147021715Y-98145821D01*
X147098008Y-98013678D01*
X147137500Y-97866293D01*
X147137500Y-97713707D01*
X147098008Y-97566322D01*
X147097237Y-97564460D01*
X147097237Y-97563443D01*
X147096948Y-97562365D01*
X147097237Y-97562287D01*
X147097238Y-97516624D01*
X147131064Y-97482801D01*
X147178900Y-97482802D01*
X147186230Y-97486418D01*
X147239173Y-97516985D01*
X147239175Y-97516986D01*
X147239179Y-97516988D01*
X147386564Y-97556480D01*
X147386565Y-97556480D01*
X147539149Y-97556480D01*
X147539150Y-97556480D01*
X147686535Y-97516988D01*
X147818678Y-97440695D01*
X147926572Y-97332801D01*
X148002865Y-97200658D01*
X148015746Y-97152585D01*
X148044864Y-97114638D01*
X148092291Y-97108393D01*
X148118404Y-97122744D01*
X148266323Y-97258683D01*
X148281255Y-97279568D01*
X148302587Y-97328144D01*
X148407181Y-97566322D01*
X148457725Y-97681417D01*
X148463000Y-97706547D01*
X148463000Y-99207112D01*
X148444694Y-99251306D01*
X148227306Y-99468694D01*
X148183112Y-99487000D01*
X144180425Y-99487000D01*
X144136231Y-99468694D01*
X144117925Y-99424500D01*
X144136231Y-99380306D01*
X144227710Y-99288826D01*
X144227715Y-99288821D01*
X144304008Y-99156678D01*
X144343500Y-99009293D01*
X144343500Y-98856707D01*
X144304008Y-98709322D01*
X144227715Y-98577179D01*
X144227713Y-98577177D01*
X144227710Y-98577173D01*
X144119826Y-98469289D01*
X144119822Y-98469286D01*
X144119821Y-98469285D01*
X144037085Y-98421517D01*
X143987677Y-98392991D01*
X143987673Y-98392990D01*
X143840299Y-98353501D01*
X143840294Y-98353500D01*
X143840293Y-98353500D01*
X143687707Y-98353500D01*
X143687706Y-98353500D01*
X143687700Y-98353501D01*
X143540326Y-98392990D01*
X143540322Y-98392991D01*
X143408177Y-98469286D01*
X143408173Y-98469289D01*
X143300289Y-98577173D01*
X143300286Y-98577177D01*
X143223991Y-98709322D01*
X143223990Y-98709326D01*
X143184501Y-98856700D01*
X143184500Y-98856708D01*
X143184500Y-99009291D01*
X143184501Y-99009299D01*
X143223990Y-99156673D01*
X143223991Y-99156677D01*
X143223992Y-99156678D01*
X143278847Y-99251690D01*
X143300286Y-99288822D01*
X143300289Y-99288826D01*
X143391769Y-99380306D01*
X143410075Y-99424500D01*
X143391769Y-99468694D01*
X143347575Y-99487000D01*
X141153404Y-99487000D01*
X141109210Y-99468694D01*
X141090904Y-99424500D01*
X141103818Y-99386455D01*
X141105824Y-99383839D01*
X141105825Y-99383836D01*
X141105829Y-99383833D01*
X141182122Y-99251690D01*
X141221614Y-99104305D01*
X141221614Y-98951719D01*
X141182122Y-98804334D01*
X141105829Y-98672191D01*
X141105827Y-98672189D01*
X141105824Y-98672185D01*
X140997940Y-98564301D01*
X140997936Y-98564298D01*
X140997935Y-98564297D01*
X140888820Y-98501299D01*
X140865791Y-98488003D01*
X140865787Y-98488002D01*
X140718413Y-98448513D01*
X140718408Y-98448512D01*
X140718407Y-98448512D01*
X140596000Y-98448512D01*
X140551806Y-98430206D01*
X140533500Y-98386012D01*
X140533500Y-98348708D01*
X140533498Y-98348700D01*
X140531201Y-98340129D01*
X140494008Y-98201322D01*
X140417715Y-98069179D01*
X140417713Y-98069177D01*
X140417710Y-98069173D01*
X140309826Y-97961289D01*
X140309822Y-97961286D01*
X140309821Y-97961285D01*
X140243749Y-97923138D01*
X140177677Y-97884991D01*
X140177673Y-97884990D01*
X140030299Y-97845501D01*
X140030294Y-97845500D01*
X140030293Y-97845500D01*
X139877707Y-97845500D01*
X139877706Y-97845500D01*
X139877700Y-97845501D01*
X139730326Y-97884990D01*
X139730322Y-97884991D01*
X139598177Y-97961286D01*
X139598173Y-97961289D01*
X139490289Y-98069173D01*
X139490286Y-98069177D01*
X139413991Y-98201322D01*
X139413990Y-98201326D01*
X139374501Y-98348700D01*
X139374500Y-98348708D01*
X139374500Y-98501291D01*
X139374501Y-98501299D01*
X139413990Y-98648673D01*
X139413991Y-98648677D01*
X139490286Y-98780822D01*
X139490289Y-98780826D01*
X139598173Y-98888710D01*
X139598177Y-98888713D01*
X139598179Y-98888715D01*
X139730322Y-98965008D01*
X139877707Y-99004500D01*
X139877708Y-99004500D01*
X140000114Y-99004500D01*
X140044308Y-99022806D01*
X140062614Y-99067000D01*
X140062614Y-99104303D01*
X140062615Y-99104311D01*
X140102104Y-99251685D01*
X140102105Y-99251689D01*
X140130824Y-99301431D01*
X140178399Y-99383833D01*
X140178400Y-99383834D01*
X140178403Y-99383839D01*
X140180410Y-99386455D01*
X140192789Y-99432661D01*
X140168869Y-99474086D01*
X140130824Y-99487000D01*
X139765642Y-99487000D01*
X139739816Y-99481415D01*
X139343172Y-99301431D01*
X139321963Y-99285674D01*
X137928750Y-97693430D01*
X137928750Y-97693429D01*
X137888809Y-97647782D01*
X137888796Y-97647768D01*
X137856369Y-97610708D01*
X140527225Y-97610708D01*
X140527225Y-97763291D01*
X140527226Y-97763299D01*
X140566715Y-97910673D01*
X140566716Y-97910677D01*
X140566717Y-97910678D01*
X140642500Y-98041938D01*
X140643011Y-98042822D01*
X140643014Y-98042826D01*
X140750898Y-98150710D01*
X140750902Y-98150713D01*
X140750904Y-98150715D01*
X140883047Y-98227008D01*
X141030432Y-98266500D01*
X141030433Y-98266500D01*
X141183017Y-98266500D01*
X141183018Y-98266500D01*
X141330403Y-98227008D01*
X141462546Y-98150715D01*
X141570440Y-98042821D01*
X141646733Y-97910678D01*
X141686225Y-97763293D01*
X141686225Y-97610707D01*
X141646733Y-97463322D01*
X141570440Y-97331179D01*
X141570438Y-97331177D01*
X141570435Y-97331173D01*
X141462551Y-97223289D01*
X141462547Y-97223286D01*
X141462546Y-97223285D01*
X141340096Y-97152588D01*
X141330402Y-97146991D01*
X141330398Y-97146990D01*
X141183024Y-97107501D01*
X141183019Y-97107500D01*
X141183018Y-97107500D01*
X141030432Y-97107500D01*
X141030431Y-97107500D01*
X141030425Y-97107501D01*
X140883051Y-97146990D01*
X140883047Y-97146991D01*
X140750902Y-97223286D01*
X140750898Y-97223289D01*
X140643014Y-97331173D01*
X140643011Y-97331177D01*
X140566716Y-97463322D01*
X140566715Y-97463326D01*
X140527226Y-97610700D01*
X140527225Y-97610708D01*
X137856369Y-97610708D01*
X137201772Y-96862597D01*
X137169345Y-96825537D01*
X142747500Y-96825537D01*
X142747500Y-96978120D01*
X142747501Y-96978128D01*
X142786990Y-97125502D01*
X142786991Y-97125506D01*
X142786992Y-97125507D01*
X142858862Y-97249990D01*
X142863286Y-97257651D01*
X142863289Y-97257655D01*
X142971173Y-97365539D01*
X142971177Y-97365542D01*
X142971179Y-97365544D01*
X143103322Y-97441837D01*
X143250707Y-97481329D01*
X143250708Y-97481329D01*
X143403292Y-97481329D01*
X143403293Y-97481329D01*
X143550678Y-97441837D01*
X143682821Y-97365544D01*
X143720219Y-97328144D01*
X143764412Y-97309838D01*
X143808607Y-97328143D01*
X143845179Y-97364715D01*
X143977322Y-97441008D01*
X144124707Y-97480500D01*
X144147506Y-97480500D01*
X144191700Y-97498806D01*
X144210006Y-97543000D01*
X144207876Y-97559176D01*
X144200501Y-97586700D01*
X144200500Y-97586708D01*
X144200500Y-97739291D01*
X144200501Y-97739299D01*
X144239990Y-97886673D01*
X144239991Y-97886677D01*
X144253848Y-97910677D01*
X144283066Y-97961285D01*
X144316286Y-98018822D01*
X144316289Y-98018826D01*
X144424173Y-98126710D01*
X144424177Y-98126713D01*
X144424179Y-98126715D01*
X144556322Y-98203008D01*
X144703707Y-98242500D01*
X144703708Y-98242500D01*
X144856292Y-98242500D01*
X144856293Y-98242500D01*
X145003678Y-98203008D01*
X145135821Y-98126715D01*
X145243715Y-98018821D01*
X145320008Y-97886678D01*
X145359500Y-97739293D01*
X145359500Y-97586707D01*
X145320008Y-97439322D01*
X145243715Y-97307179D01*
X145243713Y-97307177D01*
X145243710Y-97307173D01*
X145135826Y-97199289D01*
X145135822Y-97199286D01*
X145135821Y-97199285D01*
X145045247Y-97146992D01*
X145003677Y-97122991D01*
X145003673Y-97122990D01*
X144856299Y-97083501D01*
X144856294Y-97083500D01*
X144856293Y-97083500D01*
X144856292Y-97083500D01*
X144833494Y-97083500D01*
X144789300Y-97065194D01*
X144770994Y-97021000D01*
X144773124Y-97004824D01*
X144780498Y-96977299D01*
X144780500Y-96977291D01*
X144780500Y-96824708D01*
X144780498Y-96824700D01*
X144741009Y-96677326D01*
X144741008Y-96677322D01*
X144708581Y-96621157D01*
X144664715Y-96545179D01*
X144664713Y-96545177D01*
X144664710Y-96545173D01*
X144556826Y-96437289D01*
X144556822Y-96437286D01*
X144556821Y-96437285D01*
X144450841Y-96376097D01*
X144424677Y-96360991D01*
X144424673Y-96360990D01*
X144277299Y-96321501D01*
X144277294Y-96321500D01*
X144277293Y-96321500D01*
X144124707Y-96321500D01*
X144124706Y-96321500D01*
X144124700Y-96321501D01*
X143977326Y-96360990D01*
X143977322Y-96360991D01*
X143845177Y-96437286D01*
X143807778Y-96474684D01*
X143763583Y-96492989D01*
X143719391Y-96474683D01*
X143682826Y-96438118D01*
X143682822Y-96438115D01*
X143682821Y-96438114D01*
X143575405Y-96376097D01*
X143550677Y-96361820D01*
X143550673Y-96361819D01*
X143403299Y-96322330D01*
X143403294Y-96322329D01*
X143403293Y-96322329D01*
X143250707Y-96322329D01*
X143250706Y-96322329D01*
X143250700Y-96322330D01*
X143103326Y-96361819D01*
X143103322Y-96361820D01*
X142971177Y-96438115D01*
X142971173Y-96438118D01*
X142863289Y-96546002D01*
X142863286Y-96546006D01*
X142786991Y-96678151D01*
X142786990Y-96678155D01*
X142747501Y-96825529D01*
X142747500Y-96825537D01*
X137169345Y-96825537D01*
X135429061Y-94836641D01*
X135417583Y-94817448D01*
X135379811Y-94716822D01*
X135258473Y-94393571D01*
X135254488Y-94371567D01*
X135254544Y-94284708D01*
X139501500Y-94284708D01*
X139501500Y-94437291D01*
X139501501Y-94437299D01*
X139540990Y-94584673D01*
X139540991Y-94584677D01*
X139540992Y-94584678D01*
X139613342Y-94709992D01*
X139617286Y-94716822D01*
X139617289Y-94716826D01*
X139725173Y-94824710D01*
X139725177Y-94824713D01*
X139725179Y-94824715D01*
X139857322Y-94901008D01*
X140004707Y-94940500D01*
X140004708Y-94940500D01*
X140157292Y-94940500D01*
X140157293Y-94940500D01*
X140304678Y-94901008D01*
X140436821Y-94824715D01*
X140544715Y-94716821D01*
X140621008Y-94584678D01*
X140660500Y-94437293D01*
X140660500Y-94284707D01*
X140621008Y-94137322D01*
X140544715Y-94005179D01*
X140544713Y-94005177D01*
X140544710Y-94005173D01*
X140436826Y-93897289D01*
X140436817Y-93897282D01*
X140314632Y-93826738D01*
X140314631Y-93826738D01*
X140304681Y-93820993D01*
X140304673Y-93820990D01*
X140157299Y-93781501D01*
X140157294Y-93781500D01*
X140157293Y-93781500D01*
X140004707Y-93781500D01*
X140004706Y-93781500D01*
X140004700Y-93781501D01*
X139857326Y-93820990D01*
X139857322Y-93820991D01*
X139725177Y-93897286D01*
X139725173Y-93897289D01*
X139617289Y-94005173D01*
X139617286Y-94005177D01*
X139540991Y-94137322D01*
X139540990Y-94137326D01*
X139501501Y-94284700D01*
X139501500Y-94284708D01*
X135254544Y-94284708D01*
X135254547Y-94280570D01*
X135254547Y-94280569D01*
X135254593Y-94208822D01*
X135254819Y-93857875D01*
X135273138Y-93813709D01*
X135310163Y-93776708D01*
X141279500Y-93776708D01*
X141279500Y-93929291D01*
X141279501Y-93929299D01*
X141318990Y-94076673D01*
X141318991Y-94076677D01*
X141318992Y-94076678D01*
X141384251Y-94189710D01*
X141395286Y-94208822D01*
X141395289Y-94208826D01*
X141503173Y-94316710D01*
X141503177Y-94316713D01*
X141503179Y-94316715D01*
X141635322Y-94393008D01*
X141782707Y-94432500D01*
X141782708Y-94432500D01*
X141935292Y-94432500D01*
X141935293Y-94432500D01*
X142082678Y-94393008D01*
X142214821Y-94316715D01*
X142322715Y-94208821D01*
X142399008Y-94076678D01*
X142438500Y-93929293D01*
X142438500Y-93776707D01*
X142399008Y-93629322D01*
X142322715Y-93497179D01*
X142322713Y-93497177D01*
X142322710Y-93497173D01*
X142214826Y-93389289D01*
X142214822Y-93389286D01*
X142214821Y-93389285D01*
X142148749Y-93351138D01*
X142082677Y-93312991D01*
X142082673Y-93312990D01*
X141935299Y-93273501D01*
X141935294Y-93273500D01*
X141935293Y-93273500D01*
X141782707Y-93273500D01*
X141782706Y-93273500D01*
X141782700Y-93273501D01*
X141635326Y-93312990D01*
X141635322Y-93312991D01*
X141503177Y-93389286D01*
X141503173Y-93389289D01*
X141395289Y-93497173D01*
X141395286Y-93497177D01*
X141318991Y-93629322D01*
X141318990Y-93629326D01*
X141279501Y-93776700D01*
X141279500Y-93776708D01*
X135310163Y-93776708D01*
X135490696Y-93596291D01*
X135534876Y-93578000D01*
X136339383Y-93578000D01*
X136339384Y-93578000D01*
X137499031Y-92304023D01*
X137586247Y-92208208D01*
X141489000Y-92208208D01*
X141489000Y-92360791D01*
X141489001Y-92360799D01*
X141528490Y-92508173D01*
X141528491Y-92508177D01*
X141528492Y-92508178D01*
X141602831Y-92636937D01*
X141604786Y-92640322D01*
X141604789Y-92640326D01*
X141712673Y-92748210D01*
X141712677Y-92748213D01*
X141712679Y-92748215D01*
X141844822Y-92824508D01*
X141992207Y-92864000D01*
X141992208Y-92864000D01*
X142144792Y-92864000D01*
X142144793Y-92864000D01*
X142292178Y-92824508D01*
X142424321Y-92748215D01*
X142532215Y-92640321D01*
X142608508Y-92508178D01*
X142648000Y-92360793D01*
X142648000Y-92208207D01*
X142608508Y-92060822D01*
X142532215Y-91928679D01*
X142468729Y-91865193D01*
X142450424Y-91821000D01*
X142468729Y-91776806D01*
X142468730Y-91776806D01*
X142576710Y-91668826D01*
X142576715Y-91668821D01*
X142653008Y-91536678D01*
X142692500Y-91389293D01*
X142692500Y-91236707D01*
X142653008Y-91089322D01*
X142576715Y-90957179D01*
X142576713Y-90957177D01*
X142576710Y-90957173D01*
X142468826Y-90849289D01*
X142468822Y-90849286D01*
X142468821Y-90849285D01*
X142388544Y-90802937D01*
X142336677Y-90772991D01*
X142336673Y-90772990D01*
X142189299Y-90733501D01*
X142189294Y-90733500D01*
X142189293Y-90733500D01*
X142036707Y-90733500D01*
X142036706Y-90733500D01*
X142036700Y-90733501D01*
X141889326Y-90772990D01*
X141889322Y-90772991D01*
X141757177Y-90849286D01*
X141757173Y-90849289D01*
X141649289Y-90957173D01*
X141649286Y-90957177D01*
X141572991Y-91089322D01*
X141572990Y-91089326D01*
X141533501Y-91236700D01*
X141533500Y-91236708D01*
X141533500Y-91389291D01*
X141533501Y-91389299D01*
X141572990Y-91536673D01*
X141572991Y-91536677D01*
X141608978Y-91599008D01*
X141649285Y-91668821D01*
X141712769Y-91732305D01*
X141731075Y-91776499D01*
X141712770Y-91820693D01*
X141712769Y-91820693D01*
X141604789Y-91928673D01*
X141604786Y-91928677D01*
X141528491Y-92060822D01*
X141528490Y-92060826D01*
X141489001Y-92208200D01*
X141489000Y-92208208D01*
X137586247Y-92208208D01*
X137628273Y-92162039D01*
X138086650Y-91658470D01*
X138121519Y-91640246D01*
X138121336Y-91639561D01*
X138124402Y-91638739D01*
X138124715Y-91638576D01*
X138125290Y-91638500D01*
X138125293Y-91638500D01*
X138125295Y-91638499D01*
X138125298Y-91638499D01*
X138198985Y-91618754D01*
X138272678Y-91599008D01*
X138404821Y-91522715D01*
X138512715Y-91414821D01*
X138589008Y-91282678D01*
X138628500Y-91135293D01*
X138628500Y-90982707D01*
X138589008Y-90835322D01*
X138576104Y-90812971D01*
X138532373Y-90737227D01*
X138524000Y-90705977D01*
X138524000Y-89124471D01*
X138542306Y-89080277D01*
X138586500Y-89061971D01*
X138630694Y-89080277D01*
X138646870Y-89108295D01*
X138650990Y-89123674D01*
X138650991Y-89123677D01*
X138686978Y-89186008D01*
X138694066Y-89198285D01*
X138727286Y-89255822D01*
X138727289Y-89255826D01*
X138835173Y-89363710D01*
X138835177Y-89363713D01*
X138835179Y-89363715D01*
X138967322Y-89440008D01*
X139114707Y-89479500D01*
X139114708Y-89479500D01*
X139267292Y-89479500D01*
X139267293Y-89479500D01*
X139414678Y-89440008D01*
X139546821Y-89363715D01*
X139654715Y-89255821D01*
X139731008Y-89123678D01*
X139770500Y-88976293D01*
X139770500Y-88823707D01*
X139731008Y-88676322D01*
X139654715Y-88544179D01*
X139654713Y-88544177D01*
X139654710Y-88544173D01*
X139546826Y-88436289D01*
X139546822Y-88436286D01*
X139546821Y-88436285D01*
X139480749Y-88398138D01*
X139414677Y-88359991D01*
X139414673Y-88359990D01*
X139267299Y-88320501D01*
X139267294Y-88320500D01*
X139267293Y-88320500D01*
X139114707Y-88320500D01*
X139114706Y-88320500D01*
X139114700Y-88320501D01*
X138967326Y-88359990D01*
X138967322Y-88359991D01*
X138835177Y-88436286D01*
X138835173Y-88436289D01*
X138790694Y-88480769D01*
X138746500Y-88499075D01*
X138702306Y-88480769D01*
X138684000Y-88436575D01*
X138684000Y-87680708D01*
X140771500Y-87680708D01*
X140771500Y-87833291D01*
X140771501Y-87833299D01*
X140810990Y-87980673D01*
X140810991Y-87980677D01*
X140827531Y-88009325D01*
X140883342Y-88105992D01*
X140887286Y-88112822D01*
X140887289Y-88112826D01*
X140995173Y-88220710D01*
X140995177Y-88220713D01*
X140995179Y-88220715D01*
X141127322Y-88297008D01*
X141274707Y-88336500D01*
X141274708Y-88336500D01*
X141427292Y-88336500D01*
X141427293Y-88336500D01*
X141574678Y-88297008D01*
X141706821Y-88220715D01*
X141814715Y-88112821D01*
X141891008Y-87980678D01*
X141930500Y-87833293D01*
X141930500Y-87680707D01*
X141891008Y-87533322D01*
X141814715Y-87401179D01*
X141814713Y-87401177D01*
X141814710Y-87401173D01*
X141706826Y-87293289D01*
X141706822Y-87293286D01*
X141706821Y-87293285D01*
X141614891Y-87240209D01*
X141574677Y-87216991D01*
X141574673Y-87216990D01*
X141427299Y-87177501D01*
X141427294Y-87177500D01*
X141427293Y-87177500D01*
X141274707Y-87177500D01*
X141274706Y-87177500D01*
X141274700Y-87177501D01*
X141127326Y-87216990D01*
X141127322Y-87216991D01*
X140995177Y-87293286D01*
X140995173Y-87293289D01*
X140887289Y-87401173D01*
X140887286Y-87401177D01*
X140810991Y-87533322D01*
X140810990Y-87533326D01*
X140771501Y-87680700D01*
X140771500Y-87680708D01*
X138684000Y-87680708D01*
X138684000Y-87376000D01*
X138548209Y-87240209D01*
X138549844Y-87238573D01*
X138528754Y-87217479D01*
X138524000Y-87193569D01*
X138524000Y-87064638D01*
X138542306Y-87020444D01*
X138555245Y-87010514D01*
X138658821Y-86950715D01*
X138766715Y-86842821D01*
X138843008Y-86710678D01*
X138882500Y-86563293D01*
X138882500Y-86410707D01*
X138843008Y-86263322D01*
X138766715Y-86131179D01*
X138766713Y-86131177D01*
X138766710Y-86131173D01*
X138658826Y-86023289D01*
X138658817Y-86023282D01*
X138555250Y-85963487D01*
X138526130Y-85925537D01*
X138524000Y-85909361D01*
X138524000Y-84949000D01*
X138542306Y-84904806D01*
X138586500Y-84886500D01*
X139232087Y-84886500D01*
X139232088Y-84886500D01*
X139309533Y-84865749D01*
X139378968Y-84825661D01*
X139407590Y-84797038D01*
X139451783Y-84778732D01*
X139495977Y-84797037D01*
X139512154Y-84825056D01*
X139540990Y-84932673D01*
X139540991Y-84932677D01*
X139558488Y-84962982D01*
X139616222Y-85062980D01*
X139617286Y-85064822D01*
X139617289Y-85064826D01*
X139725173Y-85172710D01*
X139725177Y-85172713D01*
X139725179Y-85172715D01*
X139857322Y-85249008D01*
X140004707Y-85288500D01*
X140004708Y-85288500D01*
X140157292Y-85288500D01*
X140157293Y-85288500D01*
X140304678Y-85249008D01*
X140436821Y-85172715D01*
X140544715Y-85064821D01*
X140621008Y-84932678D01*
X140660500Y-84785293D01*
X140660500Y-84632708D01*
X142676500Y-84632708D01*
X142676500Y-84785291D01*
X142676501Y-84785299D01*
X142715990Y-84932673D01*
X142715991Y-84932677D01*
X142733488Y-84962982D01*
X142791222Y-85062980D01*
X142792286Y-85064822D01*
X142792289Y-85064826D01*
X142900173Y-85172710D01*
X142900177Y-85172713D01*
X142900179Y-85172715D01*
X143032322Y-85249008D01*
X143179707Y-85288500D01*
X143179708Y-85288500D01*
X143332292Y-85288500D01*
X143332293Y-85288500D01*
X143479678Y-85249008D01*
X143611821Y-85172715D01*
X143719715Y-85064821D01*
X143719717Y-85064816D01*
X143721554Y-85062980D01*
X143765748Y-85044674D01*
X143809943Y-85062979D01*
X143809943Y-85062980D01*
X143916173Y-85169210D01*
X143916177Y-85169213D01*
X143916179Y-85169215D01*
X144048322Y-85245508D01*
X144195707Y-85285000D01*
X144195708Y-85285000D01*
X144348292Y-85285000D01*
X144348293Y-85285000D01*
X144495678Y-85245508D01*
X144627821Y-85169215D01*
X144735715Y-85061321D01*
X144812008Y-84929178D01*
X144851500Y-84781793D01*
X144851500Y-84759708D01*
X145724500Y-84759708D01*
X145724500Y-84912291D01*
X145724501Y-84912299D01*
X145763990Y-85059673D01*
X145763991Y-85059677D01*
X145765898Y-85062980D01*
X145829251Y-85172710D01*
X145840286Y-85191822D01*
X145840289Y-85191826D01*
X145948173Y-85299710D01*
X145948177Y-85299713D01*
X145948179Y-85299715D01*
X146080322Y-85376008D01*
X146227707Y-85415500D01*
X146227708Y-85415500D01*
X146380292Y-85415500D01*
X146380293Y-85415500D01*
X146527678Y-85376008D01*
X146659821Y-85299715D01*
X146767715Y-85191821D01*
X146844008Y-85059678D01*
X146883500Y-84912293D01*
X146883500Y-84759707D01*
X146844008Y-84612322D01*
X146767715Y-84480179D01*
X146767713Y-84480177D01*
X146767710Y-84480173D01*
X146659826Y-84372289D01*
X146659822Y-84372286D01*
X146659821Y-84372285D01*
X146585076Y-84329131D01*
X146527677Y-84295991D01*
X146527673Y-84295990D01*
X146380299Y-84256501D01*
X146380294Y-84256500D01*
X146380293Y-84256500D01*
X146227707Y-84256500D01*
X146227706Y-84256500D01*
X146227700Y-84256501D01*
X146080326Y-84295990D01*
X146080322Y-84295991D01*
X145948177Y-84372286D01*
X145948173Y-84372289D01*
X145840289Y-84480173D01*
X145840286Y-84480177D01*
X145763991Y-84612322D01*
X145763990Y-84612326D01*
X145724501Y-84759700D01*
X145724500Y-84759708D01*
X144851500Y-84759708D01*
X144851500Y-84629207D01*
X144812008Y-84481822D01*
X144735715Y-84349679D01*
X144735713Y-84349677D01*
X144735710Y-84349673D01*
X144627826Y-84241789D01*
X144627822Y-84241786D01*
X144627821Y-84241785D01*
X144561749Y-84203638D01*
X144495677Y-84165491D01*
X144495673Y-84165490D01*
X144348299Y-84126001D01*
X144348294Y-84126000D01*
X144348293Y-84126000D01*
X144195707Y-84126000D01*
X144195706Y-84126000D01*
X144195700Y-84126001D01*
X144048326Y-84165490D01*
X144048322Y-84165491D01*
X143916177Y-84241786D01*
X143916173Y-84241789D01*
X143806444Y-84351519D01*
X143762250Y-84369825D01*
X143718056Y-84351519D01*
X143611826Y-84245289D01*
X143611822Y-84245286D01*
X143611821Y-84245285D01*
X143545749Y-84207138D01*
X143479677Y-84168991D01*
X143479673Y-84168990D01*
X143332299Y-84129501D01*
X143332294Y-84129500D01*
X143332293Y-84129500D01*
X143179707Y-84129500D01*
X143179706Y-84129500D01*
X143179700Y-84129501D01*
X143032326Y-84168990D01*
X143032322Y-84168991D01*
X142900177Y-84245286D01*
X142900173Y-84245289D01*
X142792289Y-84353173D01*
X142792286Y-84353177D01*
X142715991Y-84485322D01*
X142715990Y-84485326D01*
X142676501Y-84632700D01*
X142676500Y-84632708D01*
X140660500Y-84632708D01*
X140660500Y-84632707D01*
X140621008Y-84485322D01*
X140544715Y-84353179D01*
X140544713Y-84353177D01*
X140544710Y-84353173D01*
X140436826Y-84245289D01*
X140436822Y-84245286D01*
X140436821Y-84245285D01*
X140370749Y-84207138D01*
X140304677Y-84168991D01*
X140304673Y-84168990D01*
X140157299Y-84129501D01*
X140157294Y-84129500D01*
X140157293Y-84129500D01*
X140004707Y-84129500D01*
X140004706Y-84129500D01*
X140004700Y-84129501D01*
X139857326Y-84168990D01*
X139857322Y-84168991D01*
X139725177Y-84245286D01*
X139725173Y-84245289D01*
X139617289Y-84353173D01*
X139617286Y-84353177D01*
X139613126Y-84360383D01*
X139575174Y-84389502D01*
X139527748Y-84383257D01*
X139498629Y-84345305D01*
X139496500Y-84329131D01*
X139496500Y-83628500D01*
X139514806Y-83584306D01*
X139559000Y-83566000D01*
X148183112Y-83566000D01*
X148227306Y-83584306D01*
G37*
G04 #@! TD.AperFunction*
G04 #@! TD*
G04 #@! TA.AperFunction,Conductor*
G04 #@! TO.N,+3.3V*
G36*
X146566755Y-101854000D02*
G01*
X146566755Y-102362000D01*
X145986404Y-102426755D01*
X145922000Y-102108000D01*
X145986404Y-101789245D01*
X146566755Y-101854000D01*
G37*
G04 #@! TD.AperFunction*
G04 #@! TD*
G04 #@! TA.AperFunction,Conductor*
G04 #@! TO.N,+3.3V*
G36*
X152527707Y-87121293D02*
G01*
X152707560Y-87392228D01*
X152251402Y-87756808D01*
X151892192Y-87397598D01*
X152256772Y-86941440D01*
X152527707Y-87121293D01*
G37*
G04 #@! TD.AperFunction*
G04 #@! TD*
G04 #@! TA.AperFunction,Conductor*
G04 #@! TO.N,+3.3V*
G36*
X149670755Y-85149904D02*
G01*
X149606000Y-85730255D01*
X149098000Y-85730255D01*
X149033245Y-85149904D01*
X149352000Y-85085500D01*
X149670755Y-85149904D01*
G37*
G04 #@! TD.AperFunction*
G04 #@! TD*
G04 #@! TA.AperFunction,Conductor*
G04 #@! TO.N,+3.3V*
G36*
X152274000Y-95504000D02*
G01*
X152336404Y-95822755D01*
X151655587Y-95885000D01*
X151655587Y-95377000D01*
X152209596Y-95185245D01*
X152274000Y-95504000D01*
G37*
G04 #@! TD.AperFunction*
G04 #@! TD*
G04 #@! TA.AperFunction,Conductor*
G04 #@! TO.N,VCC*
G36*
X148809774Y-95618565D02*
G01*
X148450565Y-95977774D01*
X148065772Y-95430560D01*
X148335293Y-95249293D01*
X148654755Y-95186596D01*
X148809774Y-95618565D01*
G37*
G04 #@! TD.AperFunction*
G04 #@! TD*
G04 #@! TA.AperFunction,Conductor*
G04 #@! TO.N,VCC*
G36*
X146065716Y-90832360D02*
G01*
X146065716Y-91340360D01*
X145485365Y-91425522D01*
X145420961Y-91106767D01*
X145485365Y-90788012D01*
X146065716Y-90832360D01*
G37*
G04 #@! TD.AperFunction*
G04 #@! TD*
G04 #@! TA.AperFunction,Conductor*
G04 #@! TO.N,VCC*
G36*
X145796707Y-86867293D02*
G01*
X145732596Y-87186755D01*
X145334414Y-87053795D01*
X144975205Y-86694586D01*
X145732596Y-86549245D01*
X145796707Y-86867293D01*
G37*
G04 #@! TD.AperFunction*
G04 #@! TD*
G04 #@! TA.AperFunction,Conductor*
G04 #@! TO.N,VCC*
G36*
X134874707Y-87883293D02*
G01*
X135054560Y-88154228D01*
X134598402Y-88518808D01*
X134239192Y-88159598D01*
X134603772Y-87703440D01*
X134874707Y-87883293D01*
G37*
G04 #@! TD.AperFunction*
G04 #@! TD*
G04 #@! TA.AperFunction,Conductor*
G04 #@! TO.N,VCC*
G36*
X140775789Y-101219000D02*
G01*
X140207904Y-101377255D01*
X140143500Y-101058500D01*
X140081096Y-100739745D01*
X140775789Y-100711000D01*
X140775789Y-101219000D01*
G37*
G04 #@! TD.AperFunction*
G04 #@! TD*
G04 #@! TA.AperFunction,Conductor*
G04 #@! TO.N,VCC*
G36*
X140145500Y-101058500D02*
G01*
X140081096Y-101377255D01*
X139500745Y-101346000D01*
X139500745Y-100838000D01*
X140081096Y-100739745D01*
X140145500Y-101058500D01*
G37*
G04 #@! TD.AperFunction*
G04 #@! TD*
G04 #@! TA.AperFunction,Conductor*
G04 #@! TO.N,VCC*
G36*
X148399404Y-94931245D02*
G01*
X148337000Y-95250000D01*
X148065772Y-95430560D01*
X147850799Y-95213299D01*
X147850799Y-94705299D01*
X148399404Y-94931245D01*
G37*
G04 #@! TD.AperFunction*
G04 #@! TD*
G04 #@! TA.AperFunction,Conductor*
G04 #@! TO.N,VCC*
G36*
X137975560Y-101583772D02*
G01*
X137795707Y-101854707D01*
X137524772Y-102034560D01*
X137160192Y-101578402D01*
X137519402Y-101219192D01*
X137975560Y-101583772D01*
G37*
G04 #@! TD.AperFunction*
G04 #@! TD*
G04 #@! TA.AperFunction,Conductor*
G04 #@! TO.N,VCC*
G36*
X145422961Y-91106767D02*
G01*
X145358557Y-91425522D01*
X144778206Y-91313000D01*
X144778206Y-90805000D01*
X145358557Y-90788012D01*
X145422961Y-91106767D01*
G37*
G04 #@! TD.AperFunction*
G04 #@! TD*
G04 #@! TA.AperFunction,Conductor*
G04 #@! TO.N,VEE*
G36*
X136253883Y-93692930D02*
G01*
X136253883Y-94200930D01*
X135673532Y-94268535D01*
X135609128Y-93949780D01*
X135673532Y-93631025D01*
X136253883Y-93692930D01*
G37*
G04 #@! TD.AperFunction*
G04 #@! TD*
G04 #@! TA.AperFunction,Conductor*
G04 #@! TO.N,VEE*
G36*
X140216560Y-96839772D02*
G01*
X140036707Y-97110707D01*
X139765772Y-97290560D01*
X139401192Y-96834402D01*
X139760402Y-96475192D01*
X140216560Y-96839772D01*
G37*
G04 #@! TD.AperFunction*
G04 #@! TD*
G04 #@! TA.AperFunction,Conductor*
G04 #@! TO.N,VEE*
G36*
X148023500Y-99119500D02*
G01*
X147959096Y-99438255D01*
X147378745Y-99314000D01*
X147378745Y-98806000D01*
X147959096Y-98800745D01*
X148023500Y-99119500D01*
G37*
G04 #@! TD.AperFunction*
G04 #@! TD*
G04 #@! TA.AperFunction,Conductor*
G04 #@! TO.N,VEE*
G36*
X141097707Y-84958793D02*
G01*
X141415755Y-85022904D01*
X141135003Y-85724206D01*
X140775794Y-85364997D01*
X140778245Y-84896096D01*
X141097707Y-84958793D01*
G37*
G04 #@! TD.AperFunction*
G04 #@! TD*
G04 #@! TA.AperFunction,Conductor*
G04 #@! TO.N,VEE*
G36*
X141731808Y-84683902D02*
G01*
X141367228Y-85140060D01*
X141096293Y-84960207D01*
X140916440Y-84689272D01*
X141372598Y-84324692D01*
X141731808Y-84683902D01*
G37*
G04 #@! TD.AperFunction*
G04 #@! TD*
G04 #@! TA.AperFunction,Conductor*
G04 #@! TO.N,VEE*
G36*
X139727777Y-90119540D02*
G01*
X139363197Y-90575698D01*
X139092262Y-90395845D01*
X138912409Y-90124910D01*
X139368567Y-89760330D01*
X139727777Y-90119540D01*
G37*
G04 #@! TD.AperFunction*
G04 #@! TD*
G04 #@! TA.AperFunction,Conductor*
G04 #@! TO.N,VEE*
G36*
X136253883Y-93726000D02*
G01*
X136253883Y-94234000D01*
X135673532Y-94268535D01*
X135609128Y-93949780D01*
X135673532Y-93631025D01*
X136253883Y-93726000D01*
G37*
G04 #@! TD.AperFunction*
G04 #@! TD*
G04 #@! TA.AperFunction,Conductor*
G04 #@! TO.N,VEE*
G36*
X140715739Y-96879471D02*
G01*
X140306228Y-97290560D01*
X140035293Y-97110707D01*
X139855440Y-96839772D01*
X140356529Y-96520261D01*
X140715739Y-96879471D01*
G37*
G04 #@! TD.AperFunction*
G04 #@! TD*
G04 #@! TA.AperFunction,Conductor*
G04 #@! TO.N,VEE*
G36*
X139411724Y-90458542D02*
G01*
X139346969Y-91038893D01*
X138838969Y-91038893D01*
X138774214Y-90458542D01*
X139092969Y-90394138D01*
X139411724Y-90458542D01*
G37*
G04 #@! TD.AperFunction*
G04 #@! TD*
G04 #@! TA.AperFunction,Conductor*
G04 #@! TO.N,VEE*
G36*
X148225228Y-84909440D02*
G01*
X147955707Y-85090707D01*
X147636245Y-85153404D01*
X147592074Y-84701785D01*
X147951285Y-84342574D01*
X148225228Y-84909440D01*
G37*
G04 #@! TD.AperFunction*
G04 #@! TD*
M02*
