G04 #@! TF.GenerationSoftware,KiCad,Pcbnew,9.0.3*
G04 #@! TF.CreationDate,2025-08-06T23:44:27+02:00*
G04 #@! TF.ProjectId,MADC,4d414443-2e6b-4696-9361-645f70636258,rev?*
G04 #@! TF.SameCoordinates,Original*
G04 #@! TF.FileFunction,Legend,Bot*
G04 #@! TF.FilePolarity,Positive*
%FSLAX46Y46*%
G04 Gerber Fmt 4.6, Leading zero omitted, Abs format (unit mm)*
G04 Created by KiCad (PCBNEW 9.0.3) date 2025-08-06 23:44:27*
%MOMM*%
%LPD*%
G01*
G04 APERTURE LIST*
%ADD10C,0.120000*%
G04 APERTURE END LIST*
D10*
G04 #@! TO.C,D2*
X142154000Y-83351000D02*
X144814000Y-83351000D01*
X142154000Y-85051000D02*
X142154000Y-83351000D01*
X142154000Y-85051000D02*
X144814000Y-85051000D01*
G04 #@! TO.C,C14*
X143879835Y-85365000D02*
X143648165Y-85365000D01*
X143879835Y-86085000D02*
X143648165Y-86085000D01*
G04 #@! TO.C,R4*
X143931621Y-86361000D02*
X143596379Y-86361000D01*
X143931621Y-87121000D02*
X143596379Y-87121000D01*
G04 #@! TO.C,RN1*
X142154000Y-93345000D02*
X142154000Y-91845000D01*
X142154000Y-93345000D02*
X142154000Y-94845000D01*
X145374000Y-93345000D02*
X145374000Y-91845000D01*
X145374000Y-93345000D02*
X145374000Y-94845000D01*
X145529000Y-95772500D02*
X145199000Y-95532500D01*
X145529000Y-95292500D01*
X145529000Y-95772500D01*
G36*
X145529000Y-95772500D02*
G01*
X145199000Y-95532500D01*
X145529000Y-95292500D01*
X145529000Y-95772500D01*
G37*
G04 #@! TO.C,J1*
X147210000Y-90715000D02*
X147210000Y-87085000D01*
X147275000Y-87085000D02*
X147210000Y-87085000D01*
X147275000Y-90715000D02*
X147210000Y-90715000D01*
X152445000Y-91990000D02*
X152445000Y-90715000D01*
X152510000Y-87085000D02*
X152445000Y-87085000D01*
X152510000Y-90715000D02*
X152445000Y-90715000D01*
X152510000Y-90715000D02*
X152510000Y-87085000D01*
G04 #@! TO.C,J2*
X134510000Y-97245000D02*
X134510000Y-100875000D01*
X134510000Y-97245000D02*
X134575000Y-97245000D01*
X134510000Y-100875000D02*
X134575000Y-100875000D01*
X134575000Y-95970000D02*
X134575000Y-97245000D01*
X139745000Y-97245000D02*
X139810000Y-97245000D01*
X139745000Y-100875000D02*
X139810000Y-100875000D01*
X139810000Y-97245000D02*
X139810000Y-100875000D01*
G04 #@! TO.C,RN2*
X143764000Y-97831000D02*
X142264000Y-97831000D01*
X143764000Y-97831000D02*
X145264000Y-97831000D01*
X143764000Y-101051000D02*
X142264000Y-101051000D01*
X143764000Y-101051000D02*
X145264000Y-101051000D01*
X145951500Y-98006000D02*
X145711500Y-97676000D01*
X146191500Y-97676000D01*
X145951500Y-98006000D01*
G36*
X145951500Y-98006000D02*
G01*
X145711500Y-97676000D01*
X146191500Y-97676000D01*
X145951500Y-98006000D01*
G37*
G04 #@! TO.C,C5*
X145817000Y-92063835D02*
X145817000Y-91832165D01*
X146537000Y-92063835D02*
X146537000Y-91832165D01*
G04 #@! TD*
M02*
