G04 #@! TF.GenerationSoftware,KiCad,Pcbnew,9.0.3*
G04 #@! TF.CreationDate,2025-08-06T23:44:26+02:00*
G04 #@! TF.ProjectId,MADC,4d414443-2e6b-4696-9361-645f70636258,rev?*
G04 #@! TF.SameCoordinates,Original*
G04 #@! TF.FileFunction,Copper,L2,Inr*
G04 #@! TF.FilePolarity,Positive*
%FSLAX46Y46*%
G04 Gerber Fmt 4.6, Leading zero omitted, Abs format (unit mm)*
G04 Created by KiCad (PCBNEW 9.0.3) date 2025-08-06 23:44:26*
%MOMM*%
%LPD*%
G01*
G04 APERTURE LIST*
G04 #@! TA.AperFunction,NonConductor*
%ADD10C,0.100000*%
G04 #@! TD*
%ADD11C,0.100000*%
G04 #@! TA.AperFunction,ViaPad*
%ADD12C,0.650000*%
G04 #@! TD*
G04 #@! TA.AperFunction,Conductor*
%ADD13C,0.889000*%
G04 #@! TD*
G04 APERTURE END LIST*
D10*
X136525000Y-83566000D02*
X137414000Y-83566000D01*
X137414000Y-84582000D01*
X136525000Y-84582000D01*
X136525000Y-83566000D01*
X138303000Y-83566000D02*
X139192000Y-83566000D01*
X139192000Y-84582000D01*
X138303000Y-84582000D01*
X138303000Y-83566000D01*
X137414000Y-83566000D02*
X138303000Y-83566000D01*
X138303000Y-84582000D01*
X137414000Y-84582000D01*
X137414000Y-83566000D01*
X135636000Y-83566000D02*
X136525000Y-83566000D01*
X136525000Y-84582000D01*
X135636000Y-84582000D01*
X135636000Y-83566000D01*
D11*
D10*
X136813027Y-83860028D02*
X136836836Y-83836219D01*
X136836836Y-83836219D02*
X136884455Y-83812409D01*
X136884455Y-83812409D02*
X137003503Y-83812409D01*
X137003503Y-83812409D02*
X137051122Y-83836219D01*
X137051122Y-83836219D02*
X137074931Y-83860028D01*
X137074931Y-83860028D02*
X137098741Y-83907647D01*
X137098741Y-83907647D02*
X137098741Y-83955266D01*
X137098741Y-83955266D02*
X137074931Y-84026695D01*
X137074931Y-84026695D02*
X136789217Y-84312409D01*
X136789217Y-84312409D02*
X137098741Y-84312409D01*
D12*
G04 #@! TO.N,+3.3V*
X145923000Y-102108000D03*
X152527000Y-87122000D03*
X152273000Y-95504000D03*
X149352000Y-85086500D03*
X152527000Y-86233000D03*
G04 #@! TO.N,GNDA*
X143256000Y-93726000D03*
X140081000Y-94361000D03*
X147462857Y-96976980D03*
X139954000Y-98425000D03*
X144272000Y-93726000D03*
X135255000Y-101854000D03*
X140081000Y-84709000D03*
X134874000Y-84074000D03*
X142113000Y-91313000D03*
X143764000Y-99949000D03*
X150368000Y-85086500D03*
X138049000Y-91059000D03*
X135763000Y-90932000D03*
X146304000Y-84836000D03*
X135255000Y-100838000D03*
X134874000Y-85471000D03*
X147056000Y-88265000D03*
X143764000Y-98933000D03*
X141351000Y-87757000D03*
G04 #@! TO.N,Net-(D1-A)*
X143256000Y-84709000D03*
G04 #@! TO.N,Net-(D1-K)*
X144272000Y-84705500D03*
X138303000Y-86487000D03*
G04 #@! TO.N,VCC*
X145796000Y-86868000D03*
X148336000Y-95250000D03*
X137795000Y-101854000D03*
X145421961Y-91106767D03*
X140144500Y-101058500D03*
X134874000Y-87884000D03*
G04 #@! TO.N,VEE*
X140036000Y-97110000D03*
X148022500Y-99119500D03*
X141097000Y-84959500D03*
X147955000Y-85090000D03*
X139092969Y-90395138D03*
X135610128Y-93949780D03*
G04 #@! TO.N,/AD_ID*
X145796000Y-88646000D03*
G04 #@! TO.N,GNDD*
X152527000Y-89916000D03*
X152527000Y-91059000D03*
X152273000Y-98298000D03*
X152273000Y-101854000D03*
X147829500Y-93472000D03*
G04 #@! TO.N,/SW_VRH*
X148717000Y-101219000D03*
G04 #@! TO.N,/AD_IRP*
X145542000Y-93726000D03*
G04 #@! TO.N,/AD_IIN*
X139191000Y-88900000D03*
G04 #@! TO.N,/AD_CMP*
X150495000Y-92893000D03*
G04 #@! TO.N,/AD_IRN*
X141859000Y-93853000D03*
G04 #@! TO.N,VREF*
X146558000Y-97790000D03*
G04 #@! TO.N,/AD_REF+*
X143327000Y-96901829D03*
G04 #@! TO.N,Net-(RN1-Pad6)*
X145288000Y-92285500D03*
G04 #@! TO.N,/AD_REF-*
X144201000Y-96901000D03*
G04 #@! TO.N,Net-(RN1-Pad5)*
X142068500Y-92284500D03*
G04 #@! TO.N,Net-(RN1-Pad7)*
X143002000Y-89662000D03*
G04 #@! TO.N,Net-(RN2-Pad7)*
X140642114Y-99028012D03*
G04 #@! TO.N,Net-(U3B--)*
X141106725Y-97687000D03*
X144780000Y-97663000D03*
G04 #@! TD*
D13*
G04 #@! TO.N,GNDD*
X147829500Y-93472000D02*
X149606000Y-93472000D01*
X149606000Y-93472000D02*
X150114000Y-93980000D01*
G04 #@! TD*
G04 #@! TA.AperFunction,Conductor*
G04 #@! TO.N,GNDD*
G36*
X152296412Y-87511372D02*
G01*
X152313618Y-87521306D01*
X152352341Y-87543663D01*
X152352344Y-87543664D01*
X152392711Y-87554480D01*
X152467427Y-87574500D01*
X152467428Y-87574500D01*
X152586571Y-87574500D01*
X152586573Y-87574500D01*
X152586581Y-87574498D01*
X152600919Y-87570656D01*
X152661287Y-87554480D01*
X152708711Y-87560723D01*
X152721656Y-87570656D01*
X152889694Y-87738694D01*
X152908000Y-87782888D01*
X152908000Y-102209112D01*
X152889694Y-102253306D01*
X152672306Y-102470694D01*
X152628112Y-102489000D01*
X146837888Y-102489000D01*
X146793694Y-102470694D01*
X146576306Y-102253306D01*
X146558000Y-102209112D01*
X146558000Y-101159428D01*
X148264500Y-101159428D01*
X148264500Y-101278571D01*
X148264501Y-101278579D01*
X148295335Y-101393655D01*
X148295336Y-101393658D01*
X148354911Y-101496843D01*
X148354914Y-101496847D01*
X148439152Y-101581085D01*
X148439156Y-101581088D01*
X148439158Y-101581090D01*
X148542341Y-101640663D01*
X148542344Y-101640664D01*
X148597714Y-101655500D01*
X148657427Y-101671500D01*
X148657428Y-101671500D01*
X148776572Y-101671500D01*
X148776573Y-101671500D01*
X148891659Y-101640663D01*
X148994842Y-101581090D01*
X149079090Y-101496842D01*
X149138663Y-101393659D01*
X149169500Y-101278573D01*
X149169500Y-101159427D01*
X149138663Y-101044341D01*
X149079090Y-100941158D01*
X149079088Y-100941156D01*
X149079085Y-100941152D01*
X148994847Y-100856914D01*
X148994843Y-100856911D01*
X148994842Y-100856910D01*
X148930382Y-100819694D01*
X148891658Y-100797336D01*
X148891655Y-100797335D01*
X148776579Y-100766501D01*
X148776574Y-100766500D01*
X148776573Y-100766500D01*
X148657427Y-100766500D01*
X148657426Y-100766500D01*
X148657420Y-100766501D01*
X148542344Y-100797335D01*
X148542341Y-100797336D01*
X148439156Y-100856911D01*
X148439152Y-100856914D01*
X148354914Y-100941152D01*
X148354911Y-100941156D01*
X148295336Y-101044341D01*
X148295335Y-101044344D01*
X148264501Y-101159420D01*
X148264500Y-101159428D01*
X146558000Y-101159428D01*
X146558000Y-100863888D01*
X146576306Y-100819694D01*
X146793694Y-100602306D01*
X146837888Y-100584000D01*
X148844000Y-100584000D01*
X149352000Y-100076000D01*
X149352000Y-95444428D01*
X151820500Y-95444428D01*
X151820500Y-95563571D01*
X151820501Y-95563579D01*
X151851335Y-95678655D01*
X151851336Y-95678658D01*
X151910911Y-95781843D01*
X151910914Y-95781847D01*
X151995152Y-95866085D01*
X151995156Y-95866088D01*
X151995158Y-95866090D01*
X152098341Y-95925663D01*
X152098344Y-95925664D01*
X152168769Y-95944534D01*
X152213427Y-95956500D01*
X152213428Y-95956500D01*
X152332572Y-95956500D01*
X152332573Y-95956500D01*
X152447659Y-95925663D01*
X152550842Y-95866090D01*
X152635090Y-95781842D01*
X152694663Y-95678659D01*
X152725500Y-95563573D01*
X152725500Y-95444427D01*
X152694663Y-95329341D01*
X152635090Y-95226158D01*
X152635088Y-95226156D01*
X152635085Y-95226152D01*
X152550847Y-95141914D01*
X152550843Y-95141911D01*
X152550842Y-95141910D01*
X152499250Y-95112123D01*
X152447658Y-95082336D01*
X152447655Y-95082335D01*
X152332579Y-95051501D01*
X152332574Y-95051500D01*
X152332573Y-95051500D01*
X152213427Y-95051500D01*
X152213426Y-95051500D01*
X152213420Y-95051501D01*
X152098344Y-95082335D01*
X152098341Y-95082336D01*
X151995156Y-95141911D01*
X151995152Y-95141914D01*
X151910914Y-95226152D01*
X151910911Y-95226156D01*
X151851336Y-95329341D01*
X151851335Y-95329344D01*
X151820501Y-95444420D01*
X151820500Y-95444428D01*
X149352000Y-95444428D01*
X149352000Y-92833428D01*
X150042500Y-92833428D01*
X150042500Y-92952571D01*
X150042501Y-92952579D01*
X150073335Y-93067655D01*
X150073336Y-93067658D01*
X150132911Y-93170843D01*
X150132914Y-93170847D01*
X150217152Y-93255085D01*
X150217156Y-93255088D01*
X150217158Y-93255090D01*
X150320341Y-93314663D01*
X150320344Y-93314664D01*
X150390769Y-93333534D01*
X150435427Y-93345500D01*
X150435428Y-93345500D01*
X150554572Y-93345500D01*
X150554573Y-93345500D01*
X150669659Y-93314663D01*
X150772842Y-93255090D01*
X150857090Y-93170842D01*
X150916663Y-93067659D01*
X150947500Y-92952573D01*
X150947500Y-92833427D01*
X150916663Y-92718341D01*
X150857090Y-92615158D01*
X150857088Y-92615156D01*
X150857085Y-92615152D01*
X150772847Y-92530914D01*
X150772843Y-92530911D01*
X150772842Y-92530910D01*
X150721250Y-92501123D01*
X150669658Y-92471336D01*
X150669655Y-92471335D01*
X150554579Y-92440501D01*
X150554574Y-92440500D01*
X150554573Y-92440500D01*
X150435427Y-92440500D01*
X150435426Y-92440500D01*
X150435420Y-92440501D01*
X150320344Y-92471335D01*
X150320341Y-92471336D01*
X150217156Y-92530911D01*
X150217152Y-92530914D01*
X150132914Y-92615152D01*
X150132911Y-92615156D01*
X150073336Y-92718341D01*
X150073335Y-92718344D01*
X150042501Y-92833420D01*
X150042500Y-92833428D01*
X149352000Y-92833428D01*
X149352000Y-87782888D01*
X149370306Y-87738694D01*
X149587694Y-87521306D01*
X149631888Y-87503000D01*
X152265164Y-87503000D01*
X152296412Y-87511372D01*
G37*
G04 #@! TD.AperFunction*
G04 #@! TD*
G04 #@! TA.AperFunction,Conductor*
G04 #@! TO.N,GNDA*
G36*
X135313194Y-83584306D02*
G01*
X135331500Y-83628500D01*
X135331500Y-84622086D01*
X135331501Y-84622094D01*
X135352249Y-84699529D01*
X135352250Y-84699532D01*
X135352251Y-84699533D01*
X135392339Y-84768968D01*
X135449032Y-84825661D01*
X135513397Y-84862822D01*
X135518467Y-84865749D01*
X135518470Y-84865750D01*
X135520605Y-84866322D01*
X135595912Y-84886500D01*
X135595913Y-84886500D01*
X139232087Y-84886500D01*
X139232088Y-84886500D01*
X139244374Y-84883208D01*
X140517500Y-84883208D01*
X140517500Y-85035791D01*
X140517501Y-85035799D01*
X140556990Y-85183173D01*
X140556991Y-85183177D01*
X140556992Y-85183178D01*
X140632336Y-85313678D01*
X140633286Y-85315322D01*
X140633289Y-85315326D01*
X140741173Y-85423210D01*
X140741177Y-85423213D01*
X140741179Y-85423215D01*
X140873322Y-85499508D01*
X141020707Y-85539000D01*
X141020708Y-85539000D01*
X141173292Y-85539000D01*
X141173293Y-85539000D01*
X141320678Y-85499508D01*
X141452821Y-85423215D01*
X141560715Y-85315321D01*
X141637008Y-85183178D01*
X141676500Y-85035793D01*
X141676500Y-84883207D01*
X141637008Y-84735822D01*
X141636059Y-84734179D01*
X141593155Y-84659866D01*
X141593153Y-84659864D01*
X141577475Y-84632708D01*
X142676500Y-84632708D01*
X142676500Y-84785291D01*
X142676501Y-84785299D01*
X142715990Y-84932673D01*
X142715991Y-84932677D01*
X142715992Y-84932678D01*
X142791222Y-85062980D01*
X142792286Y-85064822D01*
X142792289Y-85064826D01*
X142900173Y-85172710D01*
X142900177Y-85172713D01*
X142900179Y-85172715D01*
X143032322Y-85249008D01*
X143179707Y-85288500D01*
X143179708Y-85288500D01*
X143332292Y-85288500D01*
X143332293Y-85288500D01*
X143479678Y-85249008D01*
X143611821Y-85172715D01*
X143719715Y-85064821D01*
X143719717Y-85064816D01*
X143721554Y-85062980D01*
X143765748Y-85044674D01*
X143809943Y-85062979D01*
X143809943Y-85062980D01*
X143916173Y-85169210D01*
X143916177Y-85169213D01*
X143916179Y-85169215D01*
X144048322Y-85245508D01*
X144195707Y-85285000D01*
X144195708Y-85285000D01*
X144348292Y-85285000D01*
X144348293Y-85285000D01*
X144495678Y-85245508D01*
X144627821Y-85169215D01*
X144735715Y-85061321D01*
X144751558Y-85033879D01*
X144763204Y-85013708D01*
X147375500Y-85013708D01*
X147375500Y-85166291D01*
X147375501Y-85166299D01*
X147414990Y-85313673D01*
X147414991Y-85313677D01*
X147415941Y-85315322D01*
X147489267Y-85442326D01*
X147491286Y-85445822D01*
X147491289Y-85445826D01*
X147599173Y-85553710D01*
X147599177Y-85553713D01*
X147599179Y-85553715D01*
X147731322Y-85630008D01*
X147878707Y-85669500D01*
X147878708Y-85669500D01*
X148031292Y-85669500D01*
X148031293Y-85669500D01*
X148178678Y-85630008D01*
X148310821Y-85553715D01*
X148418715Y-85445821D01*
X148495008Y-85313678D01*
X148534500Y-85166293D01*
X148534500Y-85013707D01*
X148534500Y-85013705D01*
X148534499Y-85013702D01*
X148533563Y-85010208D01*
X148772500Y-85010208D01*
X148772500Y-85162791D01*
X148772501Y-85162799D01*
X148811990Y-85310173D01*
X148811991Y-85310177D01*
X148814961Y-85315321D01*
X148877251Y-85423210D01*
X148888286Y-85442322D01*
X148888289Y-85442326D01*
X148996173Y-85550210D01*
X148996177Y-85550213D01*
X148996179Y-85550215D01*
X149128322Y-85626508D01*
X149275707Y-85666000D01*
X149275708Y-85666000D01*
X149428292Y-85666000D01*
X149428293Y-85666000D01*
X149575678Y-85626508D01*
X149707821Y-85550215D01*
X149815715Y-85442321D01*
X149892008Y-85310178D01*
X149931500Y-85162793D01*
X149931500Y-85010207D01*
X149892008Y-84862822D01*
X149815715Y-84730679D01*
X149815713Y-84730677D01*
X149815710Y-84730673D01*
X149707826Y-84622789D01*
X149707822Y-84622786D01*
X149707821Y-84622785D01*
X149641749Y-84584638D01*
X149575677Y-84546491D01*
X149575673Y-84546490D01*
X149428299Y-84507001D01*
X149428294Y-84507000D01*
X149428293Y-84507000D01*
X149275707Y-84507000D01*
X149275706Y-84507000D01*
X149275700Y-84507001D01*
X149128326Y-84546490D01*
X149128322Y-84546491D01*
X148996177Y-84622786D01*
X148996173Y-84622789D01*
X148888289Y-84730673D01*
X148888286Y-84730677D01*
X148811991Y-84862822D01*
X148811990Y-84862826D01*
X148772501Y-85010200D01*
X148772500Y-85010208D01*
X148533563Y-85010208D01*
X148495009Y-84866326D01*
X148495008Y-84866322D01*
X148471532Y-84825661D01*
X148418715Y-84734179D01*
X148418713Y-84734177D01*
X148418710Y-84734173D01*
X148310826Y-84626289D01*
X148310822Y-84626286D01*
X148310821Y-84626285D01*
X148244749Y-84588138D01*
X148178677Y-84549991D01*
X148178673Y-84549990D01*
X148031299Y-84510501D01*
X148031294Y-84510500D01*
X148031293Y-84510500D01*
X147878707Y-84510500D01*
X147878706Y-84510500D01*
X147878700Y-84510501D01*
X147731326Y-84549990D01*
X147731322Y-84549991D01*
X147599177Y-84626286D01*
X147599173Y-84626289D01*
X147491289Y-84734173D01*
X147491286Y-84734177D01*
X147414991Y-84866322D01*
X147414990Y-84866326D01*
X147375501Y-85013700D01*
X147375500Y-85013708D01*
X144763204Y-85013708D01*
X144783611Y-84978364D01*
X144783612Y-84978361D01*
X144809987Y-84932678D01*
X144812008Y-84929178D01*
X144851500Y-84781793D01*
X144851500Y-84629207D01*
X144812008Y-84481822D01*
X144735715Y-84349679D01*
X144735713Y-84349677D01*
X144735710Y-84349673D01*
X144627826Y-84241789D01*
X144627822Y-84241786D01*
X144627821Y-84241785D01*
X144561749Y-84203638D01*
X144495677Y-84165491D01*
X144495673Y-84165490D01*
X144348299Y-84126001D01*
X144348294Y-84126000D01*
X144348293Y-84126000D01*
X144195707Y-84126000D01*
X144195706Y-84126000D01*
X144195700Y-84126001D01*
X144048326Y-84165490D01*
X144048322Y-84165491D01*
X143916177Y-84241786D01*
X143916173Y-84241789D01*
X143806444Y-84351519D01*
X143762250Y-84369825D01*
X143718056Y-84351519D01*
X143611826Y-84245289D01*
X143611822Y-84245286D01*
X143611821Y-84245285D01*
X143545749Y-84207138D01*
X143479677Y-84168991D01*
X143479673Y-84168990D01*
X143332299Y-84129501D01*
X143332294Y-84129500D01*
X143332293Y-84129500D01*
X143179707Y-84129500D01*
X143179706Y-84129500D01*
X143179700Y-84129501D01*
X143032326Y-84168990D01*
X143032322Y-84168991D01*
X142900177Y-84245286D01*
X142900173Y-84245289D01*
X142792289Y-84353173D01*
X142792286Y-84353177D01*
X142715991Y-84485322D01*
X142715990Y-84485326D01*
X142676501Y-84632700D01*
X142676500Y-84632708D01*
X141577475Y-84632708D01*
X141560715Y-84603679D01*
X141560713Y-84603677D01*
X141560710Y-84603673D01*
X141452826Y-84495789D01*
X141452822Y-84495786D01*
X141452821Y-84495785D01*
X141335643Y-84428132D01*
X141320677Y-84419491D01*
X141320673Y-84419490D01*
X141173299Y-84380001D01*
X141173294Y-84380000D01*
X141173293Y-84380000D01*
X141020707Y-84380000D01*
X141020706Y-84380000D01*
X141020700Y-84380001D01*
X140873326Y-84419490D01*
X140873322Y-84419491D01*
X140741177Y-84495786D01*
X140741173Y-84495789D01*
X140633289Y-84603673D01*
X140633286Y-84603677D01*
X140556991Y-84735822D01*
X140556990Y-84735826D01*
X140517501Y-84883200D01*
X140517500Y-84883208D01*
X139244374Y-84883208D01*
X139309533Y-84865749D01*
X139378968Y-84825661D01*
X139435661Y-84768968D01*
X139475749Y-84699533D01*
X139496500Y-84622088D01*
X139496500Y-83628500D01*
X139514806Y-83584306D01*
X139559000Y-83566000D01*
X152628112Y-83566000D01*
X152672306Y-83584306D01*
X152889694Y-83801694D01*
X152908000Y-83845888D01*
X152908000Y-85675568D01*
X152889694Y-85719762D01*
X152845500Y-85738068D01*
X152814250Y-85729695D01*
X152787883Y-85714472D01*
X152750678Y-85692992D01*
X152750675Y-85692991D01*
X152750673Y-85692990D01*
X152603299Y-85653501D01*
X152603294Y-85653500D01*
X152603293Y-85653500D01*
X152450707Y-85653500D01*
X152450706Y-85653500D01*
X152450700Y-85653501D01*
X152303326Y-85692990D01*
X152303322Y-85692991D01*
X152171177Y-85769286D01*
X152171173Y-85769289D01*
X152063289Y-85877173D01*
X152063286Y-85877177D01*
X151986991Y-86009322D01*
X151986990Y-86009326D01*
X151947501Y-86156700D01*
X151947500Y-86156708D01*
X151947500Y-86309291D01*
X151947501Y-86309299D01*
X151986990Y-86456673D01*
X151986991Y-86456677D01*
X151986992Y-86456678D01*
X152048546Y-86563293D01*
X152063286Y-86588822D01*
X152063289Y-86588826D01*
X152107769Y-86633306D01*
X152126075Y-86677500D01*
X152107769Y-86721694D01*
X152063289Y-86766173D01*
X152063286Y-86766177D01*
X151986991Y-86898322D01*
X151986990Y-86898326D01*
X151947501Y-87045700D01*
X151947500Y-87045708D01*
X151947500Y-87181000D01*
X151929194Y-87225194D01*
X151885000Y-87243500D01*
X149631887Y-87243500D01*
X149615411Y-87246777D01*
X149532581Y-87263253D01*
X149488389Y-87281559D01*
X149488385Y-87281561D01*
X149404200Y-87337811D01*
X149186811Y-87555200D01*
X149130561Y-87639385D01*
X149130560Y-87639386D01*
X149113431Y-87680739D01*
X149112374Y-87682973D01*
X149092500Y-87782887D01*
X149092500Y-92710500D01*
X149074194Y-92754694D01*
X149030000Y-92773000D01*
X147760655Y-92773000D01*
X147625610Y-92799861D01*
X147625607Y-92799862D01*
X147498398Y-92852554D01*
X147498396Y-92852555D01*
X147383914Y-92929050D01*
X147286550Y-93026414D01*
X147210055Y-93140896D01*
X147210054Y-93140898D01*
X147157362Y-93268107D01*
X147157361Y-93268110D01*
X147130500Y-93403154D01*
X147130500Y-93540845D01*
X147157361Y-93675889D01*
X147157362Y-93675892D01*
X147210054Y-93803101D01*
X147210055Y-93803103D01*
X147257085Y-93873488D01*
X147286551Y-93917586D01*
X147383914Y-94014949D01*
X147498399Y-94091446D01*
X147625609Y-94144138D01*
X147760655Y-94171000D01*
X149030000Y-94171000D01*
X149074194Y-94189306D01*
X149092500Y-94233500D01*
X149092500Y-99942624D01*
X149074194Y-99986818D01*
X148754818Y-100306194D01*
X148710624Y-100324500D01*
X146837887Y-100324500D01*
X146821411Y-100327777D01*
X146738581Y-100344253D01*
X146694389Y-100362559D01*
X146694385Y-100362561D01*
X146610200Y-100418811D01*
X146392811Y-100636200D01*
X146336561Y-100720385D01*
X146336560Y-100720386D01*
X146319431Y-100761739D01*
X146318374Y-100763973D01*
X146298500Y-100863887D01*
X146298500Y-101547393D01*
X146280194Y-101591587D01*
X146236000Y-101609893D01*
X146204750Y-101601520D01*
X146146677Y-101567991D01*
X146146673Y-101567990D01*
X145999299Y-101528501D01*
X145999294Y-101528500D01*
X145999293Y-101528500D01*
X145846707Y-101528500D01*
X145846706Y-101528500D01*
X145846700Y-101528501D01*
X145699326Y-101567990D01*
X145699322Y-101567991D01*
X145567177Y-101644286D01*
X145567173Y-101644289D01*
X145459289Y-101752173D01*
X145459286Y-101752177D01*
X145382991Y-101884322D01*
X145382990Y-101884326D01*
X145343501Y-102031700D01*
X145343500Y-102031708D01*
X145343500Y-102184291D01*
X145343501Y-102184299D01*
X145370035Y-102283324D01*
X145363792Y-102330750D01*
X145325841Y-102359870D01*
X145309665Y-102362000D01*
X138257425Y-102362000D01*
X138213231Y-102343694D01*
X138194925Y-102299500D01*
X138213231Y-102255306D01*
X138258710Y-102209826D01*
X138258715Y-102209821D01*
X138335008Y-102077678D01*
X138374500Y-101930293D01*
X138374500Y-101777707D01*
X138335008Y-101630322D01*
X138258715Y-101498179D01*
X138258713Y-101498177D01*
X138258710Y-101498173D01*
X138150826Y-101390289D01*
X138150822Y-101390286D01*
X138150821Y-101390285D01*
X138084749Y-101352138D01*
X138018677Y-101313991D01*
X138018673Y-101313990D01*
X137871299Y-101274501D01*
X137871294Y-101274500D01*
X137871293Y-101274500D01*
X137718707Y-101274500D01*
X137718706Y-101274500D01*
X137718700Y-101274501D01*
X137571326Y-101313990D01*
X137571322Y-101313991D01*
X137439177Y-101390286D01*
X137439173Y-101390289D01*
X137331289Y-101498173D01*
X137331286Y-101498177D01*
X137254991Y-101630322D01*
X137254990Y-101630326D01*
X137215501Y-101777700D01*
X137215500Y-101777708D01*
X137215500Y-101930291D01*
X137215501Y-101930299D01*
X137254990Y-102077673D01*
X137254991Y-102077677D01*
X137254992Y-102077678D01*
X137316546Y-102184293D01*
X137331286Y-102209822D01*
X137331289Y-102209826D01*
X137376769Y-102255306D01*
X137395075Y-102299500D01*
X137376769Y-102343694D01*
X137332575Y-102362000D01*
X134391888Y-102362000D01*
X134347694Y-102343694D01*
X134130306Y-102126306D01*
X134112000Y-102082112D01*
X134112000Y-100982208D01*
X139565000Y-100982208D01*
X139565000Y-101134791D01*
X139565001Y-101134799D01*
X139604490Y-101282173D01*
X139604491Y-101282177D01*
X139622859Y-101313991D01*
X139666908Y-101390286D01*
X139680786Y-101414322D01*
X139680789Y-101414326D01*
X139788673Y-101522210D01*
X139788677Y-101522213D01*
X139788679Y-101522215D01*
X139920822Y-101598508D01*
X140068207Y-101638000D01*
X140068208Y-101638000D01*
X140220792Y-101638000D01*
X140220793Y-101638000D01*
X140368178Y-101598508D01*
X140500321Y-101522215D01*
X140608215Y-101414321D01*
X140684508Y-101282178D01*
X140724000Y-101134793D01*
X140724000Y-100982207D01*
X140684508Y-100834822D01*
X140608215Y-100702679D01*
X140608213Y-100702677D01*
X140608210Y-100702673D01*
X140500326Y-100594789D01*
X140500322Y-100594786D01*
X140500321Y-100594785D01*
X140434249Y-100556638D01*
X140368177Y-100518491D01*
X140368173Y-100518490D01*
X140220799Y-100479001D01*
X140220794Y-100479000D01*
X140220793Y-100479000D01*
X140068207Y-100479000D01*
X140068206Y-100479000D01*
X140068200Y-100479001D01*
X139920826Y-100518490D01*
X139920822Y-100518491D01*
X139788677Y-100594786D01*
X139788673Y-100594789D01*
X139680789Y-100702673D01*
X139680786Y-100702677D01*
X139604491Y-100834822D01*
X139604490Y-100834826D01*
X139565001Y-100982200D01*
X139565000Y-100982208D01*
X134112000Y-100982208D01*
X134112000Y-98951720D01*
X140062614Y-98951720D01*
X140062614Y-99104303D01*
X140062615Y-99104311D01*
X140102104Y-99251685D01*
X140102105Y-99251689D01*
X140178400Y-99383834D01*
X140178403Y-99383838D01*
X140286287Y-99491722D01*
X140286291Y-99491725D01*
X140286293Y-99491727D01*
X140418436Y-99568020D01*
X140565821Y-99607512D01*
X140565822Y-99607512D01*
X140718406Y-99607512D01*
X140718407Y-99607512D01*
X140865792Y-99568020D01*
X140997935Y-99491727D01*
X141105829Y-99383833D01*
X141182122Y-99251690D01*
X141221614Y-99104305D01*
X141221614Y-99043208D01*
X147443000Y-99043208D01*
X147443000Y-99195791D01*
X147443001Y-99195799D01*
X147482490Y-99343173D01*
X147482491Y-99343177D01*
X147558786Y-99475322D01*
X147558789Y-99475326D01*
X147666673Y-99583210D01*
X147666677Y-99583213D01*
X147666679Y-99583215D01*
X147798822Y-99659508D01*
X147946207Y-99699000D01*
X147946208Y-99699000D01*
X148098792Y-99699000D01*
X148098793Y-99699000D01*
X148246178Y-99659508D01*
X148378321Y-99583215D01*
X148486215Y-99475321D01*
X148562508Y-99343178D01*
X148602000Y-99195793D01*
X148602000Y-99043207D01*
X148562508Y-98895822D01*
X148486215Y-98763679D01*
X148486213Y-98763677D01*
X148486210Y-98763673D01*
X148378326Y-98655789D01*
X148378322Y-98655786D01*
X148378321Y-98655785D01*
X148312249Y-98617638D01*
X148246177Y-98579491D01*
X148246173Y-98579490D01*
X148098799Y-98540001D01*
X148098794Y-98540000D01*
X148098793Y-98540000D01*
X147946207Y-98540000D01*
X147946206Y-98540000D01*
X147946200Y-98540001D01*
X147798826Y-98579490D01*
X147798822Y-98579491D01*
X147666677Y-98655786D01*
X147666673Y-98655789D01*
X147558789Y-98763673D01*
X147558786Y-98763677D01*
X147482491Y-98895822D01*
X147482490Y-98895826D01*
X147443001Y-99043200D01*
X147443000Y-99043208D01*
X141221614Y-99043208D01*
X141221614Y-98951719D01*
X141182122Y-98804334D01*
X141105829Y-98672191D01*
X141105827Y-98672189D01*
X141105824Y-98672185D01*
X140997940Y-98564301D01*
X140997936Y-98564298D01*
X140997935Y-98564297D01*
X140931863Y-98526150D01*
X140865791Y-98488003D01*
X140865787Y-98488002D01*
X140718413Y-98448513D01*
X140718408Y-98448512D01*
X140718407Y-98448512D01*
X140565821Y-98448512D01*
X140565820Y-98448512D01*
X140565814Y-98448513D01*
X140418440Y-98488002D01*
X140418436Y-98488003D01*
X140286291Y-98564298D01*
X140286287Y-98564301D01*
X140178403Y-98672185D01*
X140178400Y-98672189D01*
X140102105Y-98804334D01*
X140102104Y-98804338D01*
X140062615Y-98951712D01*
X140062614Y-98951720D01*
X134112000Y-98951720D01*
X134112000Y-97033708D01*
X139456500Y-97033708D01*
X139456500Y-97186291D01*
X139456501Y-97186299D01*
X139495990Y-97333673D01*
X139495991Y-97333677D01*
X139514389Y-97365542D01*
X139570842Y-97463322D01*
X139572286Y-97465822D01*
X139572289Y-97465826D01*
X139680173Y-97573710D01*
X139680177Y-97573713D01*
X139680179Y-97573715D01*
X139812322Y-97650008D01*
X139959707Y-97689500D01*
X139959708Y-97689500D01*
X140112292Y-97689500D01*
X140112293Y-97689500D01*
X140259678Y-97650008D01*
X140391821Y-97573715D01*
X140425391Y-97540144D01*
X140469584Y-97521839D01*
X140513779Y-97540144D01*
X140532085Y-97584338D01*
X140529956Y-97600514D01*
X140527225Y-97610705D01*
X140527225Y-97763291D01*
X140527226Y-97763299D01*
X140566715Y-97910673D01*
X140566716Y-97910677D01*
X140566717Y-97910678D01*
X140629156Y-98018826D01*
X140643011Y-98042822D01*
X140643014Y-98042826D01*
X140750898Y-98150710D01*
X140750902Y-98150713D01*
X140750904Y-98150715D01*
X140883047Y-98227008D01*
X141030432Y-98266500D01*
X141030433Y-98266500D01*
X141183017Y-98266500D01*
X141183018Y-98266500D01*
X141330403Y-98227008D01*
X141462546Y-98150715D01*
X141570440Y-98042821D01*
X141646733Y-97910678D01*
X141686225Y-97763293D01*
X141686225Y-97610707D01*
X141646733Y-97463322D01*
X141570440Y-97331179D01*
X141570438Y-97331177D01*
X141570435Y-97331173D01*
X141462551Y-97223289D01*
X141462547Y-97223286D01*
X141462546Y-97223285D01*
X141396474Y-97185138D01*
X141330402Y-97146991D01*
X141330398Y-97146990D01*
X141183024Y-97107501D01*
X141183019Y-97107500D01*
X141183018Y-97107500D01*
X141030432Y-97107500D01*
X141030431Y-97107500D01*
X141030425Y-97107501D01*
X140883051Y-97146990D01*
X140883047Y-97146991D01*
X140750902Y-97223286D01*
X140717333Y-97256855D01*
X140673138Y-97275160D01*
X140628944Y-97256854D01*
X140610639Y-97212659D01*
X140612770Y-97196480D01*
X140615499Y-97186296D01*
X140615500Y-97186291D01*
X140615500Y-97033708D01*
X140615498Y-97033700D01*
X140600607Y-96978128D01*
X140576008Y-96886322D01*
X140540914Y-96825537D01*
X142747500Y-96825537D01*
X142747500Y-96978120D01*
X142747501Y-96978128D01*
X142786990Y-97125502D01*
X142786991Y-97125506D01*
X142786992Y-97125507D01*
X142862825Y-97256854D01*
X142863286Y-97257651D01*
X142863289Y-97257655D01*
X142971173Y-97365539D01*
X142971177Y-97365542D01*
X142971179Y-97365544D01*
X143103322Y-97441837D01*
X143250707Y-97481329D01*
X143250708Y-97481329D01*
X143403292Y-97481329D01*
X143403293Y-97481329D01*
X143550678Y-97441837D01*
X143682821Y-97365544D01*
X143720219Y-97328144D01*
X143764412Y-97309838D01*
X143808607Y-97328143D01*
X143845179Y-97364715D01*
X143977322Y-97441008D01*
X144124707Y-97480500D01*
X144147506Y-97480500D01*
X144191700Y-97498806D01*
X144210006Y-97543000D01*
X144207876Y-97559176D01*
X144200501Y-97586700D01*
X144200500Y-97586708D01*
X144200500Y-97739291D01*
X144200501Y-97739299D01*
X144239990Y-97886673D01*
X144239991Y-97886677D01*
X144316286Y-98018822D01*
X144316289Y-98018826D01*
X144424173Y-98126710D01*
X144424177Y-98126713D01*
X144424179Y-98126715D01*
X144556322Y-98203008D01*
X144703707Y-98242500D01*
X144703708Y-98242500D01*
X144856292Y-98242500D01*
X144856293Y-98242500D01*
X145003678Y-98203008D01*
X145135821Y-98126715D01*
X145243715Y-98018821D01*
X145320008Y-97886678D01*
X145359500Y-97739293D01*
X145359500Y-97713708D01*
X145978500Y-97713708D01*
X145978500Y-97866291D01*
X145978501Y-97866299D01*
X146017990Y-98013673D01*
X146017991Y-98013677D01*
X146056138Y-98079749D01*
X146083251Y-98126710D01*
X146094286Y-98145822D01*
X146094289Y-98145826D01*
X146202173Y-98253710D01*
X146202177Y-98253713D01*
X146202179Y-98253715D01*
X146334322Y-98330008D01*
X146481707Y-98369500D01*
X146481708Y-98369500D01*
X146634292Y-98369500D01*
X146634293Y-98369500D01*
X146781678Y-98330008D01*
X146913821Y-98253715D01*
X147021715Y-98145821D01*
X147098008Y-98013678D01*
X147137500Y-97866293D01*
X147137500Y-97713707D01*
X147098008Y-97566322D01*
X147021715Y-97434179D01*
X147021713Y-97434177D01*
X147021710Y-97434173D01*
X146913826Y-97326289D01*
X146913822Y-97326286D01*
X146913821Y-97326285D01*
X146794944Y-97257651D01*
X146781677Y-97249991D01*
X146781673Y-97249990D01*
X146634299Y-97210501D01*
X146634294Y-97210500D01*
X146634293Y-97210500D01*
X146481707Y-97210500D01*
X146481706Y-97210500D01*
X146481700Y-97210501D01*
X146334326Y-97249990D01*
X146334322Y-97249991D01*
X146202177Y-97326286D01*
X146202173Y-97326289D01*
X146094289Y-97434173D01*
X146094286Y-97434177D01*
X146017991Y-97566322D01*
X146017990Y-97566326D01*
X145978501Y-97713700D01*
X145978500Y-97713708D01*
X145359500Y-97713708D01*
X145359500Y-97586707D01*
X145320008Y-97439322D01*
X145243715Y-97307179D01*
X145243713Y-97307177D01*
X145243710Y-97307173D01*
X145135826Y-97199289D01*
X145135822Y-97199286D01*
X145135821Y-97199285D01*
X145045247Y-97146992D01*
X145003677Y-97122991D01*
X145003673Y-97122990D01*
X144856299Y-97083501D01*
X144856294Y-97083500D01*
X144856293Y-97083500D01*
X144856292Y-97083500D01*
X144833494Y-97083500D01*
X144789300Y-97065194D01*
X144770994Y-97021000D01*
X144773124Y-97004824D01*
X144780498Y-96977299D01*
X144780500Y-96977291D01*
X144780500Y-96824708D01*
X144780498Y-96824700D01*
X144741009Y-96677326D01*
X144741008Y-96677322D01*
X144723089Y-96646285D01*
X144664715Y-96545179D01*
X144664713Y-96545177D01*
X144664710Y-96545173D01*
X144556826Y-96437289D01*
X144556822Y-96437286D01*
X144556821Y-96437285D01*
X144490749Y-96399138D01*
X144424677Y-96360991D01*
X144424673Y-96360990D01*
X144277299Y-96321501D01*
X144277294Y-96321500D01*
X144277293Y-96321500D01*
X144124707Y-96321500D01*
X144124706Y-96321500D01*
X144124700Y-96321501D01*
X143977326Y-96360990D01*
X143977322Y-96360991D01*
X143845177Y-96437286D01*
X143807778Y-96474684D01*
X143763583Y-96492989D01*
X143719391Y-96474683D01*
X143682826Y-96438118D01*
X143682822Y-96438115D01*
X143682821Y-96438114D01*
X143616749Y-96399967D01*
X143550677Y-96361820D01*
X143550673Y-96361819D01*
X143403299Y-96322330D01*
X143403294Y-96322329D01*
X143403293Y-96322329D01*
X143250707Y-96322329D01*
X143250706Y-96322329D01*
X143250700Y-96322330D01*
X143103326Y-96361819D01*
X143103322Y-96361820D01*
X142971177Y-96438115D01*
X142971173Y-96438118D01*
X142863289Y-96546002D01*
X142863286Y-96546006D01*
X142786991Y-96678151D01*
X142786990Y-96678155D01*
X142747501Y-96825529D01*
X142747500Y-96825537D01*
X140540914Y-96825537D01*
X140499715Y-96754179D01*
X140499713Y-96754177D01*
X140499710Y-96754173D01*
X140391826Y-96646289D01*
X140391822Y-96646286D01*
X140391821Y-96646285D01*
X140325749Y-96608138D01*
X140259677Y-96569991D01*
X140259673Y-96569990D01*
X140112299Y-96530501D01*
X140112294Y-96530500D01*
X140112293Y-96530500D01*
X139959707Y-96530500D01*
X139959706Y-96530500D01*
X139959700Y-96530501D01*
X139812326Y-96569990D01*
X139812322Y-96569991D01*
X139680177Y-96646286D01*
X139680173Y-96646289D01*
X139572289Y-96754173D01*
X139572286Y-96754177D01*
X139495991Y-96886322D01*
X139495990Y-96886326D01*
X139456501Y-97033700D01*
X139456500Y-97033708D01*
X134112000Y-97033708D01*
X134112000Y-95173708D01*
X147756500Y-95173708D01*
X147756500Y-95326291D01*
X147756501Y-95326299D01*
X147795990Y-95473673D01*
X147795991Y-95473677D01*
X147872286Y-95605822D01*
X147872289Y-95605826D01*
X147980173Y-95713710D01*
X147980177Y-95713713D01*
X147980179Y-95713715D01*
X148112322Y-95790008D01*
X148259707Y-95829500D01*
X148259708Y-95829500D01*
X148412292Y-95829500D01*
X148412293Y-95829500D01*
X148559678Y-95790008D01*
X148691821Y-95713715D01*
X148799715Y-95605821D01*
X148876008Y-95473678D01*
X148915500Y-95326293D01*
X148915500Y-95173707D01*
X148876008Y-95026322D01*
X148799715Y-94894179D01*
X148799713Y-94894177D01*
X148799710Y-94894173D01*
X148691826Y-94786289D01*
X148691822Y-94786286D01*
X148691821Y-94786285D01*
X148625749Y-94748138D01*
X148559677Y-94709991D01*
X148559673Y-94709990D01*
X148412299Y-94670501D01*
X148412294Y-94670500D01*
X148412293Y-94670500D01*
X148259707Y-94670500D01*
X148259706Y-94670500D01*
X148259700Y-94670501D01*
X148112326Y-94709990D01*
X148112322Y-94709991D01*
X147980177Y-94786286D01*
X147980173Y-94786289D01*
X147872289Y-94894173D01*
X147872286Y-94894177D01*
X147795991Y-95026322D01*
X147795990Y-95026326D01*
X147756501Y-95173700D01*
X147756500Y-95173708D01*
X134112000Y-95173708D01*
X134112000Y-93873488D01*
X135030628Y-93873488D01*
X135030628Y-94026071D01*
X135030629Y-94026079D01*
X135070118Y-94173453D01*
X135070119Y-94173457D01*
X135070120Y-94173458D01*
X135123554Y-94266009D01*
X135146414Y-94305602D01*
X135146417Y-94305606D01*
X135254301Y-94413490D01*
X135254305Y-94413493D01*
X135254307Y-94413495D01*
X135386450Y-94489788D01*
X135533835Y-94529280D01*
X135533836Y-94529280D01*
X135686420Y-94529280D01*
X135686421Y-94529280D01*
X135833806Y-94489788D01*
X135965949Y-94413495D01*
X136073843Y-94305601D01*
X136150136Y-94173458D01*
X136189628Y-94026073D01*
X136189628Y-93873487D01*
X136170553Y-93802299D01*
X136166933Y-93788787D01*
X136163696Y-93776708D01*
X141279500Y-93776708D01*
X141279500Y-93929291D01*
X141279501Y-93929299D01*
X141318990Y-94076673D01*
X141318991Y-94076677D01*
X141327518Y-94091446D01*
X141384251Y-94189710D01*
X141395286Y-94208822D01*
X141395289Y-94208826D01*
X141503173Y-94316710D01*
X141503177Y-94316713D01*
X141503179Y-94316715D01*
X141635322Y-94393008D01*
X141782707Y-94432500D01*
X141782708Y-94432500D01*
X141935292Y-94432500D01*
X141935293Y-94432500D01*
X142082678Y-94393008D01*
X142214821Y-94316715D01*
X142322715Y-94208821D01*
X142399008Y-94076678D01*
X142438500Y-93929293D01*
X142438500Y-93776707D01*
X142406281Y-93656468D01*
X142404470Y-93649708D01*
X144962500Y-93649708D01*
X144962500Y-93802291D01*
X144962501Y-93802299D01*
X145001990Y-93949673D01*
X145001991Y-93949677D01*
X145078286Y-94081822D01*
X145078289Y-94081826D01*
X145186173Y-94189710D01*
X145186177Y-94189713D01*
X145186179Y-94189715D01*
X145318322Y-94266008D01*
X145465707Y-94305500D01*
X145465708Y-94305500D01*
X145618292Y-94305500D01*
X145618293Y-94305500D01*
X145765678Y-94266008D01*
X145897821Y-94189715D01*
X146005715Y-94081821D01*
X146082008Y-93949678D01*
X146121500Y-93802293D01*
X146121500Y-93649707D01*
X146082008Y-93502322D01*
X146005715Y-93370179D01*
X146005713Y-93370177D01*
X146005710Y-93370173D01*
X145897826Y-93262289D01*
X145897822Y-93262286D01*
X145897821Y-93262285D01*
X145831749Y-93224138D01*
X145765677Y-93185991D01*
X145765673Y-93185990D01*
X145618299Y-93146501D01*
X145618294Y-93146500D01*
X145618293Y-93146500D01*
X145465707Y-93146500D01*
X145465706Y-93146500D01*
X145465700Y-93146501D01*
X145318326Y-93185990D01*
X145318322Y-93185991D01*
X145186177Y-93262286D01*
X145186173Y-93262289D01*
X145078289Y-93370173D01*
X145078286Y-93370177D01*
X145001991Y-93502322D01*
X145001990Y-93502326D01*
X144962501Y-93649700D01*
X144962500Y-93649708D01*
X142404470Y-93649708D01*
X142399009Y-93629325D01*
X142399008Y-93629322D01*
X142378590Y-93593957D01*
X142322715Y-93497179D01*
X142322713Y-93497177D01*
X142322710Y-93497173D01*
X142214826Y-93389289D01*
X142214822Y-93389286D01*
X142214821Y-93389285D01*
X142148749Y-93351138D01*
X142082677Y-93312991D01*
X142082673Y-93312990D01*
X141935299Y-93273501D01*
X141935294Y-93273500D01*
X141935293Y-93273500D01*
X141782707Y-93273500D01*
X141782706Y-93273500D01*
X141782700Y-93273501D01*
X141635326Y-93312990D01*
X141635322Y-93312991D01*
X141503177Y-93389286D01*
X141503173Y-93389289D01*
X141395289Y-93497173D01*
X141395286Y-93497177D01*
X141318991Y-93629322D01*
X141318990Y-93629326D01*
X141279501Y-93776700D01*
X141279500Y-93776708D01*
X136163696Y-93776708D01*
X136150137Y-93726106D01*
X136150136Y-93726102D01*
X136121147Y-93675892D01*
X136073843Y-93593959D01*
X136073841Y-93593957D01*
X136073838Y-93593953D01*
X135965954Y-93486069D01*
X135965950Y-93486066D01*
X135965949Y-93486065D01*
X135899877Y-93447918D01*
X135833805Y-93409771D01*
X135833801Y-93409770D01*
X135686427Y-93370281D01*
X135686422Y-93370280D01*
X135686421Y-93370280D01*
X135533835Y-93370280D01*
X135533834Y-93370280D01*
X135533828Y-93370281D01*
X135386454Y-93409770D01*
X135386450Y-93409771D01*
X135254305Y-93486066D01*
X135254301Y-93486069D01*
X135146417Y-93593953D01*
X135146414Y-93593957D01*
X135070119Y-93726102D01*
X135070118Y-93726106D01*
X135030629Y-93873480D01*
X135030628Y-93873488D01*
X134112000Y-93873488D01*
X134112000Y-92208208D01*
X141489000Y-92208208D01*
X141489000Y-92360791D01*
X141489001Y-92360799D01*
X141528490Y-92508173D01*
X141528491Y-92508177D01*
X141604786Y-92640322D01*
X141604789Y-92640326D01*
X141712673Y-92748210D01*
X141712677Y-92748213D01*
X141712679Y-92748215D01*
X141844822Y-92824508D01*
X141992207Y-92864000D01*
X141992208Y-92864000D01*
X142144792Y-92864000D01*
X142144793Y-92864000D01*
X142292178Y-92824508D01*
X142424321Y-92748215D01*
X142532215Y-92640321D01*
X142608508Y-92508178D01*
X142648000Y-92360793D01*
X142648000Y-92209208D01*
X144708500Y-92209208D01*
X144708500Y-92361791D01*
X144708501Y-92361799D01*
X144747990Y-92509173D01*
X144747991Y-92509177D01*
X144747992Y-92509178D01*
X144823708Y-92640322D01*
X144824286Y-92641322D01*
X144824289Y-92641326D01*
X144932173Y-92749210D01*
X144932177Y-92749213D01*
X144932179Y-92749215D01*
X145064322Y-92825508D01*
X145211707Y-92865000D01*
X145211708Y-92865000D01*
X145364292Y-92865000D01*
X145364293Y-92865000D01*
X145511678Y-92825508D01*
X145643821Y-92749215D01*
X145751715Y-92641321D01*
X145828008Y-92509178D01*
X145867500Y-92361793D01*
X145867500Y-92209207D01*
X145828008Y-92061822D01*
X145751715Y-91929679D01*
X145751713Y-91929677D01*
X145751710Y-91929673D01*
X145643826Y-91821789D01*
X145643822Y-91821786D01*
X145643821Y-91821785D01*
X145568030Y-91778027D01*
X145538911Y-91740077D01*
X145545154Y-91692651D01*
X145583105Y-91663531D01*
X145645635Y-91646776D01*
X145645633Y-91646776D01*
X145645639Y-91646775D01*
X145777782Y-91570482D01*
X145885676Y-91462588D01*
X145961969Y-91330445D01*
X146001461Y-91183060D01*
X146001461Y-91030474D01*
X145961969Y-90883089D01*
X145885676Y-90750946D01*
X145885674Y-90750944D01*
X145885671Y-90750940D01*
X145777787Y-90643056D01*
X145777783Y-90643053D01*
X145777782Y-90643052D01*
X145711710Y-90604905D01*
X145645638Y-90566758D01*
X145645634Y-90566757D01*
X145498260Y-90527268D01*
X145498255Y-90527267D01*
X145498254Y-90527267D01*
X145345668Y-90527267D01*
X145345667Y-90527267D01*
X145345661Y-90527268D01*
X145198287Y-90566757D01*
X145198283Y-90566758D01*
X145066138Y-90643053D01*
X145066134Y-90643056D01*
X144958250Y-90750940D01*
X144958247Y-90750944D01*
X144881952Y-90883089D01*
X144881951Y-90883093D01*
X144842462Y-91030467D01*
X144842461Y-91030475D01*
X144842461Y-91183058D01*
X144842462Y-91183066D01*
X144881951Y-91330440D01*
X144881952Y-91330444D01*
X144958247Y-91462589D01*
X144958250Y-91462593D01*
X145066134Y-91570477D01*
X145066138Y-91570480D01*
X145066140Y-91570482D01*
X145141930Y-91614239D01*
X145171049Y-91652189D01*
X145164806Y-91699615D01*
X145126856Y-91728735D01*
X145064324Y-91745491D01*
X145064322Y-91745491D01*
X144932177Y-91821786D01*
X144932173Y-91821789D01*
X144824289Y-91929673D01*
X144824286Y-91929677D01*
X144747991Y-92061822D01*
X144747990Y-92061826D01*
X144708501Y-92209200D01*
X144708500Y-92209208D01*
X142648000Y-92209208D01*
X142648000Y-92208207D01*
X142608508Y-92060822D01*
X142532215Y-91928679D01*
X142532213Y-91928677D01*
X142532210Y-91928673D01*
X142424326Y-91820789D01*
X142424322Y-91820786D01*
X142424321Y-91820785D01*
X142350264Y-91778028D01*
X142292177Y-91744491D01*
X142292173Y-91744490D01*
X142144799Y-91705001D01*
X142144794Y-91705000D01*
X142144793Y-91705000D01*
X141992207Y-91705000D01*
X141992206Y-91705000D01*
X141992200Y-91705001D01*
X141844826Y-91744490D01*
X141844822Y-91744491D01*
X141712677Y-91820786D01*
X141712673Y-91820789D01*
X141604789Y-91928673D01*
X141604786Y-91928677D01*
X141528491Y-92060822D01*
X141528490Y-92060826D01*
X141489001Y-92208200D01*
X141489000Y-92208208D01*
X134112000Y-92208208D01*
X134112000Y-90318846D01*
X138513469Y-90318846D01*
X138513469Y-90471429D01*
X138513470Y-90471437D01*
X138552959Y-90618811D01*
X138552960Y-90618815D01*
X138566954Y-90643053D01*
X138629246Y-90750946D01*
X138629255Y-90750960D01*
X138629258Y-90750964D01*
X138737142Y-90858848D01*
X138737146Y-90858851D01*
X138737148Y-90858853D01*
X138869291Y-90935146D01*
X139016676Y-90974638D01*
X139016677Y-90974638D01*
X139169261Y-90974638D01*
X139169262Y-90974638D01*
X139316647Y-90935146D01*
X139448790Y-90858853D01*
X139556684Y-90750959D01*
X139632977Y-90618816D01*
X139672469Y-90471431D01*
X139672469Y-90318845D01*
X139632977Y-90171460D01*
X139556684Y-90039317D01*
X139556682Y-90039315D01*
X139556679Y-90039311D01*
X139448795Y-89931427D01*
X139448791Y-89931424D01*
X139448790Y-89931423D01*
X139369549Y-89885673D01*
X139316646Y-89855129D01*
X139316642Y-89855128D01*
X139169268Y-89815639D01*
X139169263Y-89815638D01*
X139169262Y-89815638D01*
X139016676Y-89815638D01*
X139016675Y-89815638D01*
X139016669Y-89815639D01*
X138869295Y-89855128D01*
X138869291Y-89855129D01*
X138737146Y-89931424D01*
X138737142Y-89931427D01*
X138629258Y-90039311D01*
X138629255Y-90039315D01*
X138552960Y-90171460D01*
X138552959Y-90171464D01*
X138513470Y-90318838D01*
X138513469Y-90318846D01*
X134112000Y-90318846D01*
X134112000Y-89585708D01*
X142422500Y-89585708D01*
X142422500Y-89738291D01*
X142422501Y-89738299D01*
X142461990Y-89885673D01*
X142461991Y-89885677D01*
X142538286Y-90017822D01*
X142538289Y-90017826D01*
X142646173Y-90125710D01*
X142646177Y-90125713D01*
X142646179Y-90125715D01*
X142778322Y-90202008D01*
X142925707Y-90241500D01*
X142925708Y-90241500D01*
X143078292Y-90241500D01*
X143078293Y-90241500D01*
X143225678Y-90202008D01*
X143357821Y-90125715D01*
X143465715Y-90017821D01*
X143542008Y-89885678D01*
X143581500Y-89738293D01*
X143581500Y-89585707D01*
X143542008Y-89438322D01*
X143465715Y-89306179D01*
X143465713Y-89306177D01*
X143465710Y-89306173D01*
X143357826Y-89198289D01*
X143357822Y-89198286D01*
X143357821Y-89198285D01*
X143291749Y-89160138D01*
X143225677Y-89121991D01*
X143225673Y-89121990D01*
X143078299Y-89082501D01*
X143078294Y-89082500D01*
X143078293Y-89082500D01*
X142925707Y-89082500D01*
X142925706Y-89082500D01*
X142925700Y-89082501D01*
X142778326Y-89121990D01*
X142778322Y-89121991D01*
X142646177Y-89198286D01*
X142646173Y-89198289D01*
X142538289Y-89306173D01*
X142538286Y-89306177D01*
X142461991Y-89438322D01*
X142461990Y-89438326D01*
X142422501Y-89585700D01*
X142422500Y-89585708D01*
X134112000Y-89585708D01*
X134112000Y-87807708D01*
X134294500Y-87807708D01*
X134294500Y-87960291D01*
X134294501Y-87960299D01*
X134333990Y-88107673D01*
X134333991Y-88107677D01*
X134333992Y-88107678D01*
X134377066Y-88182285D01*
X134410286Y-88239822D01*
X134410289Y-88239826D01*
X134518173Y-88347710D01*
X134518177Y-88347713D01*
X134518179Y-88347715D01*
X134650322Y-88424008D01*
X134797707Y-88463500D01*
X134797708Y-88463500D01*
X134950292Y-88463500D01*
X134950293Y-88463500D01*
X135097678Y-88424008D01*
X135229821Y-88347715D01*
X135337715Y-88239821D01*
X135414008Y-88107678D01*
X135453500Y-87960293D01*
X135453500Y-87807707D01*
X135414008Y-87660322D01*
X135337715Y-87528179D01*
X135337713Y-87528177D01*
X135337710Y-87528173D01*
X135229826Y-87420289D01*
X135229822Y-87420286D01*
X135229821Y-87420285D01*
X135153117Y-87376000D01*
X135636000Y-87376000D01*
X135636000Y-88773000D01*
X135763000Y-88900000D01*
X138549000Y-88900000D01*
X138593194Y-88918306D01*
X138611500Y-88962500D01*
X138611500Y-88976291D01*
X138611501Y-88976299D01*
X138650990Y-89123673D01*
X138650991Y-89123677D01*
X138650992Y-89123678D01*
X138694066Y-89198285D01*
X138727286Y-89255822D01*
X138727289Y-89255826D01*
X138835173Y-89363710D01*
X138835177Y-89363713D01*
X138835179Y-89363715D01*
X138967322Y-89440008D01*
X139114707Y-89479500D01*
X139114708Y-89479500D01*
X139267292Y-89479500D01*
X139267293Y-89479500D01*
X139414678Y-89440008D01*
X139546821Y-89363715D01*
X139654715Y-89255821D01*
X139731008Y-89123678D01*
X139770500Y-88976293D01*
X139770500Y-88823707D01*
X139731008Y-88676322D01*
X139685130Y-88596860D01*
X139685130Y-88596858D01*
X139669455Y-88569708D01*
X145216500Y-88569708D01*
X145216500Y-88722291D01*
X145216501Y-88722299D01*
X145255990Y-88869673D01*
X145255991Y-88869677D01*
X145255992Y-88869678D01*
X145317546Y-88976293D01*
X145332286Y-89001822D01*
X145332289Y-89001826D01*
X145440173Y-89109710D01*
X145440177Y-89109713D01*
X145440179Y-89109715D01*
X145572322Y-89186008D01*
X145719707Y-89225500D01*
X145719708Y-89225500D01*
X145872292Y-89225500D01*
X145872293Y-89225500D01*
X146019678Y-89186008D01*
X146151821Y-89109715D01*
X146259715Y-89001821D01*
X146336008Y-88869678D01*
X146375500Y-88722293D01*
X146375500Y-88569707D01*
X146336008Y-88422322D01*
X146259715Y-88290179D01*
X146259713Y-88290177D01*
X146259710Y-88290173D01*
X146151826Y-88182289D01*
X146151822Y-88182286D01*
X146151821Y-88182285D01*
X146085749Y-88144138D01*
X146019677Y-88105991D01*
X146019673Y-88105990D01*
X145872299Y-88066501D01*
X145872294Y-88066500D01*
X145872293Y-88066500D01*
X145719707Y-88066500D01*
X145719706Y-88066500D01*
X145719700Y-88066501D01*
X145572326Y-88105990D01*
X145572322Y-88105991D01*
X145440177Y-88182286D01*
X145440173Y-88182289D01*
X145332289Y-88290173D01*
X145332286Y-88290177D01*
X145255991Y-88422322D01*
X145255990Y-88422326D01*
X145216501Y-88569700D01*
X145216500Y-88569708D01*
X139669455Y-88569708D01*
X139654717Y-88544182D01*
X139654710Y-88544173D01*
X139546826Y-88436289D01*
X139546822Y-88436286D01*
X139546821Y-88436285D01*
X139480749Y-88398138D01*
X139414677Y-88359991D01*
X139414673Y-88359990D01*
X139267299Y-88320501D01*
X139267294Y-88320500D01*
X139267293Y-88320500D01*
X139114707Y-88320500D01*
X139114706Y-88320500D01*
X139114700Y-88320501D01*
X138967326Y-88359990D01*
X138967322Y-88359991D01*
X138835177Y-88436286D01*
X138835173Y-88436289D01*
X138790694Y-88480769D01*
X138746500Y-88499075D01*
X138702306Y-88480769D01*
X138684000Y-88436575D01*
X138684000Y-87376000D01*
X138557000Y-87249000D01*
X135763000Y-87249000D01*
X135636000Y-87376000D01*
X135153117Y-87376000D01*
X135151619Y-87375135D01*
X135097677Y-87343991D01*
X135097673Y-87343990D01*
X134950299Y-87304501D01*
X134950294Y-87304500D01*
X134950293Y-87304500D01*
X134797707Y-87304500D01*
X134797706Y-87304500D01*
X134797700Y-87304501D01*
X134650326Y-87343990D01*
X134650322Y-87343991D01*
X134518177Y-87420286D01*
X134518173Y-87420289D01*
X134410289Y-87528173D01*
X134410286Y-87528177D01*
X134333991Y-87660322D01*
X134333990Y-87660326D01*
X134294501Y-87807700D01*
X134294500Y-87807708D01*
X134112000Y-87807708D01*
X134112000Y-86410708D01*
X137723500Y-86410708D01*
X137723500Y-86563291D01*
X137723501Y-86563299D01*
X137762990Y-86710673D01*
X137762991Y-86710677D01*
X137839286Y-86842822D01*
X137839289Y-86842826D01*
X137947173Y-86950710D01*
X137947177Y-86950713D01*
X137947179Y-86950715D01*
X138079322Y-87027008D01*
X138226707Y-87066500D01*
X138226708Y-87066500D01*
X138379292Y-87066500D01*
X138379293Y-87066500D01*
X138526678Y-87027008D01*
X138658821Y-86950715D01*
X138766715Y-86842821D01*
X138796225Y-86791708D01*
X145216500Y-86791708D01*
X145216500Y-86944291D01*
X145216501Y-86944299D01*
X145255990Y-87091673D01*
X145255991Y-87091677D01*
X145255992Y-87091678D01*
X145317546Y-87198293D01*
X145332286Y-87223822D01*
X145332289Y-87223826D01*
X145440173Y-87331710D01*
X145440177Y-87331713D01*
X145440179Y-87331715D01*
X145572322Y-87408008D01*
X145719707Y-87447500D01*
X145719708Y-87447500D01*
X145872292Y-87447500D01*
X145872293Y-87447500D01*
X146019678Y-87408008D01*
X146151821Y-87331715D01*
X146259715Y-87223821D01*
X146336008Y-87091678D01*
X146375500Y-86944293D01*
X146375500Y-86791707D01*
X146336008Y-86644322D01*
X146259715Y-86512179D01*
X146259713Y-86512177D01*
X146259710Y-86512173D01*
X146151826Y-86404289D01*
X146151822Y-86404286D01*
X146151821Y-86404285D01*
X146085749Y-86366138D01*
X146019677Y-86327991D01*
X146019673Y-86327990D01*
X145872299Y-86288501D01*
X145872294Y-86288500D01*
X145872293Y-86288500D01*
X145719707Y-86288500D01*
X145719706Y-86288500D01*
X145719700Y-86288501D01*
X145572326Y-86327990D01*
X145572322Y-86327991D01*
X145440177Y-86404286D01*
X145440173Y-86404289D01*
X145332289Y-86512173D01*
X145332286Y-86512177D01*
X145255991Y-86644322D01*
X145255990Y-86644326D01*
X145216501Y-86791700D01*
X145216500Y-86791708D01*
X138796225Y-86791708D01*
X138843008Y-86710678D01*
X138882500Y-86563293D01*
X138882500Y-86410707D01*
X138843008Y-86263322D01*
X138766715Y-86131179D01*
X138766713Y-86131177D01*
X138766710Y-86131173D01*
X138658826Y-86023289D01*
X138658822Y-86023286D01*
X138658821Y-86023285D01*
X138592749Y-85985138D01*
X138526677Y-85946991D01*
X138526673Y-85946990D01*
X138379299Y-85907501D01*
X138379294Y-85907500D01*
X138379293Y-85907500D01*
X138226707Y-85907500D01*
X138226706Y-85907500D01*
X138226700Y-85907501D01*
X138079326Y-85946990D01*
X138079322Y-85946991D01*
X137947177Y-86023286D01*
X137947173Y-86023289D01*
X137839289Y-86131173D01*
X137839286Y-86131177D01*
X137762991Y-86263322D01*
X137762990Y-86263326D01*
X137723501Y-86410700D01*
X137723500Y-86410708D01*
X134112000Y-86410708D01*
X134112000Y-83845888D01*
X134130306Y-83801694D01*
X134347694Y-83584306D01*
X134391888Y-83566000D01*
X135269000Y-83566000D01*
X135313194Y-83584306D01*
G37*
G04 #@! TD.AperFunction*
G04 #@! TD*
M02*
