G04 #@! TF.GenerationSoftware,KiCad,Pcbnew,9.0.3*
G04 #@! TF.CreationDate,2025-08-06T23:44:27+02:00*
G04 #@! TF.ProjectId,MADC,4d414443-2e6b-4696-9361-645f70636258,rev?*
G04 #@! TF.SameCoordinates,Original*
G04 #@! TF.FileFunction,Copper,L4,Bot*
G04 #@! TF.FilePolarity,Positive*
%FSLAX46Y46*%
G04 Gerber Fmt 4.6, Leading zero omitted, Abs format (unit mm)*
G04 Created by KiCad (PCBNEW 9.0.3) date 2025-08-06 23:44:27*
%MOMM*%
%LPD*%
G01*
G04 APERTURE LIST*
G04 Aperture macros list*
%AMRoundRect*
0 Rectangle with rounded corners*
0 $1 Rounding radius*
0 $2 $3 $4 $5 $6 $7 $8 $9 X,Y pos of 4 corners*
0 Add a 4 corners polygon primitive as box body*
4,1,4,$2,$3,$4,$5,$6,$7,$8,$9,$2,$3,0*
0 Add four circle primitives for the rounded corners*
1,1,$1+$1,$2,$3*
1,1,$1+$1,$4,$5*
1,1,$1+$1,$6,$7*
1,1,$1+$1,$8,$9*
0 Add four rect primitives between the rounded corners*
20,1,$1+$1,$2,$3,$4,$5,0*
20,1,$1+$1,$4,$5,$6,$7,0*
20,1,$1+$1,$6,$7,$8,$9,0*
20,1,$1+$1,$8,$9,$2,$3,0*%
G04 Aperture macros list end*
G04 #@! TA.AperFunction,NonConductor*
%ADD10C,0.100000*%
G04 #@! TD*
%ADD11C,0.100000*%
G04 #@! TA.AperFunction,SMDPad,CuDef*
%ADD12RoundRect,0.112500X-0.187500X-0.112500X0.187500X-0.112500X0.187500X0.112500X-0.187500X0.112500X0*%
G04 #@! TD*
G04 #@! TA.AperFunction,SMDPad,CuDef*
%ADD13RoundRect,0.155000X0.212500X0.155000X-0.212500X0.155000X-0.212500X-0.155000X0.212500X-0.155000X0*%
G04 #@! TD*
G04 #@! TA.AperFunction,SMDPad,CuDef*
%ADD14RoundRect,0.160000X0.197500X0.160000X-0.197500X0.160000X-0.197500X-0.160000X0.197500X-0.160000X0*%
G04 #@! TD*
G04 #@! TA.AperFunction,SMDPad,CuDef*
%ADD15RoundRect,0.100000X0.100000X-0.612500X0.100000X0.612500X-0.100000X0.612500X-0.100000X-0.612500X0*%
G04 #@! TD*
G04 #@! TA.AperFunction,HeatsinkPad*
%ADD16R,1.850000X1.730000*%
G04 #@! TD*
G04 #@! TA.AperFunction,SMDPad,CuDef*
%ADD17R,0.740000X2.400000*%
G04 #@! TD*
G04 #@! TA.AperFunction,SMDPad,CuDef*
%ADD18RoundRect,0.100000X0.612500X0.100000X-0.612500X0.100000X-0.612500X-0.100000X0.612500X-0.100000X0*%
G04 #@! TD*
G04 #@! TA.AperFunction,HeatsinkPad*
%ADD19R,1.730000X1.850000*%
G04 #@! TD*
G04 #@! TA.AperFunction,SMDPad,CuDef*
%ADD20RoundRect,0.155000X0.155000X-0.212500X0.155000X0.212500X-0.155000X0.212500X-0.155000X-0.212500X0*%
G04 #@! TD*
G04 #@! TA.AperFunction,ViaPad*
%ADD21C,0.650000*%
G04 #@! TD*
G04 #@! TA.AperFunction,Conductor*
%ADD22C,0.381000*%
G04 #@! TD*
G04 #@! TA.AperFunction,Conductor*
%ADD23C,0.254000*%
G04 #@! TD*
G04 #@! TA.AperFunction,Conductor*
%ADD24C,0.508000*%
G04 #@! TD*
G04 #@! TA.AperFunction,Conductor*
%ADD25C,0.762000*%
G04 #@! TD*
G04 APERTURE END LIST*
D10*
X135636000Y-83566000D02*
X136525000Y-83566000D01*
X136525000Y-84582000D01*
X135636000Y-84582000D01*
X135636000Y-83566000D01*
X137414000Y-83566000D02*
X138303000Y-83566000D01*
X138303000Y-84582000D01*
X137414000Y-84582000D01*
X137414000Y-83566000D01*
X138303000Y-83566000D02*
X139192000Y-83566000D01*
X139192000Y-84582000D01*
X138303000Y-84582000D01*
X138303000Y-83566000D01*
X136525000Y-83566000D02*
X137414000Y-83566000D01*
X137414000Y-84582000D01*
X136525000Y-84582000D01*
X136525000Y-83566000D01*
D11*
D10*
X138688096Y-84050504D02*
X138616668Y-84074314D01*
X138616668Y-84074314D02*
X138592858Y-84098123D01*
X138592858Y-84098123D02*
X138569049Y-84145742D01*
X138569049Y-84145742D02*
X138569049Y-84217171D01*
X138569049Y-84217171D02*
X138592858Y-84264790D01*
X138592858Y-84264790D02*
X138616668Y-84288600D01*
X138616668Y-84288600D02*
X138664287Y-84312409D01*
X138664287Y-84312409D02*
X138854763Y-84312409D01*
X138854763Y-84312409D02*
X138854763Y-83812409D01*
X138854763Y-83812409D02*
X138688096Y-83812409D01*
X138688096Y-83812409D02*
X138640477Y-83836219D01*
X138640477Y-83836219D02*
X138616668Y-83860028D01*
X138616668Y-83860028D02*
X138592858Y-83907647D01*
X138592858Y-83907647D02*
X138592858Y-83955266D01*
X138592858Y-83955266D02*
X138616668Y-84002885D01*
X138616668Y-84002885D02*
X138640477Y-84026695D01*
X138640477Y-84026695D02*
X138688096Y-84050504D01*
X138688096Y-84050504D02*
X138854763Y-84050504D01*
D12*
G04 #@! TO.P,D2,1,K*
G04 #@! TO.N,Net-(D1-A)*
X142714000Y-84201000D03*
G04 #@! TO.P,D2,2,A*
G04 #@! TO.N,Net-(D1-K)*
X144814000Y-84201000D03*
G04 #@! TD*
D13*
G04 #@! TO.P,C14,1*
G04 #@! TO.N,Net-(D1-K)*
X144331500Y-85725000D03*
G04 #@! TO.P,C14,2*
G04 #@! TO.N,Net-(D1-A)*
X143196500Y-85725000D03*
G04 #@! TD*
D14*
G04 #@! TO.P,R4,1*
G04 #@! TO.N,Net-(D1-K)*
X144361500Y-86741000D03*
G04 #@! TO.P,R4,2*
G04 #@! TO.N,Net-(D1-A)*
X143166500Y-86741000D03*
G04 #@! TD*
D15*
G04 #@! TO.P,RN1,1*
G04 #@! TO.N,Net-(RN1-Pad1)*
X144739000Y-95507500D03*
G04 #@! TO.P,RN1,2*
X144089000Y-95507500D03*
G04 #@! TO.P,RN1,3*
G04 #@! TO.N,/AD_REF-*
X143439000Y-95507500D03*
G04 #@! TO.P,RN1,4*
G04 #@! TO.N,/AD_REF+*
X142789000Y-95507500D03*
G04 #@! TO.P,RN1,5*
G04 #@! TO.N,Net-(RN1-Pad5)*
X142789000Y-91182500D03*
G04 #@! TO.P,RN1,6*
G04 #@! TO.N,Net-(RN1-Pad6)*
X143439000Y-91182500D03*
G04 #@! TO.P,RN1,7*
G04 #@! TO.N,Net-(RN1-Pad7)*
X144089000Y-91182500D03*
G04 #@! TO.P,RN1,8*
G04 #@! TO.N,/AD_IN*
X144739000Y-91182500D03*
D16*
G04 #@! TO.P,RN1,9,EP*
G04 #@! TO.N,GNDA*
X143764000Y-93345000D03*
G04 #@! TD*
D17*
G04 #@! TO.P,J1,1,Pin_1*
G04 #@! TO.N,GNDD*
X151765000Y-90850000D03*
G04 #@! TO.P,J1,2,Pin_2*
G04 #@! TO.N,+3.3V*
X151765000Y-86950000D03*
G04 #@! TO.P,J1,3,Pin_3*
G04 #@! TO.N,/AD_CMP*
X150495000Y-90850000D03*
G04 #@! TO.P,J1,4,Pin_4*
G04 #@! TO.N,/AD_IRN*
X150495000Y-86950000D03*
G04 #@! TO.P,J1,5,Pin_5*
G04 #@! TO.N,/SW_VRH*
X149225000Y-90850000D03*
G04 #@! TO.P,J1,6,Pin_6*
G04 #@! TO.N,/AD_IIN*
X149225000Y-86950000D03*
G04 #@! TO.P,J1,7,Pin_7*
G04 #@! TO.N,/AD_IRP*
X147955000Y-90850000D03*
G04 #@! TO.P,J1,8,Pin_8*
G04 #@! TO.N,/AD_ID*
X147955000Y-86950000D03*
G04 #@! TD*
G04 #@! TO.P,J2,1,Pin_1*
G04 #@! TO.N,GNDA*
X135255000Y-97110000D03*
G04 #@! TO.P,J2,2,Pin_2*
X135255000Y-101010000D03*
G04 #@! TO.P,J2,3,Pin_3*
G04 #@! TO.N,/AD_IN*
X136525000Y-97110000D03*
G04 #@! TO.P,J2,4,Pin_4*
G04 #@! TO.N,GNDA*
X136525000Y-101010000D03*
G04 #@! TO.P,J2,5,Pin_5*
G04 #@! TO.N,/AD_IN*
X137795000Y-97110000D03*
G04 #@! TO.P,J2,6,Pin_6*
G04 #@! TO.N,VCC*
X137795000Y-101010000D03*
G04 #@! TO.P,J2,7,Pin_7*
G04 #@! TO.N,VEE*
X139065000Y-97110000D03*
G04 #@! TO.P,J2,8,Pin_8*
G04 #@! TO.N,VREF*
X139065000Y-101010000D03*
G04 #@! TD*
D18*
G04 #@! TO.P,RN2,1*
G04 #@! TO.N,Net-(RN2-Pad1)*
X145926500Y-98466000D03*
G04 #@! TO.P,RN2,2*
G04 #@! TO.N,Net-(RN2-Pad2)*
X145926500Y-99116000D03*
G04 #@! TO.P,RN2,3*
X145926500Y-99766000D03*
G04 #@! TO.P,RN2,4*
G04 #@! TO.N,Net-(RN2-Pad1)*
X145926500Y-100416000D03*
G04 #@! TO.P,RN2,5*
G04 #@! TO.N,VREF*
X141601500Y-100416000D03*
G04 #@! TO.P,RN2,6*
G04 #@! TO.N,GNDA*
X141601500Y-99766000D03*
G04 #@! TO.P,RN2,7*
G04 #@! TO.N,Net-(RN2-Pad7)*
X141601500Y-99116000D03*
G04 #@! TO.P,RN2,8*
X141601500Y-98466000D03*
D19*
G04 #@! TO.P,RN2,9,EP*
G04 #@! TO.N,GNDA*
X143764000Y-99441000D03*
G04 #@! TD*
D20*
G04 #@! TO.P,C5,1*
G04 #@! TO.N,GNDA*
X146177000Y-92515500D03*
G04 #@! TO.P,C5,2*
G04 #@! TO.N,VCC*
X146177000Y-91380500D03*
G04 #@! TD*
D21*
G04 #@! TO.N,+3.3V*
X145923000Y-102108000D03*
X152527000Y-87122000D03*
X152273000Y-95504000D03*
X149352000Y-85086500D03*
X152527000Y-86233000D03*
G04 #@! TO.N,GNDA*
X143256000Y-93726000D03*
X140081000Y-94361000D03*
X147462857Y-96976980D03*
X139954000Y-98425000D03*
X144272000Y-93726000D03*
X135255000Y-101854000D03*
X140081000Y-84709000D03*
X134874000Y-84074000D03*
X142113000Y-91313000D03*
X143764000Y-99949000D03*
X150368000Y-85086500D03*
X138049000Y-91059000D03*
X135763000Y-90932000D03*
X146304000Y-84836000D03*
X135255000Y-100838000D03*
X134874000Y-85471000D03*
X147056000Y-88265000D03*
X143764000Y-98933000D03*
X141351000Y-87757000D03*
G04 #@! TO.N,Net-(D1-A)*
X143256000Y-84709000D03*
G04 #@! TO.N,Net-(D1-K)*
X144272000Y-84705500D03*
X138303000Y-86487000D03*
G04 #@! TO.N,VCC*
X145796000Y-86868000D03*
X148336000Y-95250000D03*
X137795000Y-101854000D03*
X145421961Y-91106767D03*
X140144500Y-101058500D03*
X134874000Y-87884000D03*
G04 #@! TO.N,VEE*
X140036000Y-97110000D03*
X148022500Y-99119500D03*
X141097000Y-84959500D03*
X147955000Y-85090000D03*
X139092969Y-90395138D03*
X135610128Y-93949780D03*
G04 #@! TO.N,/AD_ID*
X145796000Y-88646000D03*
G04 #@! TO.N,GNDD*
X152527000Y-89916000D03*
X152527000Y-91059000D03*
X152273000Y-98298000D03*
X152273000Y-101854000D03*
X147829500Y-93472000D03*
G04 #@! TO.N,/SW_VRH*
X148717000Y-101219000D03*
G04 #@! TO.N,/AD_IRP*
X145542000Y-93726000D03*
G04 #@! TO.N,/AD_IIN*
X139191000Y-88900000D03*
G04 #@! TO.N,/AD_CMP*
X150495000Y-92893000D03*
G04 #@! TO.N,/AD_IRN*
X141859000Y-93853000D03*
G04 #@! TO.N,VREF*
X146558000Y-97790000D03*
G04 #@! TO.N,/AD_REF+*
X143327000Y-96901829D03*
G04 #@! TO.N,Net-(RN1-Pad6)*
X145288000Y-92285500D03*
G04 #@! TO.N,/AD_REF-*
X144201000Y-96901000D03*
G04 #@! TO.N,Net-(RN1-Pad5)*
X142068500Y-92284500D03*
G04 #@! TO.N,Net-(RN1-Pad7)*
X143002000Y-89662000D03*
G04 #@! TO.N,Net-(RN2-Pad7)*
X140642114Y-99028012D03*
G04 #@! TO.N,Net-(U3B--)*
X141106725Y-97687000D03*
X144780000Y-97663000D03*
G04 #@! TD*
D22*
G04 #@! TO.N,GNDA*
X146177000Y-92515500D02*
X145728500Y-92964000D01*
X143764000Y-99766000D02*
X143764000Y-99441000D01*
X139827000Y-99441000D02*
X139827000Y-98552000D01*
X139827000Y-98552000D02*
X139954000Y-98425000D01*
X145728500Y-92964000D02*
X144272000Y-92964000D01*
X141601500Y-99766000D02*
X143764000Y-99766000D01*
X140152000Y-99766000D02*
X139827000Y-99441000D01*
X141601500Y-99766000D02*
X140152000Y-99766000D01*
D23*
G04 #@! TO.N,Net-(D1-A)*
X142714000Y-84201000D02*
X142748000Y-84201000D01*
X142748000Y-84201000D02*
X143256000Y-84709000D01*
X143256000Y-84709000D02*
X143256000Y-85665500D01*
X143166500Y-86741000D02*
X143166500Y-85755000D01*
X143166500Y-85755000D02*
X143196500Y-85725000D01*
X143256000Y-85665500D02*
X143196500Y-85725000D01*
G04 #@! TO.N,Net-(D1-K)*
X144814000Y-84201000D02*
X144776500Y-84201000D01*
X144776500Y-84201000D02*
X144272000Y-84705500D01*
X144361500Y-86905500D02*
X144361500Y-86741000D01*
X143764000Y-87503000D02*
X144361500Y-86905500D01*
X141478000Y-86487000D02*
X142494000Y-87503000D01*
X138303000Y-86487000D02*
X141478000Y-86487000D01*
X142494000Y-87503000D02*
X143764000Y-87503000D01*
X144272000Y-85665500D02*
X144331500Y-85725000D01*
X144361500Y-85755000D02*
X144331500Y-85725000D01*
X144272000Y-84705500D02*
X144272000Y-85665500D01*
X144361500Y-86741000D02*
X144361500Y-85755000D01*
D24*
G04 #@! TO.N,VCC*
X146177000Y-91380500D02*
X145695694Y-91380500D01*
X145695694Y-91380500D02*
X145421961Y-91106767D01*
D25*
G04 #@! TO.N,VEE*
X139065000Y-97110000D02*
X140036000Y-97110000D01*
D22*
G04 #@! TO.N,/AD_ID*
X147873000Y-86868000D02*
X147955000Y-86950000D01*
X145796000Y-88011000D02*
X146939000Y-86868000D01*
X147955000Y-86950000D02*
X147955000Y-87585000D01*
X145796000Y-88646000D02*
X145796000Y-88011000D01*
X146939000Y-86868000D02*
X147873000Y-86868000D01*
D23*
G04 #@! TO.N,/SW_VRH*
X149225000Y-100711000D02*
X149225000Y-90850000D01*
X148717000Y-101219000D02*
X149225000Y-100711000D01*
G04 #@! TO.N,/AD_IRP*
X147955000Y-92329000D02*
X147955000Y-90850000D01*
X146558000Y-93726000D02*
X147955000Y-92329000D01*
X145542000Y-93726000D02*
X146558000Y-93726000D01*
G04 #@! TO.N,/AD_IIN*
X147701000Y-89281000D02*
X149225000Y-87757000D01*
X144589500Y-88519000D02*
X145351500Y-89281000D01*
X140335000Y-88900000D02*
X140716000Y-88519000D01*
X140716000Y-88519000D02*
X144589500Y-88519000D01*
X139191000Y-88900000D02*
X140335000Y-88900000D01*
X149225000Y-87757000D02*
X149225000Y-87585000D01*
X145351500Y-89281000D02*
X147701000Y-89281000D01*
D25*
G04 #@! TO.N,/AD_CMP*
X150495000Y-92893000D02*
X150495000Y-90850000D01*
D23*
G04 #@! TO.N,/AD_IRN*
X141859000Y-93853000D02*
X142471000Y-94465000D01*
X149987000Y-88900000D02*
X150495000Y-88392000D01*
X148600000Y-93843000D02*
X148600000Y-89334500D01*
X147978000Y-94465000D02*
X148600000Y-93843000D01*
X148600000Y-89334500D02*
X149034500Y-88900000D01*
X149034500Y-88900000D02*
X149987000Y-88900000D01*
X142471000Y-94465000D02*
X147978000Y-94465000D01*
X150495000Y-88392000D02*
X150495000Y-87585000D01*
G04 #@! TO.N,/AD_IN*
X144739000Y-89748000D02*
X144739000Y-91182500D01*
X137287000Y-98552000D02*
X137795000Y-98044000D01*
X140335000Y-95377000D02*
X140970000Y-94742000D01*
X137795000Y-98044000D02*
X137795000Y-95645000D01*
X144018000Y-89027000D02*
X144739000Y-89748000D01*
X140970000Y-94742000D02*
X140970000Y-90170000D01*
X136525000Y-98044000D02*
X137033000Y-98552000D01*
X137033000Y-98552000D02*
X137287000Y-98552000D01*
X137795000Y-95645000D02*
X138063000Y-95377000D01*
X142113000Y-89027000D02*
X144018000Y-89027000D01*
X136525000Y-97110000D02*
X136525000Y-98044000D01*
X138063000Y-95377000D02*
X140335000Y-95377000D01*
X140970000Y-90170000D02*
X142113000Y-89027000D01*
D22*
G04 #@! TO.N,VREF*
X147320000Y-98425000D02*
X147320000Y-100520500D01*
X139659000Y-100416000D02*
X141115750Y-100416000D01*
X142199000Y-100416000D02*
X141601500Y-100416000D01*
X146748500Y-101092000D02*
X142875000Y-101092000D01*
X139065000Y-101010000D02*
X139659000Y-100416000D01*
X146685000Y-97790000D02*
X147320000Y-98425000D01*
X146558000Y-97790000D02*
X146685000Y-97790000D01*
X147320000Y-100520500D02*
X146748500Y-101092000D01*
X142875000Y-101092000D02*
X142199000Y-100416000D01*
D23*
G04 #@! TO.N,/AD_REF+*
X142789000Y-96363829D02*
X143327000Y-96901829D01*
X142789000Y-95507500D02*
X142789000Y-96363829D01*
G04 #@! TO.N,Net-(RN1-Pad6)*
X143637000Y-92202000D02*
X143439000Y-92004000D01*
X145204500Y-92202000D02*
X143637000Y-92202000D01*
X145288000Y-92285500D02*
X145204500Y-92202000D01*
X143439000Y-92004000D02*
X143439000Y-91182500D01*
G04 #@! TO.N,/AD_REF-*
X143439000Y-96195000D02*
X143439000Y-95507500D01*
X144145000Y-96901000D02*
X143439000Y-96195000D01*
X144201000Y-96901000D02*
X144145000Y-96901000D01*
G04 #@! TO.N,Net-(RN1-Pad5)*
X142789000Y-91182500D02*
X142789000Y-91653000D01*
X142157500Y-92284500D02*
X142068500Y-92284500D01*
X142789000Y-91653000D02*
X142157500Y-92284500D01*
G04 #@! TO.N,Net-(RN1-Pad7)*
X143659500Y-89684500D02*
X144089000Y-90114000D01*
X143024500Y-89684500D02*
X143659500Y-89684500D01*
X144089000Y-90114000D02*
X144089000Y-91182500D01*
X143002000Y-89662000D02*
X143024500Y-89684500D01*
G04 #@! TO.N,Net-(RN1-Pad1)*
X144739000Y-95507500D02*
X144739000Y-96053000D01*
X144526000Y-96266000D02*
X144272000Y-96266000D01*
X144739000Y-96053000D02*
X144526000Y-96266000D01*
X144272000Y-96266000D02*
X144089000Y-96083000D01*
X144089000Y-96083000D02*
X144089000Y-95507500D01*
G04 #@! TO.N,Net-(RN2-Pad1)*
X145926500Y-98466000D02*
X145120000Y-98466000D01*
X145120000Y-100416000D02*
X145926500Y-100416000D01*
X144959000Y-98627000D02*
X144959000Y-100255000D01*
X145120000Y-98466000D02*
X144959000Y-98627000D01*
X144959000Y-100255000D02*
X145120000Y-100416000D01*
G04 #@! TO.N,Net-(RN2-Pad2)*
X146685000Y-99568000D02*
X146685000Y-99314000D01*
X146487000Y-99766000D02*
X146685000Y-99568000D01*
X146487000Y-99116000D02*
X146685000Y-99314000D01*
X145926500Y-99116000D02*
X146487000Y-99116000D01*
X145926500Y-99766000D02*
X146487000Y-99766000D01*
D22*
G04 #@! TO.N,Net-(RN2-Pad7)*
X141601500Y-99116000D02*
X140730102Y-99116000D01*
X141015000Y-98466000D02*
X141601500Y-98466000D01*
X140642114Y-99028012D02*
X140642114Y-98838886D01*
X140642114Y-98838886D02*
X141015000Y-98466000D01*
X140730102Y-99116000D02*
X140642114Y-99028012D01*
D23*
G04 #@! TO.N,Net-(U3B--)*
X144756000Y-97687000D02*
X141106725Y-97687000D01*
X144780000Y-97663000D02*
X144756000Y-97687000D01*
G04 #@! TD*
G04 #@! TA.AperFunction,Conductor*
G04 #@! TO.N,GNDA*
G36*
X135313194Y-83584306D02*
G01*
X135331500Y-83628500D01*
X135331500Y-84622086D01*
X135331501Y-84622094D01*
X135352249Y-84699529D01*
X135352250Y-84699532D01*
X135370230Y-84730673D01*
X135392339Y-84768968D01*
X135449032Y-84825661D01*
X135513397Y-84862822D01*
X135518467Y-84865749D01*
X135518470Y-84865750D01*
X135520605Y-84866322D01*
X135595912Y-84886500D01*
X135595913Y-84886500D01*
X139232087Y-84886500D01*
X139232088Y-84886500D01*
X139244374Y-84883208D01*
X140517500Y-84883208D01*
X140517500Y-85035791D01*
X140517501Y-85035799D01*
X140556990Y-85183173D01*
X140556991Y-85183177D01*
X140586667Y-85234577D01*
X140632339Y-85313683D01*
X140633286Y-85315322D01*
X140633289Y-85315326D01*
X140741173Y-85423210D01*
X140741177Y-85423213D01*
X140741179Y-85423215D01*
X140873322Y-85499508D01*
X141020707Y-85539000D01*
X141020708Y-85539000D01*
X141173292Y-85539000D01*
X141173293Y-85539000D01*
X141320678Y-85499508D01*
X141452821Y-85423215D01*
X141560715Y-85315321D01*
X141637008Y-85183178D01*
X141676500Y-85035793D01*
X141676500Y-84883207D01*
X141637008Y-84735822D01*
X141560715Y-84603679D01*
X141560713Y-84603677D01*
X141560710Y-84603673D01*
X141452826Y-84495789D01*
X141452822Y-84495786D01*
X141452821Y-84495785D01*
X141335643Y-84428132D01*
X141320677Y-84419491D01*
X141320673Y-84419490D01*
X141173299Y-84380001D01*
X141173294Y-84380000D01*
X141173293Y-84380000D01*
X141020707Y-84380000D01*
X141020706Y-84380000D01*
X141020700Y-84380001D01*
X140873326Y-84419490D01*
X140873322Y-84419491D01*
X140741177Y-84495786D01*
X140741173Y-84495789D01*
X140633289Y-84603673D01*
X140633286Y-84603677D01*
X140556991Y-84735822D01*
X140556990Y-84735826D01*
X140517501Y-84883200D01*
X140517500Y-84883208D01*
X139244374Y-84883208D01*
X139309533Y-84865749D01*
X139378968Y-84825661D01*
X139435661Y-84768968D01*
X139475749Y-84699533D01*
X139496500Y-84622088D01*
X139496500Y-83628500D01*
X139514806Y-83584306D01*
X139559000Y-83566000D01*
X152755112Y-83566000D01*
X152799306Y-83584306D01*
X152973194Y-83758194D01*
X152991500Y-83802388D01*
X152991500Y-85448934D01*
X152986653Y-85460634D01*
X152986555Y-85473300D01*
X152977861Y-85481859D01*
X152973194Y-85493128D01*
X152961493Y-85497974D01*
X152952468Y-85506861D01*
X152941449Y-85506277D01*
X152929000Y-85511434D01*
X152904634Y-85506489D01*
X152900165Y-85504597D01*
X152898613Y-85503560D01*
X152856992Y-85486320D01*
X152856813Y-85486244D01*
X152856767Y-85486197D01*
X152855026Y-85485374D01*
X152755112Y-85465500D01*
X151663716Y-85465500D01*
X151663712Y-85465500D01*
X151564480Y-85485223D01*
X151551123Y-85490751D01*
X151527226Y-85495500D01*
X151369935Y-85495500D01*
X151369931Y-85495501D01*
X151295700Y-85510265D01*
X151295696Y-85510267D01*
X151211515Y-85566515D01*
X151181967Y-85610738D01*
X151142193Y-85637314D01*
X151095277Y-85627982D01*
X151078033Y-85610738D01*
X151048484Y-85566515D01*
X150964302Y-85510266D01*
X150964300Y-85510265D01*
X150890067Y-85495500D01*
X150099935Y-85495500D01*
X150099931Y-85495501D01*
X150025700Y-85510265D01*
X150025696Y-85510267D01*
X149941514Y-85566516D01*
X149911965Y-85610739D01*
X149902019Y-85617384D01*
X149895529Y-85627434D01*
X149882915Y-85630148D01*
X149872191Y-85637314D01*
X149860459Y-85634980D01*
X149848764Y-85637497D01*
X149838189Y-85630550D01*
X149825275Y-85627981D01*
X149808580Y-85611545D01*
X149808331Y-85611185D01*
X149778484Y-85566516D01*
X149776592Y-85565251D01*
X149771971Y-85558564D01*
X149768039Y-85540294D01*
X149760890Y-85523034D01*
X149763151Y-85517575D01*
X149761908Y-85511799D01*
X149772046Y-85496101D01*
X149779196Y-85478840D01*
X149779196Y-85478839D01*
X149815715Y-85442321D01*
X149892008Y-85310178D01*
X149931500Y-85162793D01*
X149931500Y-85010207D01*
X149892008Y-84862822D01*
X149815715Y-84730679D01*
X149815713Y-84730677D01*
X149815710Y-84730673D01*
X149707826Y-84622789D01*
X149707822Y-84622786D01*
X149707821Y-84622785D01*
X149641749Y-84584638D01*
X149575677Y-84546491D01*
X149575673Y-84546490D01*
X149428299Y-84507001D01*
X149428294Y-84507000D01*
X149428293Y-84507000D01*
X149275707Y-84507000D01*
X149275706Y-84507000D01*
X149275700Y-84507001D01*
X149128326Y-84546490D01*
X149128322Y-84546491D01*
X148996177Y-84622786D01*
X148996173Y-84622789D01*
X148888289Y-84730673D01*
X148888286Y-84730677D01*
X148811991Y-84862822D01*
X148811990Y-84862826D01*
X148772501Y-85010200D01*
X148772500Y-85010208D01*
X148772500Y-85162791D01*
X148772501Y-85162799D01*
X148811990Y-85310173D01*
X148811991Y-85310177D01*
X148866205Y-85404078D01*
X148872448Y-85451504D01*
X148843328Y-85489455D01*
X148824271Y-85496627D01*
X148755700Y-85510265D01*
X148755696Y-85510267D01*
X148671515Y-85566515D01*
X148641967Y-85610738D01*
X148602193Y-85637314D01*
X148555277Y-85627982D01*
X148538033Y-85610738D01*
X148508484Y-85566515D01*
X148442092Y-85522154D01*
X148415516Y-85482380D01*
X148422689Y-85438937D01*
X148431767Y-85423215D01*
X148495008Y-85313678D01*
X148534500Y-85166293D01*
X148534500Y-85013707D01*
X148495008Y-84866322D01*
X148418715Y-84734179D01*
X148418713Y-84734177D01*
X148418710Y-84734173D01*
X148310826Y-84626289D01*
X148310822Y-84626286D01*
X148310821Y-84626285D01*
X148244749Y-84588138D01*
X148178677Y-84549991D01*
X148178673Y-84549990D01*
X148031299Y-84510501D01*
X148031294Y-84510500D01*
X148031293Y-84510500D01*
X147878707Y-84510500D01*
X147878706Y-84510500D01*
X147878700Y-84510501D01*
X147731326Y-84549990D01*
X147731322Y-84549991D01*
X147599177Y-84626286D01*
X147599173Y-84626289D01*
X147491289Y-84734173D01*
X147491286Y-84734177D01*
X147414991Y-84866322D01*
X147414990Y-84866326D01*
X147375501Y-85013700D01*
X147375500Y-85013708D01*
X147375500Y-85166291D01*
X147375501Y-85166299D01*
X147414990Y-85313673D01*
X147414991Y-85313677D01*
X147415941Y-85315322D01*
X147478233Y-85423215D01*
X147487311Y-85438937D01*
X147493554Y-85486363D01*
X147467907Y-85522154D01*
X147401515Y-85566515D01*
X147345266Y-85650697D01*
X147345265Y-85650699D01*
X147330500Y-85724932D01*
X147330500Y-86360500D01*
X147312194Y-86404694D01*
X147268000Y-86423000D01*
X146880409Y-86423000D01*
X146848409Y-86431575D01*
X146842008Y-86433291D01*
X146767239Y-86453324D01*
X146767236Y-86453325D01*
X146665762Y-86511912D01*
X146665763Y-86511912D01*
X146454258Y-86723416D01*
X146410064Y-86741722D01*
X146365870Y-86723416D01*
X146349694Y-86695398D01*
X146336009Y-86644325D01*
X146336008Y-86644322D01*
X146289229Y-86563299D01*
X146259715Y-86512179D01*
X146259713Y-86512177D01*
X146259710Y-86512173D01*
X146151826Y-86404289D01*
X146151822Y-86404286D01*
X146151821Y-86404285D01*
X146030649Y-86334326D01*
X146019677Y-86327991D01*
X146019673Y-86327990D01*
X145872299Y-86288501D01*
X145872294Y-86288500D01*
X145872293Y-86288500D01*
X145719707Y-86288500D01*
X145719706Y-86288500D01*
X145719700Y-86288501D01*
X145572326Y-86327990D01*
X145572322Y-86327991D01*
X145440177Y-86404286D01*
X145440173Y-86404289D01*
X145332289Y-86512173D01*
X145332286Y-86512177D01*
X145255991Y-86644322D01*
X145255990Y-86644326D01*
X145216501Y-86791700D01*
X145216500Y-86791708D01*
X145216500Y-86944291D01*
X145216501Y-86944299D01*
X145255990Y-87091673D01*
X145255991Y-87091677D01*
X145332286Y-87223822D01*
X145332289Y-87223826D01*
X145440173Y-87331710D01*
X145440177Y-87331713D01*
X145440179Y-87331715D01*
X145516017Y-87375500D01*
X145572322Y-87408008D01*
X145572325Y-87408009D01*
X145623398Y-87421694D01*
X145661349Y-87450814D01*
X145667592Y-87498240D01*
X145651416Y-87526258D01*
X145522764Y-87654911D01*
X145439915Y-87737758D01*
X145439908Y-87737767D01*
X145381327Y-87839232D01*
X145379197Y-87847183D01*
X145379196Y-87847182D01*
X145379196Y-87847186D01*
X145364613Y-87901611D01*
X145364613Y-87901612D01*
X145351000Y-87952409D01*
X145351000Y-88041276D01*
X145348885Y-88057399D01*
X145233228Y-88490555D01*
X145204140Y-88528531D01*
X145156720Y-88534817D01*
X145128649Y-88518626D01*
X144823751Y-88213728D01*
X144823747Y-88213724D01*
X144800832Y-88200494D01*
X144778630Y-88187675D01*
X144778630Y-88187676D01*
X144736754Y-88163499D01*
X144736751Y-88163498D01*
X144639729Y-88137500D01*
X144639725Y-88137500D01*
X140665775Y-88137500D01*
X140665770Y-88137500D01*
X140568748Y-88163498D01*
X140568746Y-88163498D01*
X140481751Y-88213725D01*
X140414291Y-88281185D01*
X140414277Y-88281197D01*
X140195283Y-88500194D01*
X140151089Y-88518500D01*
X139901704Y-88518500D01*
X139882096Y-88515344D01*
X139871630Y-88511886D01*
X139418366Y-88362121D01*
X139414678Y-88359992D01*
X139400097Y-88356084D01*
X139398412Y-88355528D01*
X139398402Y-88355525D01*
X139348320Y-88338977D01*
X139333276Y-88334506D01*
X139331932Y-88334151D01*
X139316986Y-88330667D01*
X139316979Y-88330666D01*
X139313227Y-88330655D01*
X139297249Y-88328526D01*
X139267294Y-88320500D01*
X139267293Y-88320500D01*
X139114707Y-88320500D01*
X139114706Y-88320500D01*
X139114700Y-88320501D01*
X138967326Y-88359990D01*
X138967322Y-88359991D01*
X138835177Y-88436286D01*
X138835173Y-88436289D01*
X138790694Y-88480769D01*
X138746500Y-88499075D01*
X138702306Y-88480769D01*
X138684000Y-88436575D01*
X138684000Y-87376000D01*
X138557000Y-87249000D01*
X135763000Y-87249000D01*
X135636000Y-87376000D01*
X135636000Y-88773000D01*
X135763000Y-88900000D01*
X138549000Y-88900000D01*
X138593194Y-88918306D01*
X138611500Y-88962500D01*
X138611500Y-88976291D01*
X138611501Y-88976299D01*
X138650990Y-89123673D01*
X138650991Y-89123677D01*
X138650992Y-89123678D01*
X138727100Y-89255501D01*
X138727286Y-89255822D01*
X138727289Y-89255826D01*
X138835173Y-89363710D01*
X138835177Y-89363713D01*
X138835179Y-89363715D01*
X138967322Y-89440008D01*
X139114707Y-89479500D01*
X139114708Y-89479500D01*
X139267293Y-89479500D01*
X139325985Y-89463773D01*
X139348343Y-89461014D01*
X139400077Y-89443920D01*
X139414678Y-89440008D01*
X139414680Y-89440007D01*
X139418464Y-89438440D01*
X139418503Y-89438534D01*
X139424463Y-89435862D01*
X139642819Y-89363715D01*
X139882096Y-89284654D01*
X139901704Y-89281500D01*
X140385224Y-89281500D01*
X140385225Y-89281500D01*
X140482254Y-89255501D01*
X140495249Y-89247997D01*
X140542675Y-89241753D01*
X140580626Y-89270873D01*
X140589000Y-89302124D01*
X140589000Y-90111879D01*
X140588500Y-90119509D01*
X140588500Y-94558089D01*
X140570194Y-94602283D01*
X140195283Y-94977194D01*
X140151089Y-94995500D01*
X138012770Y-94995500D01*
X137915748Y-95021498D01*
X137915746Y-95021498D01*
X137871099Y-95047276D01*
X137828752Y-95071724D01*
X137489725Y-95410751D01*
X137439498Y-95497746D01*
X137439498Y-95497748D01*
X137413500Y-95594770D01*
X137413500Y-95601509D01*
X137395194Y-95645703D01*
X137363193Y-95662808D01*
X137325700Y-95670265D01*
X137325696Y-95670267D01*
X137241515Y-95726515D01*
X137211967Y-95770738D01*
X137172193Y-95797314D01*
X137125277Y-95787982D01*
X137108033Y-95770738D01*
X137078484Y-95726515D01*
X136994302Y-95670266D01*
X136994300Y-95670265D01*
X136920067Y-95655500D01*
X136129935Y-95655500D01*
X136129931Y-95655501D01*
X136055700Y-95670265D01*
X136055696Y-95670267D01*
X135971515Y-95726515D01*
X135915266Y-95810697D01*
X135915265Y-95810699D01*
X135900500Y-95884932D01*
X135900500Y-98335064D01*
X135900501Y-98335068D01*
X135915265Y-98409299D01*
X135915267Y-98409303D01*
X135971515Y-98493484D01*
X136055697Y-98549733D01*
X136055699Y-98549734D01*
X136129933Y-98564500D01*
X136480089Y-98564499D01*
X136524283Y-98582805D01*
X136725536Y-98784058D01*
X136725541Y-98784064D01*
X136727723Y-98786246D01*
X136727724Y-98786247D01*
X136798753Y-98857276D01*
X136885746Y-98907501D01*
X136928526Y-98918964D01*
X136982770Y-98933499D01*
X136982773Y-98933499D01*
X136982775Y-98933500D01*
X136982776Y-98933500D01*
X137337224Y-98933500D01*
X137337225Y-98933500D01*
X137434254Y-98907501D01*
X137521247Y-98857276D01*
X137592276Y-98786247D01*
X137592276Y-98786246D01*
X137795717Y-98582805D01*
X137839911Y-98564499D01*
X138190065Y-98564499D01*
X138190066Y-98564499D01*
X138264301Y-98549734D01*
X138348484Y-98493484D01*
X138378033Y-98449260D01*
X138417807Y-98422685D01*
X138464723Y-98432017D01*
X138481967Y-98449261D01*
X138511515Y-98493484D01*
X138595697Y-98549733D01*
X138595699Y-98549734D01*
X138669933Y-98564500D01*
X139460066Y-98564499D01*
X139534301Y-98549734D01*
X139618484Y-98493484D01*
X139674734Y-98409301D01*
X139689500Y-98335067D01*
X139689500Y-98106500D01*
X139707806Y-98062306D01*
X139752000Y-98044000D01*
X140618301Y-98044000D01*
X140662495Y-98062306D01*
X140681737Y-98081548D01*
X140700043Y-98125742D01*
X140681737Y-98169936D01*
X140681724Y-98169949D01*
X140680001Y-98171671D01*
X140670966Y-98179146D01*
X140654211Y-98190539D01*
X140654205Y-98190544D01*
X140289937Y-98560745D01*
X140289136Y-98561453D01*
X140178396Y-98672193D01*
X140169496Y-98687606D01*
X140169497Y-98687607D01*
X140167708Y-98690706D01*
X140165066Y-98694270D01*
X140163534Y-98697934D01*
X140161536Y-98701396D01*
X140161534Y-98701396D01*
X140102107Y-98804331D01*
X140102104Y-98804338D01*
X140062615Y-98951712D01*
X140062614Y-98951720D01*
X140062614Y-99104303D01*
X140062615Y-99104311D01*
X140102104Y-99251685D01*
X140102105Y-99251689D01*
X140178400Y-99383834D01*
X140178403Y-99383838D01*
X140286287Y-99491722D01*
X140286291Y-99491725D01*
X140286293Y-99491727D01*
X140418436Y-99568020D01*
X140565821Y-99607512D01*
X140565822Y-99607512D01*
X140707522Y-99607512D01*
X140751716Y-99625818D01*
X140755835Y-99630362D01*
X140762924Y-99639000D01*
X141539000Y-99639000D01*
X141583194Y-99657306D01*
X141601500Y-99701500D01*
X141601500Y-99830500D01*
X141583194Y-99874694D01*
X141539000Y-99893000D01*
X140762924Y-99893000D01*
X140763582Y-99896306D01*
X140754250Y-99943223D01*
X140714477Y-99969799D01*
X140702283Y-99971000D01*
X139751999Y-99971000D01*
X139707805Y-99952694D01*
X139689499Y-99908500D01*
X139689499Y-99784935D01*
X139689499Y-99784933D01*
X139674734Y-99710699D01*
X139659555Y-99687982D01*
X139618484Y-99626515D01*
X139534302Y-99570266D01*
X139534300Y-99570265D01*
X139460067Y-99555500D01*
X138669935Y-99555500D01*
X138669931Y-99555501D01*
X138595700Y-99570265D01*
X138595696Y-99570267D01*
X138511515Y-99626515D01*
X138481967Y-99670738D01*
X138442193Y-99697314D01*
X138395277Y-99687982D01*
X138378033Y-99670738D01*
X138348484Y-99626515D01*
X138264302Y-99570266D01*
X138264300Y-99570265D01*
X138190067Y-99555500D01*
X137399935Y-99555500D01*
X137399931Y-99555501D01*
X137325700Y-99570265D01*
X137325696Y-99570267D01*
X137241515Y-99626515D01*
X137185266Y-99710697D01*
X137185265Y-99710699D01*
X137170500Y-99784932D01*
X137170500Y-102235064D01*
X137170501Y-102235068D01*
X137185265Y-102309299D01*
X137185267Y-102309303D01*
X137240375Y-102391777D01*
X137249707Y-102438693D01*
X137223131Y-102478467D01*
X137188408Y-102489000D01*
X134264888Y-102489000D01*
X134220694Y-102470694D01*
X134026806Y-102276806D01*
X134008500Y-102232612D01*
X134008500Y-93873488D01*
X135030628Y-93873488D01*
X135030628Y-94026071D01*
X135030629Y-94026079D01*
X135070118Y-94173453D01*
X135070119Y-94173457D01*
X135070120Y-94173458D01*
X135137354Y-94289911D01*
X135146414Y-94305602D01*
X135146417Y-94305606D01*
X135254301Y-94413490D01*
X135254305Y-94413493D01*
X135254307Y-94413495D01*
X135386450Y-94489788D01*
X135533835Y-94529280D01*
X135533836Y-94529280D01*
X135686420Y-94529280D01*
X135686421Y-94529280D01*
X135833806Y-94489788D01*
X135965949Y-94413495D01*
X136073843Y-94305601D01*
X136150136Y-94173458D01*
X136189628Y-94026073D01*
X136189628Y-93873487D01*
X136150136Y-93726102D01*
X136073843Y-93593959D01*
X136073841Y-93593957D01*
X136073838Y-93593953D01*
X135965954Y-93486069D01*
X135965950Y-93486066D01*
X135965949Y-93486065D01*
X135899877Y-93447918D01*
X135833805Y-93409771D01*
X135833801Y-93409770D01*
X135686427Y-93370281D01*
X135686422Y-93370280D01*
X135686421Y-93370280D01*
X135533835Y-93370280D01*
X135533834Y-93370280D01*
X135533828Y-93370281D01*
X135386454Y-93409770D01*
X135386450Y-93409771D01*
X135254305Y-93486066D01*
X135254301Y-93486069D01*
X135146417Y-93593953D01*
X135146414Y-93593957D01*
X135070119Y-93726102D01*
X135070118Y-93726106D01*
X135030629Y-93873480D01*
X135030628Y-93873488D01*
X134008500Y-93873488D01*
X134008500Y-90318846D01*
X138513469Y-90318846D01*
X138513469Y-90471429D01*
X138513470Y-90471437D01*
X138552959Y-90618811D01*
X138552960Y-90618815D01*
X138572700Y-90653005D01*
X138628936Y-90750409D01*
X138629255Y-90750960D01*
X138629258Y-90750964D01*
X138737142Y-90858848D01*
X138737146Y-90858851D01*
X138737148Y-90858853D01*
X138869291Y-90935146D01*
X139016676Y-90974638D01*
X139016677Y-90974638D01*
X139169261Y-90974638D01*
X139169262Y-90974638D01*
X139316647Y-90935146D01*
X139448790Y-90858853D01*
X139556684Y-90750959D01*
X139632977Y-90618816D01*
X139672469Y-90471431D01*
X139672469Y-90318845D01*
X139632977Y-90171460D01*
X139556684Y-90039317D01*
X139556682Y-90039315D01*
X139556679Y-90039311D01*
X139448795Y-89931427D01*
X139448791Y-89931424D01*
X139448790Y-89931423D01*
X139382718Y-89893276D01*
X139316646Y-89855129D01*
X139316642Y-89855128D01*
X139169268Y-89815639D01*
X139169263Y-89815638D01*
X139169262Y-89815638D01*
X139016676Y-89815638D01*
X139016675Y-89815638D01*
X139016669Y-89815639D01*
X138869295Y-89855128D01*
X138869291Y-89855129D01*
X138737146Y-89931424D01*
X138737142Y-89931427D01*
X138629258Y-90039311D01*
X138629255Y-90039315D01*
X138552960Y-90171460D01*
X138552959Y-90171464D01*
X138513470Y-90318838D01*
X138513469Y-90318846D01*
X134008500Y-90318846D01*
X134008500Y-87807708D01*
X134294500Y-87807708D01*
X134294500Y-87960291D01*
X134294501Y-87960299D01*
X134333990Y-88107673D01*
X134333991Y-88107677D01*
X134372138Y-88173749D01*
X134407560Y-88235102D01*
X134410286Y-88239822D01*
X134410289Y-88239826D01*
X134518173Y-88347710D01*
X134518177Y-88347713D01*
X134518179Y-88347715D01*
X134650322Y-88424008D01*
X134797707Y-88463500D01*
X134797708Y-88463500D01*
X134950292Y-88463500D01*
X134950293Y-88463500D01*
X135097678Y-88424008D01*
X135229821Y-88347715D01*
X135337715Y-88239821D01*
X135414008Y-88107678D01*
X135453500Y-87960293D01*
X135453500Y-87807707D01*
X135414008Y-87660322D01*
X135337715Y-87528179D01*
X135337713Y-87528177D01*
X135337710Y-87528173D01*
X135229826Y-87420289D01*
X135229822Y-87420286D01*
X135229821Y-87420285D01*
X135152251Y-87375500D01*
X135097677Y-87343991D01*
X135097673Y-87343990D01*
X134950299Y-87304501D01*
X134950294Y-87304500D01*
X134950293Y-87304500D01*
X134797707Y-87304500D01*
X134797706Y-87304500D01*
X134797700Y-87304501D01*
X134650326Y-87343990D01*
X134650322Y-87343991D01*
X134518177Y-87420286D01*
X134518173Y-87420289D01*
X134410289Y-87528173D01*
X134410286Y-87528177D01*
X134333991Y-87660322D01*
X134333990Y-87660326D01*
X134294501Y-87807700D01*
X134294500Y-87807708D01*
X134008500Y-87807708D01*
X134008500Y-86410708D01*
X137723500Y-86410708D01*
X137723500Y-86563291D01*
X137723501Y-86563299D01*
X137762990Y-86710673D01*
X137762991Y-86710677D01*
X137839286Y-86842822D01*
X137839289Y-86842826D01*
X137947173Y-86950710D01*
X137947177Y-86950713D01*
X137947179Y-86950715D01*
X138079322Y-87027008D01*
X138226707Y-87066500D01*
X138226708Y-87066500D01*
X138379293Y-87066500D01*
X138437985Y-87050773D01*
X138460343Y-87048014D01*
X138512077Y-87030920D01*
X138526678Y-87027008D01*
X138526680Y-87027007D01*
X138530464Y-87025440D01*
X138530503Y-87025534D01*
X138536463Y-87022862D01*
X138754819Y-86950715D01*
X138994096Y-86871654D01*
X139013704Y-86868500D01*
X141294089Y-86868500D01*
X141338283Y-86886806D01*
X142188724Y-87737247D01*
X142259753Y-87808276D01*
X142346746Y-87858501D01*
X142363451Y-87862977D01*
X142443770Y-87884499D01*
X142443773Y-87884499D01*
X142443775Y-87884500D01*
X142443776Y-87884500D01*
X143814224Y-87884500D01*
X143814225Y-87884500D01*
X143911254Y-87858501D01*
X143998247Y-87808276D01*
X144069276Y-87737247D01*
X144472717Y-87333804D01*
X144516911Y-87315499D01*
X144591619Y-87315499D01*
X144591622Y-87315499D01*
X144688684Y-87300127D01*
X144805674Y-87240518D01*
X144898518Y-87147674D01*
X144958127Y-87030684D01*
X144973500Y-86933623D01*
X144973499Y-86548378D01*
X144958127Y-86451316D01*
X144898518Y-86334326D01*
X144827850Y-86263658D01*
X144809544Y-86219464D01*
X144827850Y-86175270D01*
X144836412Y-86166708D01*
X144879422Y-86123698D01*
X144938312Y-86008120D01*
X144947338Y-85951133D01*
X144953498Y-85912239D01*
X144953500Y-85912223D01*
X144953500Y-85537776D01*
X144953498Y-85537760D01*
X144938313Y-85441885D01*
X144938312Y-85441883D01*
X144938312Y-85441880D01*
X144938310Y-85441877D01*
X144938310Y-85441875D01*
X144879422Y-85326302D01*
X144787697Y-85234577D01*
X144769157Y-85225130D01*
X144738092Y-85188755D01*
X144738188Y-85149835D01*
X144775869Y-85035793D01*
X144807870Y-84938940D01*
X144809465Y-84934652D01*
X144811032Y-84930866D01*
X144812008Y-84929178D01*
X144812512Y-84927293D01*
X144814079Y-84923512D01*
X144814599Y-84922990D01*
X144815991Y-84919337D01*
X144918883Y-84714901D01*
X144955103Y-84683654D01*
X144974711Y-84680499D01*
X145036332Y-84680499D01*
X145107666Y-84670107D01*
X145217704Y-84616313D01*
X145304313Y-84529704D01*
X145358107Y-84419666D01*
X145368500Y-84348333D01*
X145368499Y-84053668D01*
X145358107Y-83982334D01*
X145304313Y-83872296D01*
X145217704Y-83785687D01*
X145107666Y-83731893D01*
X145107664Y-83731892D01*
X145107663Y-83731892D01*
X145049368Y-83723399D01*
X145036333Y-83721500D01*
X145036325Y-83721500D01*
X144591668Y-83721500D01*
X144520336Y-83731892D01*
X144520335Y-83731892D01*
X144520334Y-83731893D01*
X144425623Y-83778194D01*
X144410294Y-83785688D01*
X144323688Y-83872294D01*
X144269892Y-83982336D01*
X144263167Y-84028497D01*
X144238680Y-84069590D01*
X144229418Y-84075314D01*
X144058159Y-84161508D01*
X144058157Y-84161509D01*
X144052431Y-84164390D01*
X144048322Y-84165492D01*
X144035272Y-84173025D01*
X144033652Y-84173841D01*
X144033650Y-84173841D01*
X143986578Y-84197533D01*
X143972945Y-84204913D01*
X143971740Y-84205612D01*
X143958480Y-84213853D01*
X143958473Y-84213858D01*
X143955820Y-84216496D01*
X143943014Y-84226291D01*
X143916179Y-84241784D01*
X143916173Y-84241789D01*
X143806444Y-84351519D01*
X143762250Y-84369825D01*
X143718056Y-84351519D01*
X143611823Y-84245286D01*
X143605611Y-84241700D01*
X143559200Y-84214904D01*
X143541437Y-84201043D01*
X143492759Y-84176543D01*
X143491227Y-84175659D01*
X143491208Y-84175649D01*
X143479678Y-84168992D01*
X143479675Y-84168990D01*
X143475894Y-84167424D01*
X143475932Y-84167330D01*
X143469839Y-84165007D01*
X143299131Y-84079091D01*
X143267885Y-84042871D01*
X143265382Y-84032273D01*
X143258107Y-83982336D01*
X143258107Y-83982334D01*
X143204313Y-83872296D01*
X143117704Y-83785687D01*
X143007666Y-83731893D01*
X143007664Y-83731892D01*
X143007663Y-83731892D01*
X142949368Y-83723399D01*
X142936333Y-83721500D01*
X142936325Y-83721500D01*
X142491668Y-83721500D01*
X142420336Y-83731892D01*
X142420335Y-83731892D01*
X142420334Y-83731893D01*
X142325623Y-83778194D01*
X142310294Y-83785688D01*
X142223688Y-83872294D01*
X142169892Y-83982336D01*
X142159501Y-84053660D01*
X142159500Y-84053674D01*
X142159500Y-84348331D01*
X142169892Y-84419663D01*
X142169893Y-84419666D01*
X142223687Y-84529704D01*
X142310296Y-84616313D01*
X142420334Y-84670107D01*
X142491667Y-84680500D01*
X142551525Y-84680499D01*
X142595719Y-84698804D01*
X142607354Y-84714901D01*
X142712007Y-84922839D01*
X142713920Y-84927015D01*
X142715489Y-84930802D01*
X142715992Y-84932678D01*
X142716963Y-84934359D01*
X142718530Y-84938142D01*
X142718530Y-84938877D01*
X142720134Y-84942456D01*
X142788821Y-85150340D01*
X142785304Y-85198046D01*
X142757852Y-85225635D01*
X142740302Y-85234577D01*
X142648577Y-85326302D01*
X142589689Y-85441875D01*
X142589686Y-85441885D01*
X142574501Y-85537760D01*
X142574500Y-85537776D01*
X142574500Y-85912223D01*
X142574501Y-85912239D01*
X142589686Y-86008114D01*
X142589689Y-86008124D01*
X142648577Y-86123697D01*
X142700150Y-86175270D01*
X142718456Y-86219464D01*
X142700150Y-86263658D01*
X142629481Y-86334326D01*
X142569874Y-86451311D01*
X142569871Y-86451321D01*
X142554501Y-86548363D01*
X142554500Y-86548379D01*
X142554500Y-86873089D01*
X142536194Y-86917283D01*
X142492000Y-86935589D01*
X142447806Y-86917283D01*
X141712247Y-86181724D01*
X141686238Y-86166708D01*
X141625254Y-86131499D01*
X141625251Y-86131498D01*
X141528229Y-86105500D01*
X141528225Y-86105500D01*
X139013704Y-86105500D01*
X138994096Y-86102344D01*
X138754826Y-86023286D01*
X138530366Y-85949121D01*
X138526678Y-85946992D01*
X138512097Y-85943084D01*
X138510412Y-85942528D01*
X138510402Y-85942525D01*
X138460320Y-85925977D01*
X138445276Y-85921506D01*
X138443932Y-85921151D01*
X138428986Y-85917667D01*
X138428979Y-85917666D01*
X138425227Y-85917655D01*
X138409249Y-85915526D01*
X138379294Y-85907500D01*
X138379293Y-85907500D01*
X138226707Y-85907500D01*
X138226706Y-85907500D01*
X138226700Y-85907501D01*
X138079326Y-85946990D01*
X138079322Y-85946991D01*
X137947177Y-86023286D01*
X137947173Y-86023289D01*
X137839289Y-86131173D01*
X137839286Y-86131177D01*
X137762991Y-86263322D01*
X137762990Y-86263326D01*
X137723501Y-86410700D01*
X137723500Y-86410708D01*
X134008500Y-86410708D01*
X134008500Y-83822388D01*
X134026806Y-83778194D01*
X134220694Y-83584306D01*
X134264888Y-83566000D01*
X135269000Y-83566000D01*
X135313194Y-83584306D01*
G37*
G04 #@! TD.AperFunction*
G04 #@! TA.AperFunction,Conductor*
G36*
X147835753Y-94864806D02*
G01*
X147854059Y-94909000D01*
X147845686Y-94940250D01*
X147795991Y-95026322D01*
X147795990Y-95026326D01*
X147756501Y-95173700D01*
X147756500Y-95173708D01*
X147756500Y-95326291D01*
X147756501Y-95326299D01*
X147795990Y-95473673D01*
X147795991Y-95473677D01*
X147809889Y-95497748D01*
X147869795Y-95601509D01*
X147872286Y-95605822D01*
X147872289Y-95605826D01*
X147980173Y-95713710D01*
X147980177Y-95713713D01*
X147980179Y-95713715D01*
X148112322Y-95790008D01*
X148259707Y-95829500D01*
X148259708Y-95829500D01*
X148412292Y-95829500D01*
X148412293Y-95829500D01*
X148559678Y-95790008D01*
X148691821Y-95713715D01*
X148692611Y-95712925D01*
X148736806Y-95668731D01*
X148781000Y-95650425D01*
X148825194Y-95668731D01*
X148843500Y-95712925D01*
X148843500Y-97473500D01*
X148825194Y-97517694D01*
X148781000Y-97536000D01*
X147137028Y-97536000D01*
X147134949Y-97535138D01*
X147132817Y-97535858D01*
X147113131Y-97526101D01*
X147092834Y-97517694D01*
X147089957Y-97514616D01*
X147029659Y-97445585D01*
X147022605Y-97435721D01*
X147021715Y-97434179D01*
X147021714Y-97434178D01*
X147021713Y-97434176D01*
X146913826Y-97326289D01*
X146913822Y-97326286D01*
X146913821Y-97326285D01*
X146795876Y-97258189D01*
X146781677Y-97249991D01*
X146781673Y-97249990D01*
X146634299Y-97210501D01*
X146634294Y-97210500D01*
X146634293Y-97210500D01*
X146481707Y-97210500D01*
X146481706Y-97210500D01*
X146481700Y-97210501D01*
X146334326Y-97249990D01*
X146334322Y-97249991D01*
X146202177Y-97326286D01*
X146202173Y-97326289D01*
X146094289Y-97434173D01*
X146094282Y-97434182D01*
X146053540Y-97504750D01*
X146015590Y-97533870D01*
X145999414Y-97536000D01*
X145393871Y-97536000D01*
X145349677Y-97517694D01*
X145333501Y-97489677D01*
X145321236Y-97443906D01*
X145320008Y-97439322D01*
X145243715Y-97307179D01*
X145243713Y-97307177D01*
X145243710Y-97307173D01*
X145135826Y-97199289D01*
X145135822Y-97199286D01*
X145135821Y-97199285D01*
X145045247Y-97146992D01*
X145003677Y-97122991D01*
X145003673Y-97122990D01*
X144856299Y-97083501D01*
X144856294Y-97083500D01*
X144856293Y-97083500D01*
X144856292Y-97083500D01*
X144833494Y-97083500D01*
X144789300Y-97065194D01*
X144770994Y-97021000D01*
X144773124Y-97004824D01*
X144780498Y-96977299D01*
X144780500Y-96977291D01*
X144780500Y-96824708D01*
X144780498Y-96824700D01*
X144741008Y-96677322D01*
X144741005Y-96677316D01*
X144731149Y-96660244D01*
X144724905Y-96612818D01*
X144754025Y-96574868D01*
X144760247Y-96571276D01*
X144831276Y-96500247D01*
X144831276Y-96500246D01*
X144839695Y-96491826D01*
X144874877Y-96474174D01*
X144941550Y-96464461D01*
X145047840Y-96412499D01*
X145131499Y-96328840D01*
X145183461Y-96222550D01*
X145193500Y-96153646D01*
X145193500Y-94909000D01*
X145211806Y-94864806D01*
X145256000Y-94846500D01*
X147791559Y-94846500D01*
X147835753Y-94864806D01*
G37*
G04 #@! TD.AperFunction*
G04 #@! TA.AperFunction,Conductor*
G36*
X142371938Y-90315306D02*
G01*
X142390244Y-90359500D01*
X142383893Y-90386950D01*
X142344539Y-90467448D01*
X142344539Y-90467449D01*
X142334500Y-90536354D01*
X142334500Y-91518326D01*
X142316194Y-91562520D01*
X142294405Y-91576672D01*
X141921246Y-91719966D01*
X141914978Y-91723553D01*
X141900121Y-91729673D01*
X141844821Y-91744491D01*
X141844815Y-91744494D01*
X141712682Y-91820782D01*
X141712673Y-91820789D01*
X141603769Y-91929694D01*
X141559575Y-91948000D01*
X141414000Y-91948000D01*
X141369806Y-91929694D01*
X141351500Y-91885500D01*
X141351500Y-90359500D01*
X141369806Y-90315306D01*
X141414000Y-90297000D01*
X142327744Y-90297000D01*
X142371938Y-90315306D01*
G37*
G04 #@! TD.AperFunction*
G04 #@! TA.AperFunction,Conductor*
G36*
X147312195Y-87331306D02*
G01*
X147330501Y-87375500D01*
X147330501Y-88175068D01*
X147345265Y-88249299D01*
X147345267Y-88249303D01*
X147401515Y-88333484D01*
X147485697Y-88389733D01*
X147485699Y-88389734D01*
X147559933Y-88404500D01*
X147887089Y-88404499D01*
X147931283Y-88422805D01*
X147949589Y-88466999D01*
X147931283Y-88511193D01*
X147561283Y-88881194D01*
X147517089Y-88899500D01*
X146409469Y-88899500D01*
X146365275Y-88881194D01*
X146346969Y-88837000D01*
X146349099Y-88820824D01*
X146375498Y-88722299D01*
X146375500Y-88722291D01*
X146375500Y-88569707D01*
X146375499Y-88569702D01*
X146360006Y-88511886D01*
X146352159Y-88482601D01*
X146350334Y-88472865D01*
X146347979Y-88466998D01*
X146336008Y-88422322D01*
X146318657Y-88392269D01*
X146314784Y-88384304D01*
X146306037Y-88362514D01*
X146254892Y-88235101D01*
X146255416Y-88187269D01*
X146268696Y-88167628D01*
X147105019Y-87331306D01*
X147149213Y-87313000D01*
X147268001Y-87313000D01*
X147312195Y-87331306D01*
G37*
G04 #@! TD.AperFunction*
G04 #@! TD*
G04 #@! TA.AperFunction,Conductor*
G04 #@! TO.N,GNDD*
G36*
X152799306Y-89172306D02*
G01*
X152973194Y-89346194D01*
X152991500Y-89390388D01*
X152991500Y-93616612D01*
X152973194Y-93660806D01*
X152799306Y-93834694D01*
X152755112Y-93853000D01*
X150012888Y-93853000D01*
X149968694Y-93834694D01*
X149751306Y-93617306D01*
X149733000Y-93573112D01*
X149733000Y-90783055D01*
X149986500Y-90783055D01*
X149986500Y-90786457D01*
X149986500Y-92959943D01*
X149986501Y-92959951D01*
X150021152Y-93089273D01*
X150021153Y-93089276D01*
X150088098Y-93205225D01*
X150088103Y-93205231D01*
X150182768Y-93299896D01*
X150182774Y-93299901D01*
X150298723Y-93366846D01*
X150298726Y-93366847D01*
X150428055Y-93401500D01*
X150428056Y-93401500D01*
X150561944Y-93401500D01*
X150561945Y-93401500D01*
X150691274Y-93366847D01*
X150807226Y-93299901D01*
X150901901Y-93205226D01*
X150968847Y-93089274D01*
X151003500Y-92959945D01*
X151003500Y-90783055D01*
X150994629Y-90749945D01*
X150992500Y-90733770D01*
X150992500Y-89637442D01*
X150985102Y-89600252D01*
X150985101Y-89600250D01*
X150956922Y-89558077D01*
X150914748Y-89529898D01*
X150877558Y-89522500D01*
X150112442Y-89522500D01*
X150093847Y-89526199D01*
X150075251Y-89529898D01*
X150075250Y-89529898D01*
X150033077Y-89558077D01*
X150004898Y-89600250D01*
X150004898Y-89600251D01*
X149997500Y-89637442D01*
X149997500Y-90733770D01*
X149995633Y-90747949D01*
X149995727Y-90748552D01*
X149995550Y-90749275D01*
X149986500Y-90783055D01*
X149733000Y-90783055D01*
X149733000Y-89433888D01*
X149751306Y-89389694D01*
X149968194Y-89172806D01*
X150011466Y-89154507D01*
X150011941Y-89154500D01*
X150037623Y-89154500D01*
X150038571Y-89154107D01*
X150045371Y-89154007D01*
X150045540Y-89154074D01*
X150046293Y-89154000D01*
X152755112Y-89154000D01*
X152799306Y-89172306D01*
G37*
G04 #@! TD.AperFunction*
G04 #@! TD*
G04 #@! TA.AperFunction,Conductor*
G04 #@! TO.N,+3.3V*
G36*
X152799306Y-85743306D02*
G01*
X152973194Y-85917194D01*
X152991500Y-85961388D01*
X152991500Y-87901612D01*
X152973194Y-87945806D01*
X152799306Y-88119694D01*
X152755112Y-88138000D01*
X151660910Y-88138000D01*
X151616716Y-88119694D01*
X151616690Y-88119668D01*
X151399610Y-87902332D01*
X151381330Y-87858128D01*
X151383519Y-86004864D01*
X151401850Y-85960721D01*
X151619548Y-85743279D01*
X151663716Y-85725000D01*
X152755112Y-85725000D01*
X152799306Y-85743306D01*
G37*
G04 #@! TD.AperFunction*
G04 #@! TD*
G04 #@! TA.AperFunction,Conductor*
G04 #@! TO.N,GNDA*
G36*
X144082755Y-99885596D02*
G01*
X143764000Y-99950000D01*
X143445245Y-99885596D01*
X143573500Y-99441000D01*
X143954500Y-99441000D01*
X144082755Y-99885596D01*
G37*
G04 #@! TD.AperFunction*
G04 #@! TD*
G04 #@! TA.AperFunction,Conductor*
G04 #@! TO.N,GNDA*
G36*
X140224228Y-98605560D02*
G01*
X140017500Y-99042413D01*
X139636500Y-99042413D01*
X139635245Y-98488404D01*
X139954000Y-98424000D01*
X140224228Y-98605560D01*
G37*
G04 #@! TD.AperFunction*
G04 #@! TD*
G04 #@! TA.AperFunction,Conductor*
G04 #@! TO.N,GNDA*
G36*
X143827404Y-99630245D02*
G01*
X143765000Y-99949000D01*
X143583440Y-100219228D01*
X143171212Y-99956500D01*
X143171212Y-99575500D01*
X143827404Y-99630245D01*
G37*
G04 #@! TD.AperFunction*
G04 #@! TD*
G04 #@! TA.AperFunction,Conductor*
G04 #@! TO.N,Net-(D1-A)*
G36*
X142898150Y-84167794D02*
G01*
X142902479Y-84169973D01*
X143424775Y-84432841D01*
X143430624Y-84439621D01*
X143429966Y-84448552D01*
X143429263Y-84449763D01*
X143258014Y-84707737D01*
X143254737Y-84711014D01*
X142996763Y-84882263D01*
X142987975Y-84883983D01*
X142980544Y-84878986D01*
X142979841Y-84877775D01*
X142860564Y-84640782D01*
X142714794Y-84351151D01*
X142714137Y-84342221D01*
X142716971Y-84337621D01*
X142884620Y-84169972D01*
X142892892Y-84166546D01*
X142898150Y-84167794D01*
G37*
G04 #@! TD.AperFunction*
G04 #@! TD*
G04 #@! TA.AperFunction,Conductor*
G04 #@! TO.N,Net-(D1-A)*
G36*
X143561824Y-84769791D02*
G01*
X143569255Y-84774788D01*
X143570975Y-84783576D01*
X143570616Y-84784930D01*
X143385653Y-85344726D01*
X143379804Y-85351506D01*
X143374544Y-85352755D01*
X143137456Y-85352755D01*
X143129183Y-85349328D01*
X143126347Y-85344726D01*
X142941383Y-84784928D01*
X142942041Y-84775999D01*
X142948821Y-84770150D01*
X142950166Y-84769793D01*
X143253684Y-84708468D01*
X143258316Y-84708468D01*
X143561824Y-84769791D01*
G37*
G04 #@! TD.AperFunction*
G04 #@! TD*
G04 #@! TA.AperFunction,Conductor*
G04 #@! TO.N,Net-(D1-K)*
G36*
X144643380Y-84166473D02*
G01*
X144811026Y-84334119D01*
X144814453Y-84342392D01*
X144813204Y-84347652D01*
X144548158Y-84874275D01*
X144541378Y-84880124D01*
X144532447Y-84879466D01*
X144531236Y-84878763D01*
X144273262Y-84707514D01*
X144269985Y-84704237D01*
X144098736Y-84446263D01*
X144097016Y-84437475D01*
X144102013Y-84430044D01*
X144103224Y-84429341D01*
X144629849Y-84164294D01*
X144638778Y-84163637D01*
X144643380Y-84166473D01*
G37*
G04 #@! TD.AperFunction*
G04 #@! TD*
G04 #@! TA.AperFunction,Conductor*
G04 #@! TO.N,Net-(D1-K)*
G36*
X138378918Y-86172379D02*
G01*
X138938726Y-86357347D01*
X138945506Y-86363196D01*
X138946755Y-86368456D01*
X138946755Y-86605543D01*
X138943328Y-86613816D01*
X138938726Y-86616652D01*
X138378930Y-86801616D01*
X138369999Y-86800958D01*
X138364150Y-86794178D01*
X138363791Y-86792824D01*
X138302468Y-86489317D01*
X138302468Y-86484683D01*
X138363791Y-86181173D01*
X138368788Y-86173744D01*
X138377576Y-86172024D01*
X138378918Y-86172379D01*
G37*
G04 #@! TD.AperFunction*
G04 #@! TD*
G04 #@! TA.AperFunction,Conductor*
G04 #@! TO.N,Net-(D1-K)*
G36*
X144577824Y-84766291D02*
G01*
X144585255Y-84771288D01*
X144586975Y-84780076D01*
X144586616Y-84781430D01*
X144401653Y-85341226D01*
X144395804Y-85348006D01*
X144390544Y-85349255D01*
X144153456Y-85349255D01*
X144145183Y-85345828D01*
X144142347Y-85341226D01*
X143957383Y-84781428D01*
X143958041Y-84772499D01*
X143964821Y-84766650D01*
X143966166Y-84766293D01*
X144269684Y-84704968D01*
X144274316Y-84704968D01*
X144577824Y-84766291D01*
G37*
G04 #@! TD.AperFunction*
G04 #@! TD*
G04 #@! TA.AperFunction,Conductor*
G04 #@! TO.N,VCC*
G36*
X145611541Y-90844092D02*
G01*
X145612475Y-90844790D01*
X145948099Y-91122991D01*
X145952281Y-91130909D01*
X145952332Y-91131999D01*
X145952332Y-91617979D01*
X145948905Y-91626252D01*
X145940632Y-91629679D01*
X145936748Y-91629015D01*
X145368098Y-91428880D01*
X145361431Y-91422901D01*
X145360500Y-91415596D01*
X145416235Y-91130909D01*
X145420507Y-91109084D01*
X145422277Y-91104808D01*
X145595305Y-90847277D01*
X145602763Y-90842323D01*
X145611541Y-90844092D01*
G37*
G04 #@! TD.AperFunction*
G04 #@! TD*
G04 #@! TA.AperFunction,Conductor*
G04 #@! TO.N,/AD_ID*
G36*
X145681830Y-87884449D02*
G01*
X145935200Y-88137819D01*
X145937785Y-88141733D01*
X146109512Y-88569535D01*
X146109414Y-88578490D01*
X146103013Y-88584752D01*
X146100956Y-88585365D01*
X145797600Y-88646243D01*
X145792986Y-88646241D01*
X145489448Y-88585055D01*
X145482015Y-88580061D01*
X145480291Y-88571274D01*
X145480451Y-88570585D01*
X145662254Y-87889701D01*
X145667698Y-87882595D01*
X145676575Y-87881418D01*
X145681830Y-87884449D01*
G37*
G04 #@! TD.AperFunction*
G04 #@! TD*
G04 #@! TA.AperFunction,Conductor*
G04 #@! TO.N,/SW_VRH*
G36*
X149088380Y-100679973D02*
G01*
X149256026Y-100847619D01*
X149259453Y-100855892D01*
X149258204Y-100861152D01*
X148993158Y-101387775D01*
X148986378Y-101393624D01*
X148977447Y-101392966D01*
X148976236Y-101392263D01*
X148718262Y-101221014D01*
X148714985Y-101217737D01*
X148543736Y-100959763D01*
X148542016Y-100950975D01*
X148547013Y-100943544D01*
X148548224Y-100942841D01*
X149074849Y-100677794D01*
X149083778Y-100677137D01*
X149088380Y-100679973D01*
G37*
G04 #@! TD.AperFunction*
G04 #@! TD*
G04 #@! TA.AperFunction,Conductor*
G04 #@! TO.N,/AD_IRP*
G36*
X145617918Y-93411379D02*
G01*
X146177726Y-93596347D01*
X146184506Y-93602196D01*
X146185755Y-93607456D01*
X146185755Y-93844543D01*
X146182328Y-93852816D01*
X146177726Y-93855652D01*
X145617930Y-94040616D01*
X145608999Y-94039958D01*
X145603150Y-94033178D01*
X145602791Y-94031824D01*
X145541468Y-93728317D01*
X145541468Y-93723683D01*
X145602791Y-93420173D01*
X145607788Y-93412744D01*
X145616576Y-93411024D01*
X145617918Y-93411379D01*
G37*
G04 #@! TD.AperFunction*
G04 #@! TD*
G04 #@! TA.AperFunction,Conductor*
G04 #@! TO.N,/AD_IIN*
G36*
X139266918Y-88585379D02*
G01*
X139826726Y-88770347D01*
X139833506Y-88776196D01*
X139834755Y-88781456D01*
X139834755Y-89018543D01*
X139831328Y-89026816D01*
X139826726Y-89029652D01*
X139266930Y-89214616D01*
X139257999Y-89213958D01*
X139252150Y-89207178D01*
X139251791Y-89205824D01*
X139190468Y-88902317D01*
X139190468Y-88897683D01*
X139251791Y-88594173D01*
X139256788Y-88586744D01*
X139265576Y-88585024D01*
X139266918Y-88585379D01*
G37*
G04 #@! TD.AperFunction*
G04 #@! TD*
G04 #@! TA.AperFunction,Conductor*
G04 #@! TO.N,/AD_IRN*
G36*
X142134455Y-93683013D02*
G01*
X142135158Y-93684224D01*
X142400204Y-94210847D01*
X142400862Y-94219778D01*
X142398026Y-94224380D01*
X142230380Y-94392026D01*
X142222107Y-94395453D01*
X142216847Y-94394204D01*
X141690224Y-94129158D01*
X141684375Y-94122378D01*
X141685033Y-94113447D01*
X141685730Y-94112244D01*
X141856987Y-93854259D01*
X141860259Y-93850987D01*
X142118237Y-93679735D01*
X142127024Y-93678016D01*
X142134455Y-93683013D01*
G37*
G04 #@! TD.AperFunction*
G04 #@! TD*
G04 #@! TA.AperFunction,Conductor*
G04 #@! TO.N,VREF*
G36*
X146834969Y-97617158D02*
G01*
X146984184Y-97787985D01*
X147196480Y-98031030D01*
X147199341Y-98039515D01*
X147195941Y-98047000D01*
X146939958Y-98302983D01*
X146931685Y-98306410D01*
X146926918Y-98305395D01*
X146709446Y-98208363D01*
X146704485Y-98204178D01*
X146703018Y-98201982D01*
X146627766Y-98151700D01*
X146561406Y-98138500D01*
X146555358Y-98138500D01*
X146550591Y-98137485D01*
X146390069Y-98065862D01*
X146383910Y-98059361D01*
X146384151Y-98050410D01*
X146385085Y-98048711D01*
X146555987Y-97791259D01*
X146559259Y-97787987D01*
X146819690Y-97615107D01*
X146828476Y-97613388D01*
X146834969Y-97617158D01*
G37*
G04 #@! TD.AperFunction*
G04 #@! TD*
G04 #@! TA.AperFunction,Conductor*
G04 #@! TO.N,/AD_REF+*
G36*
X142969150Y-96360623D02*
G01*
X142973479Y-96362802D01*
X143495775Y-96625670D01*
X143501624Y-96632450D01*
X143500966Y-96641381D01*
X143500263Y-96642592D01*
X143329014Y-96900566D01*
X143325737Y-96903843D01*
X143067763Y-97075092D01*
X143058975Y-97076812D01*
X143051544Y-97071815D01*
X143050841Y-97070604D01*
X142931564Y-96833611D01*
X142785794Y-96543980D01*
X142785137Y-96535050D01*
X142787971Y-96530450D01*
X142955620Y-96362801D01*
X142963892Y-96359375D01*
X142969150Y-96360623D01*
G37*
G04 #@! TD.AperFunction*
G04 #@! TD*
G04 #@! TA.AperFunction,Conductor*
G04 #@! TO.N,Net-(RN1-Pad6)*
G36*
X145222006Y-91970722D02*
G01*
X145226884Y-91978072D01*
X145288032Y-92280711D01*
X145286312Y-92289499D01*
X145286276Y-92289553D01*
X145113171Y-92547196D01*
X145105712Y-92552152D01*
X145098240Y-92551142D01*
X144788612Y-92396810D01*
X144784103Y-92392839D01*
X144780923Y-92388079D01*
X144780918Y-92388074D01*
X144738748Y-92359898D01*
X144701556Y-92352499D01*
X144701396Y-92352484D01*
X144701216Y-92352432D01*
X144700994Y-92352388D01*
X144700997Y-92352369D01*
X144697333Y-92351312D01*
X144659050Y-92332230D01*
X144653174Y-92325473D01*
X144652569Y-92321759D01*
X144652569Y-92084693D01*
X144655996Y-92076420D01*
X144662091Y-92073197D01*
X145213242Y-91968893D01*
X145222006Y-91970722D01*
G37*
G04 #@! TD.AperFunction*
G04 #@! TD*
G04 #@! TA.AperFunction,Conductor*
G04 #@! TO.N,/AD_REF-*
G36*
X143814882Y-96387125D02*
G01*
X144368678Y-96625233D01*
X144374925Y-96631649D01*
X144374806Y-96640603D01*
X144373805Y-96642453D01*
X144203014Y-96899737D01*
X144199737Y-96903014D01*
X143941092Y-97074708D01*
X143932304Y-97076428D01*
X143924873Y-97071431D01*
X143924520Y-97070865D01*
X143770654Y-96807648D01*
X143769458Y-96804779D01*
X143748663Y-96727170D01*
X143748662Y-96727169D01*
X143748662Y-96727167D01*
X143689092Y-96623990D01*
X143689088Y-96623985D01*
X143636621Y-96571518D01*
X143633194Y-96563245D01*
X143636621Y-96554972D01*
X143801991Y-96389601D01*
X143810263Y-96386175D01*
X143814882Y-96387125D01*
G37*
G04 #@! TD.AperFunction*
G04 #@! TD*
G04 #@! TA.AperFunction,Conductor*
G04 #@! TO.N,Net-(RN1-Pad5)*
G36*
X142480259Y-91786951D02*
G01*
X142483774Y-91789367D01*
X142651368Y-91956961D01*
X142654795Y-91965234D01*
X142652964Y-91971518D01*
X142345132Y-92455000D01*
X142337798Y-92460138D01*
X142328979Y-92458585D01*
X142328792Y-92458464D01*
X142071862Y-92287908D01*
X142066865Y-92280477D01*
X142066852Y-92280413D01*
X142006989Y-91975392D01*
X142008758Y-91966616D01*
X142014273Y-91962220D01*
X142471307Y-91786718D01*
X142480259Y-91786951D01*
G37*
G04 #@! TD.AperFunction*
G04 #@! TD*
G04 #@! TA.AperFunction,Conductor*
G04 #@! TO.N,Net-(RN1-Pad7)*
G36*
X143078209Y-89347972D02*
G01*
X143638107Y-89554676D01*
X143644681Y-89560756D01*
X143645755Y-89565652D01*
X143645755Y-89802724D01*
X143642328Y-89810997D01*
X143637331Y-89813956D01*
X143077626Y-89977190D01*
X143068724Y-89976217D01*
X143063118Y-89969234D01*
X143062882Y-89968275D01*
X143031104Y-89810997D01*
X143001468Y-89664316D01*
X143001468Y-89659683D01*
X143022114Y-89557500D01*
X143062699Y-89356632D01*
X143067695Y-89349203D01*
X143076483Y-89347483D01*
X143078209Y-89347972D01*
G37*
G04 #@! TD.AperFunction*
G04 #@! TD*
G04 #@! TA.AperFunction,Conductor*
G04 #@! TO.N,Net-(RN2-Pad7)*
G36*
X140718398Y-98714142D02*
G01*
X141268135Y-98922636D01*
X141274655Y-98928774D01*
X141275686Y-98933576D01*
X141275686Y-99295597D01*
X141272259Y-99303870D01*
X141264810Y-99307268D01*
X140715773Y-99346042D01*
X140707279Y-99343206D01*
X140703481Y-99336689D01*
X140641582Y-99030328D01*
X140641582Y-99025695D01*
X140702788Y-98722766D01*
X140707785Y-98715336D01*
X140716573Y-98713616D01*
X140718398Y-98714142D01*
G37*
G04 #@! TD.AperFunction*
G04 #@! TD*
G04 #@! TA.AperFunction,Conductor*
G04 #@! TO.N,Net-(RN2-Pad7)*
G36*
X140855724Y-98372414D02*
G01*
X141111707Y-98628397D01*
X141115134Y-98636670D01*
X141114509Y-98640443D01*
X140964165Y-99081739D01*
X140958253Y-99088465D01*
X140950837Y-99089447D01*
X140643724Y-99029173D01*
X140639448Y-99027401D01*
X140383583Y-98855319D01*
X140378630Y-98847858D01*
X140380403Y-98839081D01*
X140381767Y-98837409D01*
X140839179Y-98372547D01*
X140847423Y-98369054D01*
X140855724Y-98372414D01*
G37*
G04 #@! TD.AperFunction*
G04 #@! TD*
G04 #@! TA.AperFunction,Conductor*
G04 #@! TO.N,Net-(U3B--)*
G36*
X141182643Y-97372379D02*
G01*
X141742451Y-97557347D01*
X141749231Y-97563196D01*
X141750480Y-97568456D01*
X141750480Y-97805543D01*
X141747053Y-97813816D01*
X141742451Y-97816652D01*
X141182655Y-98001616D01*
X141173724Y-98000958D01*
X141167875Y-97994178D01*
X141167516Y-97992824D01*
X141106193Y-97689317D01*
X141106193Y-97684683D01*
X141167516Y-97381173D01*
X141172513Y-97373744D01*
X141181301Y-97372024D01*
X141182643Y-97372379D01*
G37*
G04 #@! TD.AperFunction*
G04 #@! TD*
G04 #@! TA.AperFunction,Conductor*
G04 #@! TO.N,Net-(U3B--)*
G36*
X144712711Y-97349344D02*
G01*
X144718806Y-97355905D01*
X144719307Y-97357665D01*
X144780531Y-97660683D01*
X144780531Y-97665317D01*
X144719111Y-97969305D01*
X144714114Y-97976736D01*
X144705326Y-97978456D01*
X144704394Y-97978228D01*
X144699232Y-97976736D01*
X144653034Y-97963382D01*
X144144696Y-97816442D01*
X144137700Y-97810852D01*
X144136245Y-97805202D01*
X144136245Y-97568133D01*
X144139672Y-97559860D01*
X144143868Y-97557166D01*
X144703765Y-97349015D01*
X144712711Y-97349344D01*
G37*
G04 #@! TD.AperFunction*
G04 #@! TD*
M02*
