G04 #@! TF.GenerationSoftware,KiCad,Pcbnew,9.0.3*
G04 #@! TF.CreationDate,2025-08-06T23:44:26+02:00*
G04 #@! TF.ProjectId,MADC,4d414443-2e6b-4696-9361-645f70636258,rev?*
G04 #@! TF.SameCoordinates,Original*
G04 #@! TF.FileFunction,Copper,L1,Top*
G04 #@! TF.FilePolarity,Positive*
%FSLAX46Y46*%
G04 Gerber Fmt 4.6, Leading zero omitted, Abs format (unit mm)*
G04 Created by KiCad (PCBNEW 9.0.3) date 2025-08-06 23:44:26*
%MOMM*%
%LPD*%
G01*
G04 APERTURE LIST*
G04 Aperture macros list*
%AMRoundRect*
0 Rectangle with rounded corners*
0 $1 Rounding radius*
0 $2 $3 $4 $5 $6 $7 $8 $9 X,Y pos of 4 corners*
0 Add a 4 corners polygon primitive as box body*
4,1,4,$2,$3,$4,$5,$6,$7,$8,$9,$2,$3,0*
0 Add four circle primitives for the rounded corners*
1,1,$1+$1,$2,$3*
1,1,$1+$1,$4,$5*
1,1,$1+$1,$6,$7*
1,1,$1+$1,$8,$9*
0 Add four rect primitives between the rounded corners*
20,1,$1+$1,$2,$3,$4,$5,0*
20,1,$1+$1,$4,$5,$6,$7,0*
20,1,$1+$1,$6,$7,$8,$9,0*
20,1,$1+$1,$8,$9,$2,$3,0*%
G04 Aperture macros list end*
G04 #@! TA.AperFunction,NonConductor*
%ADD10C,0.100000*%
G04 #@! TD*
%ADD11C,0.100000*%
G04 #@! TA.AperFunction,SMDPad,CuDef*
%ADD12RoundRect,0.155000X0.155000X-0.212500X0.155000X0.212500X-0.155000X0.212500X-0.155000X-0.212500X0*%
G04 #@! TD*
G04 #@! TA.AperFunction,SMDPad,CuDef*
%ADD13RoundRect,0.112500X0.187500X0.112500X-0.187500X0.112500X-0.187500X-0.112500X0.187500X-0.112500X0*%
G04 #@! TD*
G04 #@! TA.AperFunction,SMDPad,CuDef*
%ADD14RoundRect,0.160000X0.160000X-0.197500X0.160000X0.197500X-0.160000X0.197500X-0.160000X-0.197500X0*%
G04 #@! TD*
G04 #@! TA.AperFunction,SMDPad,CuDef*
%ADD15RoundRect,0.160000X0.197500X0.160000X-0.197500X0.160000X-0.197500X-0.160000X0.197500X-0.160000X0*%
G04 #@! TD*
G04 #@! TA.AperFunction,SMDPad,CuDef*
%ADD16RoundRect,0.100000X-0.100000X0.637500X-0.100000X-0.637500X0.100000X-0.637500X0.100000X0.637500X0*%
G04 #@! TD*
G04 #@! TA.AperFunction,SMDPad,CuDef*
%ADD17RoundRect,0.155000X0.212500X0.155000X-0.212500X0.155000X-0.212500X-0.155000X0.212500X-0.155000X0*%
G04 #@! TD*
G04 #@! TA.AperFunction,SMDPad,CuDef*
%ADD18RoundRect,0.225000X0.225000X0.250000X-0.225000X0.250000X-0.225000X-0.250000X0.225000X-0.250000X0*%
G04 #@! TD*
G04 #@! TA.AperFunction,SMDPad,CuDef*
%ADD19RoundRect,0.155000X-0.155000X0.212500X-0.155000X-0.212500X0.155000X-0.212500X0.155000X0.212500X0*%
G04 #@! TD*
G04 #@! TA.AperFunction,SMDPad,CuDef*
%ADD20RoundRect,0.160000X-0.160000X0.197500X-0.160000X-0.197500X0.160000X-0.197500X0.160000X0.197500X0*%
G04 #@! TD*
G04 #@! TA.AperFunction,SMDPad,CuDef*
%ADD21RoundRect,0.150000X0.150000X-0.512500X0.150000X0.512500X-0.150000X0.512500X-0.150000X-0.512500X0*%
G04 #@! TD*
G04 #@! TA.AperFunction,SMDPad,CuDef*
%ADD22RoundRect,0.100000X-0.637500X-0.100000X0.637500X-0.100000X0.637500X0.100000X-0.637500X0.100000X0*%
G04 #@! TD*
G04 #@! TA.AperFunction,SMDPad,CuDef*
%ADD23RoundRect,0.125000X-0.687500X-0.125000X0.687500X-0.125000X0.687500X0.125000X-0.687500X0.125000X0*%
G04 #@! TD*
G04 #@! TA.AperFunction,SMDPad,CuDef*
%ADD24RoundRect,0.150000X-0.512500X-0.150000X0.512500X-0.150000X0.512500X0.150000X-0.512500X0.150000X0*%
G04 #@! TD*
G04 #@! TA.AperFunction,SMDPad,CuDef*
%ADD25RoundRect,0.160000X-0.197500X-0.160000X0.197500X-0.160000X0.197500X0.160000X-0.197500X0.160000X0*%
G04 #@! TD*
G04 #@! TA.AperFunction,SMDPad,CuDef*
%ADD26RoundRect,0.100000X0.100000X-0.612500X0.100000X0.612500X-0.100000X0.612500X-0.100000X-0.612500X0*%
G04 #@! TD*
G04 #@! TA.AperFunction,HeatsinkPad*
%ADD27R,1.850000X1.730000*%
G04 #@! TD*
G04 #@! TA.AperFunction,SMDPad,CuDef*
%ADD28RoundRect,0.100000X-0.712500X-0.100000X0.712500X-0.100000X0.712500X0.100000X-0.712500X0.100000X0*%
G04 #@! TD*
G04 #@! TA.AperFunction,ViaPad*
%ADD29C,0.650000*%
G04 #@! TD*
G04 #@! TA.AperFunction,Conductor*
%ADD30C,0.508000*%
G04 #@! TD*
G04 #@! TA.AperFunction,Conductor*
%ADD31C,0.635000*%
G04 #@! TD*
G04 #@! TA.AperFunction,Conductor*
%ADD32C,0.381000*%
G04 #@! TD*
G04 #@! TA.AperFunction,Conductor*
%ADD33C,0.254000*%
G04 #@! TD*
G04 APERTURE END LIST*
D10*
X135636000Y-83566000D02*
X136525000Y-83566000D01*
X136525000Y-84582000D01*
X135636000Y-84582000D01*
X135636000Y-83566000D01*
X138303000Y-83566000D02*
X139192000Y-83566000D01*
X139192000Y-84582000D01*
X138303000Y-84582000D01*
X138303000Y-83566000D01*
X137414000Y-83566000D02*
X138303000Y-83566000D01*
X138303000Y-84582000D01*
X137414000Y-84582000D01*
X137414000Y-83566000D01*
X136525000Y-83566000D02*
X137414000Y-83566000D01*
X137414000Y-84582000D01*
X136525000Y-84582000D01*
X136525000Y-83566000D01*
D11*
D10*
X135952608Y-83812409D02*
X136238322Y-83812409D01*
X136095465Y-84312409D02*
X136095465Y-83812409D01*
D12*
G04 #@! TO.P,C6,1*
G04 #@! TO.N,GNDA*
X134874000Y-92134500D03*
G04 #@! TO.P,C6,2*
G04 #@! TO.N,Net-(U4-V+)*
X134874000Y-90999500D03*
G04 #@! TD*
D13*
G04 #@! TO.P,D1,1,K*
G04 #@! TO.N,Net-(D1-K)*
X144814000Y-84201000D03*
G04 #@! TO.P,D1,2,A*
G04 #@! TO.N,Net-(D1-A)*
X142714000Y-84201000D03*
G04 #@! TD*
D14*
G04 #@! TO.P,R12,1*
G04 #@! TO.N,Net-(R10-Pad2)*
X150241000Y-97244500D03*
G04 #@! TO.P,R12,2*
G04 #@! TO.N,/AD_CMP*
X150241000Y-96049500D03*
G04 #@! TD*
D15*
G04 #@! TO.P,R2,1*
G04 #@! TO.N,Net-(U4-V-)*
X136487500Y-93472000D03*
G04 #@! TO.P,R2,2*
G04 #@! TO.N,VEE*
X135292500Y-93472000D03*
G04 #@! TD*
D12*
G04 #@! TO.P,C15,1*
G04 #@! TO.N,Net-(U6-V-)*
X149352000Y-87054500D03*
G04 #@! TO.P,C15,2*
G04 #@! TO.N,+3.3V*
X149352000Y-85919500D03*
G04 #@! TD*
D16*
G04 #@! TO.P,U6,1,GND*
G04 #@! TO.N,GNDD*
X151343000Y-88701000D03*
G04 #@! TO.P,U6,2,+*
G04 #@! TO.N,Net-(U6-+)*
X150693000Y-88701000D03*
G04 #@! TO.P,U6,3,-*
G04 #@! TO.N,Net-(U6--)*
X150043000Y-88701000D03*
G04 #@! TO.P,U6,4,V-*
G04 #@! TO.N,Net-(U6-V-)*
X149393000Y-88701000D03*
G04 #@! TO.P,U6,5,BAL*
G04 #@! TO.N,Net-(U6-BAL)*
X149393000Y-94426000D03*
G04 #@! TO.P,U6,6,STRB*
G04 #@! TO.N,unconnected-(U6-STRB-Pad6)*
X150043000Y-94426000D03*
G04 #@! TO.P,U6,7*
G04 #@! TO.N,/AD_CMP*
X150693000Y-94426000D03*
G04 #@! TO.P,U6,8,V+*
G04 #@! TO.N,+3.3V*
X151343000Y-94426000D03*
G04 #@! TD*
D17*
G04 #@! TO.P,C7,1*
G04 #@! TO.N,GNDA*
X138743500Y-93472000D03*
G04 #@! TO.P,C7,2*
G04 #@! TO.N,Net-(U4-V-)*
X137608500Y-93472000D03*
G04 #@! TD*
D14*
G04 #@! TO.P,R11,1*
G04 #@! TO.N,Net-(R10-Pad2)*
X149225000Y-97244500D03*
G04 #@! TO.P,R11,2*
G04 #@! TO.N,Net-(U6-BAL)*
X149225000Y-96049500D03*
G04 #@! TD*
G04 #@! TO.P,R9,1*
G04 #@! TO.N,Net-(U6-V-)*
X148336000Y-87084500D03*
G04 #@! TO.P,R9,2*
G04 #@! TO.N,VEE*
X148336000Y-85889500D03*
G04 #@! TD*
D18*
G04 #@! TO.P,C8,1*
G04 #@! TO.N,Net-(U4--)*
X137935000Y-88138000D03*
G04 #@! TO.P,C8,2*
G04 #@! TO.N,Net-(C8-Pad2)*
X136385000Y-88138000D03*
G04 #@! TD*
D12*
G04 #@! TO.P,C11,1*
G04 #@! TO.N,GNDA*
X139446000Y-92134500D03*
G04 #@! TO.P,C11,2*
G04 #@! TO.N,VEE*
X139446000Y-90999500D03*
G04 #@! TD*
G04 #@! TO.P,C16,1*
G04 #@! TO.N,GNDD*
X152273000Y-97214500D03*
G04 #@! TO.P,C16,2*
G04 #@! TO.N,+3.3V*
X152273000Y-96079500D03*
G04 #@! TD*
G04 #@! TO.P,C12,1*
G04 #@! TO.N,GNDA*
X147320000Y-87054500D03*
G04 #@! TO.P,C12,2*
G04 #@! TO.N,Net-(U5-V+)*
X147320000Y-85919500D03*
G04 #@! TD*
G04 #@! TO.P,C1,1*
G04 #@! TO.N,GNDD*
X148082000Y-92769500D03*
G04 #@! TO.P,C1,2*
G04 #@! TO.N,+3.3V*
X148082000Y-91634500D03*
G04 #@! TD*
D19*
G04 #@! TO.P,C4,1*
G04 #@! TO.N,GNDA*
X139827000Y-99381500D03*
G04 #@! TO.P,C4,2*
G04 #@! TO.N,VCC*
X139827000Y-100516500D03*
G04 #@! TD*
D20*
G04 #@! TO.P,R10,1*
G04 #@! TO.N,+3.3V*
X151257000Y-96049500D03*
G04 #@! TO.P,R10,2*
G04 #@! TO.N,Net-(R10-Pad2)*
X151257000Y-97244500D03*
G04 #@! TD*
G04 #@! TO.P,R8,1*
G04 #@! TO.N,Net-(D1-A)*
X151384000Y-85889500D03*
G04 #@! TO.P,R8,2*
G04 #@! TO.N,Net-(U6-+)*
X151384000Y-87084500D03*
G04 #@! TD*
D17*
G04 #@! TO.P,C2,1*
G04 #@! TO.N,GNDD*
X147252500Y-101346000D03*
G04 #@! TO.P,C2,2*
G04 #@! TO.N,+3.3V*
X146117500Y-101346000D03*
G04 #@! TD*
D21*
G04 #@! TO.P,U4,1*
G04 #@! TO.N,Net-(C8-Pad2)*
X136210000Y-92069500D03*
G04 #@! TO.P,U4,2,V-*
G04 #@! TO.N,Net-(U4-V-)*
X137160000Y-92069500D03*
G04 #@! TO.P,U4,3,+*
G04 #@! TO.N,GNDA*
X138110000Y-92069500D03*
G04 #@! TO.P,U4,4,-*
G04 #@! TO.N,Net-(U4--)*
X138110000Y-89794500D03*
G04 #@! TO.P,U4,5,V+*
G04 #@! TO.N,Net-(U4-V+)*
X136210000Y-89794500D03*
G04 #@! TD*
D22*
G04 #@! TO.P,U1,1*
G04 #@! TO.N,/AD_IIN*
X140901500Y-89034500D03*
G04 #@! TO.P,U1,2*
G04 #@! TO.N,Net-(RN1-Pad7)*
X140901500Y-89684500D03*
G04 #@! TO.P,U1,3*
G04 #@! TO.N,Net-(U4--)*
X140901500Y-90334500D03*
G04 #@! TO.P,U1,4,V-*
G04 #@! TO.N,VEE*
X140901500Y-90984500D03*
G04 #@! TO.P,U1,5,GND*
G04 #@! TO.N,GNDA*
X140901500Y-91634500D03*
G04 #@! TO.P,U1,6*
G04 #@! TO.N,Net-(RN1-Pad5)*
X140901500Y-92284500D03*
G04 #@! TO.P,U1,7*
G04 #@! TO.N,Net-(U4--)*
X140901500Y-92934500D03*
G04 #@! TO.P,U1,8*
G04 #@! TO.N,/AD_IRN*
X140901500Y-93584500D03*
G04 #@! TO.P,U1,9*
G04 #@! TO.N,/AD_IRP*
X146626500Y-93584500D03*
G04 #@! TO.P,U1,10*
G04 #@! TO.N,Net-(U4--)*
X146626500Y-92934500D03*
G04 #@! TO.P,U1,11*
G04 #@! TO.N,Net-(RN1-Pad6)*
X146626500Y-92284500D03*
G04 #@! TO.P,U1,12,VL*
G04 #@! TO.N,+3.3V*
X146626500Y-91634500D03*
G04 #@! TO.P,U1,13,V+*
G04 #@! TO.N,VCC*
X146626500Y-90984500D03*
G04 #@! TO.P,U1,14*
G04 #@! TO.N,Net-(U4--)*
X146626500Y-90334500D03*
G04 #@! TO.P,U1,15*
G04 #@! TO.N,Net-(C8-Pad2)*
X146626500Y-89684500D03*
G04 #@! TO.P,U1,16*
G04 #@! TO.N,/AD_ID*
X146626500Y-89034500D03*
G04 #@! TD*
D23*
G04 #@! TO.P,U3,1*
G04 #@! TO.N,/AD_REF+*
X141651500Y-94910000D03*
G04 #@! TO.P,U3,2,-*
X141651500Y-95560000D03*
G04 #@! TO.P,U3,3,+*
G04 #@! TO.N,Net-(U3A-+)*
X141651500Y-96210000D03*
G04 #@! TO.P,U3,4,V-*
G04 #@! TO.N,VEE*
X141651500Y-96860000D03*
G04 #@! TO.P,U3,5,+*
G04 #@! TO.N,GNDA*
X145876500Y-96860000D03*
G04 #@! TO.P,U3,6,-*
G04 #@! TO.N,Net-(U3B--)*
X145876500Y-96210000D03*
G04 #@! TO.P,U3,7*
G04 #@! TO.N,/AD_REF-*
X145876500Y-95560000D03*
G04 #@! TO.P,U3,8,V+*
G04 #@! TO.N,VCC*
X145876500Y-94910000D03*
G04 #@! TD*
D19*
G04 #@! TO.P,C13,1*
G04 #@! TO.N,GNDA*
X140081000Y-85662000D03*
G04 #@! TO.P,C13,2*
G04 #@! TO.N,Net-(U5-V-)*
X140081000Y-86797000D03*
G04 #@! TD*
D12*
G04 #@! TO.P,C3,1*
G04 #@! TO.N,GNDA*
X147447000Y-96068000D03*
G04 #@! TO.P,C3,2*
G04 #@! TO.N,VCC*
X147447000Y-94933000D03*
G04 #@! TD*
D24*
G04 #@! TO.P,U5,1*
G04 #@! TO.N,Net-(D1-A)*
X142626500Y-85918000D03*
G04 #@! TO.P,U5,2,V-*
G04 #@! TO.N,Net-(U5-V-)*
X142626500Y-86868000D03*
G04 #@! TO.P,U5,3,+*
G04 #@! TO.N,GNDA*
X142626500Y-87818000D03*
G04 #@! TO.P,U5,4,-*
G04 #@! TO.N,Net-(D1-K)*
X144901500Y-87818000D03*
G04 #@! TO.P,U5,5,V+*
G04 #@! TO.N,Net-(U5-V+)*
X144901500Y-85918000D03*
G04 #@! TD*
D25*
G04 #@! TO.P,R3,1*
G04 #@! TO.N,Net-(C8-Pad2)*
X136562500Y-86487000D03*
G04 #@! TO.P,R3,2*
G04 #@! TO.N,Net-(D1-K)*
X137757500Y-86487000D03*
G04 #@! TD*
D19*
G04 #@! TO.P,C9,1*
G04 #@! TO.N,GNDA*
X140081000Y-95317500D03*
G04 #@! TO.P,C9,2*
G04 #@! TO.N,VEE*
X140081000Y-96452500D03*
G04 #@! TD*
D26*
G04 #@! TO.P,RN3,1*
G04 #@! TO.N,/AD_REF-*
X136058000Y-99317500D03*
G04 #@! TO.P,RN3,2*
X136708000Y-99317500D03*
G04 #@! TO.P,RN3,3*
G04 #@! TO.N,/AD_REF+*
X137358000Y-99317500D03*
G04 #@! TO.P,RN3,4*
X138008000Y-99317500D03*
G04 #@! TO.P,RN3,5*
G04 #@! TO.N,Net-(U3B--)*
X138008000Y-94992500D03*
G04 #@! TO.P,RN3,6*
X137358000Y-94992500D03*
G04 #@! TO.P,RN3,7*
X136708000Y-94992500D03*
G04 #@! TO.P,RN3,8*
X136058000Y-94992500D03*
D27*
G04 #@! TO.P,RN3,9,EP*
G04 #@! TO.N,GNDA*
X137033000Y-97155000D03*
G04 #@! TD*
D20*
G04 #@! TO.P,R1,1*
G04 #@! TO.N,VCC*
X134874000Y-88687000D03*
G04 #@! TO.P,R1,2*
G04 #@! TO.N,Net-(U4-V+)*
X134874000Y-89882000D03*
G04 #@! TD*
D14*
G04 #@! TO.P,R7,1*
G04 #@! TO.N,Net-(U6--)*
X150368000Y-87084500D03*
G04 #@! TO.P,R7,2*
G04 #@! TO.N,GNDA*
X150368000Y-85889500D03*
G04 #@! TD*
D19*
G04 #@! TO.P,C10,1*
G04 #@! TO.N,GNDA*
X147447000Y-97984500D03*
G04 #@! TO.P,C10,2*
G04 #@! TO.N,VEE*
X147447000Y-99119500D03*
G04 #@! TD*
D28*
G04 #@! TO.P,U2,1*
G04 #@! TO.N,Net-(U3A-+)*
X141651500Y-98462500D03*
G04 #@! TO.P,U2,2*
G04 #@! TO.N,Net-(RN2-Pad7)*
X141651500Y-99112500D03*
G04 #@! TO.P,U2,3,GND*
G04 #@! TO.N,GNDA*
X141651500Y-99762500D03*
G04 #@! TO.P,U2,4,V+*
G04 #@! TO.N,VCC*
X141651500Y-100412500D03*
G04 #@! TO.P,U2,5,VL*
G04 #@! TO.N,+3.3V*
X145876500Y-100412500D03*
G04 #@! TO.P,U2,6*
G04 #@! TO.N,/SW_VRH*
X145876500Y-99762500D03*
G04 #@! TO.P,U2,7,V-*
G04 #@! TO.N,VEE*
X145876500Y-99112500D03*
G04 #@! TO.P,U2,8*
G04 #@! TO.N,VREF*
X145876500Y-98462500D03*
G04 #@! TD*
D14*
G04 #@! TO.P,R5,1*
G04 #@! TO.N,VCC*
X146304000Y-87084500D03*
G04 #@! TO.P,R5,2*
G04 #@! TO.N,Net-(U5-V+)*
X146304000Y-85889500D03*
G04 #@! TD*
G04 #@! TO.P,R6,1*
G04 #@! TO.N,Net-(U5-V-)*
X141097000Y-86827000D03*
G04 #@! TO.P,R6,2*
G04 #@! TO.N,VEE*
X141097000Y-85632000D03*
G04 #@! TD*
D29*
G04 #@! TO.N,+3.3V*
X145923000Y-102108000D03*
X152527000Y-87122000D03*
X152273000Y-95504000D03*
X149352000Y-85086500D03*
X152527000Y-86233000D03*
G04 #@! TO.N,GNDA*
X143256000Y-93726000D03*
X140081000Y-94361000D03*
X147462857Y-96976980D03*
X139954000Y-98425000D03*
X144272000Y-93726000D03*
X135255000Y-101854000D03*
X140081000Y-84709000D03*
X134874000Y-84074000D03*
X142113000Y-91313000D03*
X143764000Y-99949000D03*
X150368000Y-85086500D03*
X138049000Y-91059000D03*
X135763000Y-90932000D03*
X146304000Y-84836000D03*
X135255000Y-100838000D03*
X134874000Y-85471000D03*
X147056000Y-88265000D03*
X143764000Y-98933000D03*
X141351000Y-87757000D03*
G04 #@! TO.N,Net-(D1-A)*
X143256000Y-84709000D03*
G04 #@! TO.N,Net-(D1-K)*
X144272000Y-84705500D03*
X138303000Y-86487000D03*
G04 #@! TO.N,VCC*
X145796000Y-86868000D03*
X148336000Y-95250000D03*
X137795000Y-101854000D03*
X145421961Y-91106767D03*
X140144500Y-101058500D03*
X134874000Y-87884000D03*
G04 #@! TO.N,VEE*
X140036000Y-97110000D03*
X148022500Y-99119500D03*
X141097000Y-84959500D03*
X147955000Y-85090000D03*
X139092969Y-90395138D03*
X135610128Y-93949780D03*
G04 #@! TO.N,/AD_ID*
X145796000Y-88646000D03*
G04 #@! TO.N,GNDD*
X152527000Y-89916000D03*
X152527000Y-91059000D03*
X152273000Y-98298000D03*
X152273000Y-101854000D03*
X147829500Y-93472000D03*
G04 #@! TO.N,/SW_VRH*
X148717000Y-101219000D03*
G04 #@! TO.N,/AD_IRP*
X145542000Y-93726000D03*
G04 #@! TO.N,/AD_IIN*
X139191000Y-88900000D03*
G04 #@! TO.N,/AD_CMP*
X150495000Y-92893000D03*
G04 #@! TO.N,/AD_IRN*
X141859000Y-93853000D03*
G04 #@! TO.N,VREF*
X146558000Y-97790000D03*
G04 #@! TO.N,/AD_REF+*
X143327000Y-96901829D03*
G04 #@! TO.N,Net-(RN1-Pad6)*
X145288000Y-92285500D03*
G04 #@! TO.N,/AD_REF-*
X144201000Y-96901000D03*
G04 #@! TO.N,Net-(RN1-Pad5)*
X142068500Y-92284500D03*
G04 #@! TO.N,Net-(RN1-Pad7)*
X143002000Y-89662000D03*
G04 #@! TO.N,Net-(RN2-Pad7)*
X140642114Y-99028012D03*
G04 #@! TO.N,Net-(U3B--)*
X141106725Y-97687000D03*
X144780000Y-97663000D03*
G04 #@! TD*
D30*
G04 #@! TO.N,+3.3V*
X152273000Y-95504000D02*
X152273000Y-96079500D01*
X149352000Y-85919500D02*
X149352000Y-85086500D01*
X146117500Y-101913500D02*
X146117500Y-101346000D01*
D31*
X151398500Y-96049500D02*
X151257000Y-96049500D01*
D30*
X152243000Y-96049500D02*
X151511000Y-96049500D01*
D32*
X146626500Y-91634500D02*
X150689500Y-91634500D01*
D30*
X152273000Y-95833000D02*
X152273000Y-96079500D01*
D32*
X151343000Y-92288000D02*
X151343000Y-94426000D01*
D30*
X152273000Y-96079500D02*
X152243000Y-96049500D01*
X145923000Y-102108000D02*
X146117500Y-101913500D01*
D31*
X146061500Y-101290000D02*
X146061500Y-100597500D01*
D30*
X146117500Y-101346000D02*
X146061500Y-101290000D01*
D32*
X151343000Y-94426000D02*
X151343000Y-95336000D01*
X151257000Y-95422000D02*
X151257000Y-96049500D01*
X151343000Y-95336000D02*
X151257000Y-95422000D01*
X151257000Y-96049500D02*
X151511000Y-96049500D01*
X150689500Y-91634500D02*
X151343000Y-92288000D01*
G04 #@! TO.N,GNDA*
X141651500Y-99762500D02*
X140208000Y-99762500D01*
X139946000Y-91634500D02*
X139446000Y-92134500D01*
X147345877Y-96860000D02*
X147462857Y-96976980D01*
X138684000Y-93472000D02*
X138110000Y-92898000D01*
X138743500Y-93472000D02*
X138684000Y-93472000D01*
D31*
X150368000Y-85889500D02*
X150368000Y-85086500D01*
D32*
X147447000Y-96961123D02*
X147462857Y-96976980D01*
D31*
X147320000Y-88001000D02*
X147320000Y-87054500D01*
D32*
X147056000Y-88265000D02*
X147320000Y-88001000D01*
X147447000Y-96992837D02*
X147462857Y-96976980D01*
X140901500Y-91634500D02*
X141791500Y-91634500D01*
X140208000Y-99762500D02*
X139827000Y-99381500D01*
X141791500Y-91634500D02*
X142113000Y-91313000D01*
X138110000Y-92898000D02*
X138110000Y-92069500D01*
X140901500Y-91634500D02*
X139946000Y-91634500D01*
D30*
X145876500Y-96860000D02*
X147345877Y-96860000D01*
D33*
G04 #@! TO.N,Net-(D1-A)*
X143256000Y-84709000D02*
X143222000Y-84709000D01*
X151384000Y-84709000D02*
X151384000Y-85889500D01*
X145542000Y-83820000D02*
X150495000Y-83820000D01*
X142714000Y-84201000D02*
X143279000Y-83636000D01*
X143222000Y-84709000D02*
X142714000Y-84201000D01*
X150495000Y-83820000D02*
X151384000Y-84709000D01*
X142626500Y-85338500D02*
X142626500Y-85918000D01*
X143279000Y-83636000D02*
X145358000Y-83636000D01*
X145358000Y-83636000D02*
X145542000Y-83820000D01*
X143256000Y-84709000D02*
X142626500Y-85338500D01*
G04 #@! TO.N,Net-(D1-K)*
X144814000Y-84201000D02*
X144776500Y-84201000D01*
X143891000Y-85086500D02*
X144272000Y-84705500D01*
X144901500Y-87818000D02*
X144460000Y-87818000D01*
X143891000Y-87249000D02*
X143891000Y-85086500D01*
X144460000Y-87818000D02*
X143891000Y-87249000D01*
X144776500Y-84201000D02*
X144272000Y-84705500D01*
D31*
X138303000Y-86487000D02*
X137757500Y-86487000D01*
D33*
G04 #@! TO.N,VCC*
X139827000Y-100711000D02*
X139827000Y-100516500D01*
X140144500Y-101058500D02*
X140144500Y-101028500D01*
X139827000Y-100538000D02*
X139931000Y-100434000D01*
D30*
X147996000Y-94910000D02*
X145801000Y-94910000D01*
D33*
X140144500Y-101028500D02*
X139827000Y-100711000D01*
D32*
X145668902Y-90984500D02*
X146626500Y-90984500D01*
D30*
X145801000Y-94910000D02*
X145797500Y-94906500D01*
D32*
X141651500Y-100412500D02*
X139931000Y-100412500D01*
D31*
X146304000Y-87084500D02*
X146012500Y-87084500D01*
D33*
X139827000Y-100711000D02*
X139827000Y-100538000D01*
D31*
X134874000Y-88687000D02*
X134874000Y-87884000D01*
D32*
X145421961Y-91106767D02*
X145523888Y-91004840D01*
D30*
X148336000Y-95250000D02*
X147996000Y-94910000D01*
D33*
X139931000Y-100412500D02*
X139827000Y-100516500D01*
D32*
X145523888Y-91004840D02*
X145648562Y-91004840D01*
X145648562Y-91004840D02*
X145668902Y-90984500D01*
D33*
X139931000Y-100434000D02*
X139931000Y-100412500D01*
D31*
X146012500Y-87084500D02*
X145796000Y-86868000D01*
D30*
G04 #@! TO.N,VEE*
X140081000Y-96452500D02*
X140081000Y-97065000D01*
X148336000Y-85889500D02*
X148336000Y-85471000D01*
D31*
X135610128Y-93949780D02*
X135292500Y-93632152D01*
X148022500Y-99119500D02*
X147447000Y-99119500D01*
D32*
X140901500Y-90984500D02*
X139461000Y-90984500D01*
D30*
X141633500Y-96842000D02*
X140750530Y-96842000D01*
D32*
X139461000Y-90984500D02*
X139446000Y-90999500D01*
D30*
X139065000Y-90805000D02*
X139065000Y-90423107D01*
X140750530Y-96842000D02*
X140361030Y-96452500D01*
X148336000Y-85471000D02*
X147955000Y-85090000D01*
X139065000Y-90423107D02*
X139092969Y-90395138D01*
D32*
X145876500Y-99112500D02*
X147440000Y-99112500D01*
D31*
X141097000Y-85632000D02*
X141097000Y-84959500D01*
X135292500Y-93632152D02*
X135292500Y-93472000D01*
D32*
X147440000Y-99112500D02*
X147447000Y-99119500D01*
D30*
X139259500Y-90999500D02*
X139065000Y-90805000D01*
X140361030Y-96452500D02*
X140081000Y-96452500D01*
X139446000Y-90999500D02*
X139259500Y-90999500D01*
X141651500Y-96860000D02*
X141633500Y-96842000D01*
X140081000Y-97065000D02*
X140036000Y-97110000D01*
D32*
G04 #@! TO.N,/AD_ID*
X145796000Y-88646000D02*
X146184500Y-89034500D01*
X146184500Y-89034500D02*
X146626500Y-89034500D01*
D31*
G04 #@! TO.N,GNDD*
X148082000Y-92769500D02*
X148082000Y-93219500D01*
X148082000Y-93219500D02*
X147829500Y-93472000D01*
D33*
X147829500Y-93472000D02*
X147964170Y-93472000D01*
G04 #@! TO.N,/SW_VRH*
X147260500Y-99762500D02*
X145876500Y-99762500D01*
X148717000Y-101219000D02*
X147260500Y-99762500D01*
G04 #@! TO.N,/AD_IRP*
X145542000Y-93599000D02*
X145542000Y-93726000D01*
D32*
X146626500Y-93584500D02*
X145556500Y-93584500D01*
D33*
X145556500Y-93584500D02*
X145542000Y-93599000D01*
D32*
G04 #@! TO.N,/AD_IIN*
X139191000Y-88900000D02*
X139325500Y-89034500D01*
X139325500Y-89034500D02*
X140901500Y-89034500D01*
G04 #@! TO.N,/AD_CMP*
X150693000Y-93091000D02*
X150693000Y-94426000D01*
X150495000Y-92893000D02*
X150693000Y-93091000D01*
X150241000Y-95662750D02*
X150693000Y-95210750D01*
X150241000Y-96049500D02*
X150241000Y-95662750D01*
X150693000Y-95210750D02*
X150693000Y-94426000D01*
G04 #@! TO.N,/AD_IRN*
X141590500Y-93584500D02*
X140901500Y-93584500D01*
X141859000Y-93853000D02*
X141590500Y-93584500D01*
G04 #@! TO.N,VREF*
X146558000Y-97790000D02*
X145885500Y-98462500D01*
X145885500Y-98462500D02*
X145876500Y-98462500D01*
D33*
G04 #@! TO.N,/AD_REF+*
X143327000Y-98171000D02*
X143002000Y-98496000D01*
X143002000Y-98496000D02*
X143002000Y-100584000D01*
X142748000Y-95250000D02*
X143129000Y-95250000D01*
X138008000Y-99317500D02*
X138008000Y-98638000D01*
X142565000Y-95560000D02*
X141651500Y-95560000D01*
X138008000Y-98638000D02*
X137795000Y-98425000D01*
X139446000Y-101727000D02*
X138008000Y-100289000D01*
X137358000Y-98607999D02*
X137358000Y-99317500D01*
X143129000Y-95250000D02*
X143327000Y-95448000D01*
X137540999Y-98425000D02*
X137358000Y-98607999D01*
X141651500Y-94910000D02*
X142535000Y-94910000D01*
X142748000Y-95250000D02*
X142748000Y-95377000D01*
X143327000Y-96901829D02*
X143327000Y-98171000D01*
X138008000Y-100289000D02*
X138008000Y-99317500D01*
X143002000Y-100584000D02*
X141859000Y-101727000D01*
X142748000Y-95123000D02*
X142748000Y-95250000D01*
X141859000Y-101727000D02*
X139446000Y-101727000D01*
X143327000Y-95448000D02*
X143327000Y-96901829D01*
X142748000Y-95377000D02*
X142565000Y-95560000D01*
X137795000Y-98425000D02*
X137540999Y-98425000D01*
X142535000Y-94910000D02*
X142748000Y-95123000D01*
D32*
G04 #@! TO.N,Net-(RN1-Pad6)*
X145288000Y-92285500D02*
X145289000Y-92284500D01*
X145289000Y-92284500D02*
X146626500Y-92284500D01*
D33*
G04 #@! TO.N,/AD_REF-*
X136708000Y-100259000D02*
X137287000Y-100838000D01*
X137795000Y-100838000D02*
X139192000Y-102235000D01*
X142494000Y-102235000D02*
X144526000Y-100203000D01*
X136708000Y-99317500D02*
X136708000Y-100259000D01*
X136708000Y-98608000D02*
X136708000Y-99317500D01*
X136058000Y-98638000D02*
X136271000Y-98425000D01*
X136271000Y-98425000D02*
X136525000Y-98425000D01*
X144526000Y-98425000D02*
X144201000Y-98100000D01*
X137287000Y-100838000D02*
X137795000Y-100838000D01*
X144526000Y-100203000D02*
X144526000Y-98425000D01*
X144201000Y-96083000D02*
X144724000Y-95560000D01*
X144201000Y-98100000D02*
X144201000Y-96901000D01*
X144724000Y-95560000D02*
X145876500Y-95560000D01*
X144201000Y-96901000D02*
X144201000Y-96083000D01*
X136058000Y-99317500D02*
X136058000Y-98638000D01*
X136525000Y-98425000D02*
X136708000Y-98608000D01*
X139192000Y-102235000D02*
X142494000Y-102235000D01*
D32*
G04 #@! TO.N,Net-(RN1-Pad5)*
X142068500Y-92284500D02*
X140901500Y-92284500D01*
G04 #@! TO.N,Net-(RN1-Pad7)*
X142979500Y-89684500D02*
X143002000Y-89662000D01*
X140901500Y-89684500D02*
X142979500Y-89684500D01*
D31*
G04 #@! TO.N,Net-(U4-V+)*
X134874000Y-90999500D02*
X134874000Y-89882000D01*
X134874000Y-89882000D02*
X136122500Y-89882000D01*
G04 #@! TO.N,Net-(U4-V-)*
X137160000Y-93472000D02*
X136487500Y-93472000D01*
X137608500Y-93472000D02*
X137160000Y-93472000D01*
X137160000Y-92069500D02*
X137160000Y-93472000D01*
D33*
G04 #@! TO.N,Net-(U4--)*
X140049037Y-90334500D02*
X139503537Y-89789000D01*
D32*
X140901500Y-90334500D02*
X143764000Y-90334500D01*
D33*
X138110000Y-88313000D02*
X137935000Y-88138000D01*
D30*
X138110000Y-89794500D02*
X138110000Y-88313000D01*
D32*
X143764000Y-92934500D02*
X143764000Y-90334500D01*
D33*
X140901500Y-90334500D02*
X140049037Y-90334500D01*
X139503537Y-89789000D02*
X138115500Y-89789000D01*
D32*
X140901500Y-92934500D02*
X143764000Y-92934500D01*
X143764000Y-90334500D02*
X146626500Y-90334500D01*
X143764000Y-92934500D02*
X146626500Y-92934500D01*
D33*
X138115500Y-89789000D02*
X138110000Y-89794500D01*
G04 #@! TO.N,Net-(C8-Pad2)*
X139827000Y-88519000D02*
X138684000Y-87376000D01*
X136385000Y-88138000D02*
X136271000Y-88138000D01*
X136210000Y-91628000D02*
X136210000Y-92069500D01*
X136385000Y-88138000D02*
X137033000Y-88786000D01*
X136271000Y-86487000D02*
X136562500Y-86487000D01*
X146626500Y-89684500D02*
X144421500Y-89684500D01*
X138684000Y-87376000D02*
X137147000Y-87376000D01*
X136271000Y-88138000D02*
X135890000Y-87757000D01*
X144421500Y-89684500D02*
X143256000Y-88519000D01*
X135890000Y-86868000D02*
X136271000Y-86487000D01*
X137033000Y-90805000D02*
X136210000Y-91628000D01*
X135890000Y-87757000D02*
X135890000Y-86868000D01*
X137147000Y-87376000D02*
X136385000Y-88138000D01*
X136670750Y-86487000D02*
X136562500Y-86487000D01*
X143256000Y-88519000D02*
X139827000Y-88519000D01*
X137033000Y-88786000D02*
X137033000Y-90805000D01*
D30*
G04 #@! TO.N,Net-(U5-V+)*
X146304000Y-85889500D02*
X146334000Y-85919500D01*
X146304000Y-85918000D02*
X144845500Y-85918000D01*
X146334000Y-85919500D02*
X147320000Y-85919500D01*
X146304000Y-85889500D02*
X146304000Y-85918000D01*
G04 #@! TO.N,Net-(U5-V-)*
X142570500Y-86868000D02*
X140140500Y-86868000D01*
D33*
G04 #@! TO.N,Net-(U6-V-)*
X149352000Y-87054500D02*
X149393000Y-87095500D01*
D32*
X149393000Y-87095500D02*
X149393000Y-88701000D01*
X149352000Y-87054500D02*
X148366000Y-87054500D01*
X148366000Y-87054500D02*
X148336000Y-87084500D01*
G04 #@! TO.N,Net-(U6--)*
X150043000Y-87409500D02*
X150043000Y-88701000D01*
X150368000Y-87084500D02*
X150043000Y-87409500D01*
G04 #@! TO.N,Net-(U6-+)*
X151384000Y-87166750D02*
X151384000Y-87084500D01*
X150693000Y-87857750D02*
X151384000Y-87166750D01*
X150693000Y-88701000D02*
X150693000Y-87857750D01*
G04 #@! TO.N,Net-(R10-Pad2)*
X149225000Y-97244500D02*
X151257000Y-97244500D01*
G04 #@! TO.N,Net-(U6-BAL)*
X149225000Y-96049500D02*
X149225000Y-95504000D01*
X149225000Y-95504000D02*
X149393000Y-95336000D01*
X149393000Y-95336000D02*
X149393000Y-94426000D01*
D33*
G04 #@! TO.N,Net-(RN2-Pad7)*
X140642114Y-99028012D02*
X140726602Y-99112500D01*
X140726602Y-99112500D02*
X141651500Y-99112500D01*
G04 #@! TO.N,Net-(U3B--)*
X144780000Y-97663000D02*
X144780000Y-96393000D01*
X138008000Y-94320000D02*
X137795000Y-94107000D01*
X138008000Y-94992500D02*
X138008000Y-95463000D01*
X138008000Y-95463000D02*
X138557000Y-96012000D01*
X139264000Y-97735000D02*
X141058725Y-97735000D01*
X137795000Y-94107000D02*
X137541000Y-94107000D01*
X144963000Y-96210000D02*
X145876500Y-96210000D01*
X137137000Y-96035000D02*
X136929000Y-96035000D01*
X144780000Y-96393000D02*
X144963000Y-96210000D01*
X136058000Y-94992500D02*
X136058000Y-95756000D01*
X136487000Y-96035000D02*
X136708000Y-95814000D01*
X138557000Y-96012000D02*
X138557000Y-97028000D01*
X136337000Y-96035000D02*
X136487000Y-96035000D01*
X136929000Y-96035000D02*
X136708000Y-95814000D01*
X138557000Y-97028000D02*
X139264000Y-97735000D01*
X137541000Y-94107000D02*
X137358000Y-94290000D01*
X137358000Y-95814000D02*
X137137000Y-96035000D01*
X138008000Y-94992500D02*
X138008000Y-94320000D01*
X137358000Y-94290000D02*
X137358000Y-94992500D01*
X137358000Y-94992500D02*
X137358000Y-95814000D01*
X141058725Y-97735000D02*
X141106725Y-97687000D01*
X136708000Y-95814000D02*
X136708000Y-94992500D01*
X136058000Y-95756000D02*
X136337000Y-96035000D01*
G04 #@! TO.N,Net-(U3A-+)*
X142202500Y-98462500D02*
X141651500Y-98462500D01*
X142748000Y-97917000D02*
X142202500Y-98462500D01*
X142748000Y-96520000D02*
X142748000Y-97917000D01*
X142438000Y-96210000D02*
X142748000Y-96520000D01*
X141651500Y-96210000D02*
X142438000Y-96210000D01*
G04 #@! TD*
G04 #@! TA.AperFunction,Conductor*
G04 #@! TO.N,GNDA*
G36*
X135313194Y-83584306D02*
G01*
X135331500Y-83628500D01*
X135331500Y-84622086D01*
X135331501Y-84622094D01*
X135352249Y-84699529D01*
X135352250Y-84699532D01*
X135352251Y-84699533D01*
X135392339Y-84768968D01*
X135449032Y-84825661D01*
X135513397Y-84862822D01*
X135518467Y-84865749D01*
X135518470Y-84865750D01*
X135565857Y-84878447D01*
X135595912Y-84886500D01*
X135595913Y-84886500D01*
X139232087Y-84886500D01*
X139232088Y-84886500D01*
X139309533Y-84865749D01*
X139378968Y-84825661D01*
X139435661Y-84768968D01*
X139475749Y-84699533D01*
X139496500Y-84622088D01*
X139496500Y-83628500D01*
X139514806Y-83584306D01*
X139559000Y-83566000D01*
X140526500Y-83566000D01*
X140570694Y-83584306D01*
X140589000Y-83628500D01*
X140589000Y-84663634D01*
X140580627Y-84694883D01*
X140556993Y-84735818D01*
X140556990Y-84735826D01*
X140517501Y-84883200D01*
X140517500Y-84883208D01*
X140517500Y-85035795D01*
X140522870Y-85055832D01*
X140525000Y-85072010D01*
X140525000Y-85188804D01*
X140506694Y-85232998D01*
X140462500Y-85251304D01*
X140418306Y-85232998D01*
X140398130Y-85212822D01*
X140301680Y-85170235D01*
X140278106Y-85167500D01*
X140208000Y-85167500D01*
X140208000Y-85599500D01*
X140189694Y-85643694D01*
X140145500Y-85662000D01*
X140081000Y-85662000D01*
X140081000Y-85726500D01*
X140062694Y-85770694D01*
X140018500Y-85789000D01*
X139644001Y-85789000D01*
X139644001Y-85916605D01*
X139646735Y-85940184D01*
X139689321Y-86036629D01*
X139766862Y-86114170D01*
X139785168Y-86158364D01*
X139766862Y-86202558D01*
X139751043Y-86214052D01*
X139682301Y-86249078D01*
X139590577Y-86340802D01*
X139531689Y-86456375D01*
X139531686Y-86456385D01*
X139516501Y-86552260D01*
X139516500Y-86552276D01*
X139516500Y-87041723D01*
X139516501Y-87041739D01*
X139531686Y-87137614D01*
X139531689Y-87137624D01*
X139590577Y-87253197D01*
X139682302Y-87344922D01*
X139797875Y-87403810D01*
X139797877Y-87403810D01*
X139797880Y-87403812D01*
X139797883Y-87403812D01*
X139797885Y-87403813D01*
X139893760Y-87418998D01*
X139893766Y-87418998D01*
X139893774Y-87419000D01*
X139893776Y-87419000D01*
X140268224Y-87419000D01*
X140268226Y-87419000D01*
X140340848Y-87407498D01*
X140364114Y-87403813D01*
X140364114Y-87403812D01*
X140364120Y-87403812D01*
X140404354Y-87383312D01*
X140432728Y-87376500D01*
X140699819Y-87376500D01*
X140728191Y-87383311D01*
X140807316Y-87423627D01*
X140807318Y-87423627D01*
X140807320Y-87423628D01*
X140904363Y-87438998D01*
X140904365Y-87438998D01*
X140904377Y-87439000D01*
X141289622Y-87438999D01*
X141386684Y-87423627D01*
X141465808Y-87383311D01*
X141494181Y-87376500D01*
X141911603Y-87376500D01*
X141939977Y-87383312D01*
X141987440Y-87407496D01*
X141987442Y-87407496D01*
X141987445Y-87407498D01*
X142082166Y-87422500D01*
X142558500Y-87422500D01*
X142602694Y-87440806D01*
X142621000Y-87485000D01*
X142621000Y-88075000D01*
X142602694Y-88119194D01*
X142558500Y-88137500D01*
X140010911Y-88137500D01*
X139966717Y-88119194D01*
X138918246Y-87070723D01*
X138894687Y-87057122D01*
X138831252Y-87020498D01*
X138744788Y-86997329D01*
X138706838Y-86968208D01*
X138700595Y-86920782D01*
X138716769Y-86892766D01*
X138766715Y-86842821D01*
X138843008Y-86710678D01*
X138882500Y-86563293D01*
X138882500Y-86410707D01*
X138843008Y-86263322D01*
X138766715Y-86131179D01*
X138766713Y-86131177D01*
X138766710Y-86131173D01*
X138658826Y-86023289D01*
X138658822Y-86023286D01*
X138658821Y-86023285D01*
X138592749Y-85985138D01*
X138526677Y-85946991D01*
X138526673Y-85946990D01*
X138379299Y-85907501D01*
X138379294Y-85907500D01*
X138379293Y-85907500D01*
X138226707Y-85907500D01*
X138226704Y-85907500D01*
X138214284Y-85910828D01*
X138206664Y-85912870D01*
X138190490Y-85915000D01*
X138008324Y-85915000D01*
X137998547Y-85914230D01*
X137989959Y-85912870D01*
X137987624Y-85912500D01*
X137527381Y-85912500D01*
X137527376Y-85912501D01*
X137430314Y-85927873D01*
X137313326Y-85987481D01*
X137220480Y-86080327D01*
X137215685Y-86089738D01*
X137179309Y-86120802D01*
X137131621Y-86117046D01*
X137104311Y-86089733D01*
X137099518Y-86080326D01*
X137006674Y-85987482D01*
X137006673Y-85987481D01*
X136889688Y-85927874D01*
X136889678Y-85927871D01*
X136792636Y-85912501D01*
X136792624Y-85912500D01*
X136792623Y-85912500D01*
X136792620Y-85912500D01*
X136332381Y-85912500D01*
X136332376Y-85912501D01*
X136235314Y-85927873D01*
X136118326Y-85987481D01*
X136025481Y-86080326D01*
X135965873Y-86197314D01*
X135965872Y-86197318D01*
X135958644Y-86242952D01*
X135941108Y-86277368D01*
X135646961Y-86571514D01*
X135646962Y-86571515D01*
X135584724Y-86633753D01*
X135534498Y-86720746D01*
X135534498Y-86720748D01*
X135508500Y-86817770D01*
X135508500Y-87590733D01*
X135490194Y-87634927D01*
X135446000Y-87653233D01*
X135401806Y-87634927D01*
X135391874Y-87621983D01*
X135337717Y-87528182D01*
X135337710Y-87528173D01*
X135229826Y-87420289D01*
X135229822Y-87420286D01*
X135229821Y-87420285D01*
X135153983Y-87376500D01*
X135097677Y-87343991D01*
X135097673Y-87343990D01*
X134950299Y-87304501D01*
X134950294Y-87304500D01*
X134950293Y-87304500D01*
X134797707Y-87304500D01*
X134797706Y-87304500D01*
X134797700Y-87304501D01*
X134650326Y-87343990D01*
X134650322Y-87343991D01*
X134518177Y-87420286D01*
X134518173Y-87420289D01*
X134410289Y-87528173D01*
X134410286Y-87528177D01*
X134333991Y-87660322D01*
X134333990Y-87660326D01*
X134294501Y-87807700D01*
X134294500Y-87807708D01*
X134294500Y-87960295D01*
X134295667Y-87964649D01*
X134297622Y-87971946D01*
X134299870Y-87980332D01*
X134302000Y-87996510D01*
X134302000Y-88436170D01*
X134301231Y-88445945D01*
X134299500Y-88456871D01*
X134299500Y-88917118D01*
X134299501Y-88917123D01*
X134314873Y-89014185D01*
X134374481Y-89131173D01*
X134374482Y-89131174D01*
X134467326Y-89224018D01*
X134467927Y-89224324D01*
X134476735Y-89228812D01*
X134507801Y-89265187D01*
X134504048Y-89312875D01*
X134476735Y-89340188D01*
X134467325Y-89344982D01*
X134374481Y-89437826D01*
X134314874Y-89554811D01*
X134314871Y-89554821D01*
X134299501Y-89651863D01*
X134299500Y-89651879D01*
X134299500Y-90112118D01*
X134299501Y-90112125D01*
X134301231Y-90123046D01*
X134302000Y-90132822D01*
X134302000Y-91074807D01*
X134307370Y-91094844D01*
X134309500Y-91111022D01*
X134309500Y-91244223D01*
X134309501Y-91244239D01*
X134324686Y-91340114D01*
X134324689Y-91340124D01*
X134383577Y-91455697D01*
X134475302Y-91547422D01*
X134544042Y-91582447D01*
X134575109Y-91618821D01*
X134571356Y-91666509D01*
X134559862Y-91682329D01*
X134482322Y-91759869D01*
X134439735Y-91856319D01*
X134437000Y-91879894D01*
X134437000Y-92007500D01*
X135310999Y-92007500D01*
X135310999Y-91879894D01*
X135308264Y-91856315D01*
X135265678Y-91759870D01*
X135188137Y-91682329D01*
X135169831Y-91638135D01*
X135188137Y-91593941D01*
X135203955Y-91582448D01*
X135272698Y-91547422D01*
X135364422Y-91455698D01*
X135423312Y-91340120D01*
X135427088Y-91316277D01*
X135438498Y-91244239D01*
X135438500Y-91244223D01*
X135438500Y-91111022D01*
X135440630Y-91094844D01*
X135442846Y-91086577D01*
X135446000Y-91074805D01*
X135446000Y-90516500D01*
X135464306Y-90472306D01*
X135508500Y-90454000D01*
X135642619Y-90454000D01*
X135686813Y-90472306D01*
X135698306Y-90488124D01*
X135728674Y-90547723D01*
X135819277Y-90638326D01*
X135933445Y-90696498D01*
X136028166Y-90711500D01*
X136064512Y-90711500D01*
X136108706Y-90729806D01*
X136127012Y-90774000D01*
X136127012Y-91090000D01*
X136108706Y-91134194D01*
X136064512Y-91152500D01*
X136028164Y-91152500D01*
X135933444Y-91167502D01*
X135933443Y-91167502D01*
X135819276Y-91225674D01*
X135728674Y-91316276D01*
X135670502Y-91430443D01*
X135670502Y-91430444D01*
X135655500Y-91525164D01*
X135655500Y-92613835D01*
X135670502Y-92708555D01*
X135670502Y-92708556D01*
X135728674Y-92822723D01*
X135746667Y-92840716D01*
X135764973Y-92884910D01*
X135746667Y-92929104D01*
X135702473Y-92947410D01*
X135674099Y-92940598D01*
X135619688Y-92912874D01*
X135619678Y-92912871D01*
X135522636Y-92897501D01*
X135522624Y-92897500D01*
X135522623Y-92897500D01*
X135522620Y-92897500D01*
X135062381Y-92897500D01*
X135062376Y-92897501D01*
X134965314Y-92912873D01*
X134848326Y-92972481D01*
X134755481Y-93065326D01*
X134695874Y-93182311D01*
X134695871Y-93182321D01*
X134680501Y-93279363D01*
X134680500Y-93279379D01*
X134680500Y-93664618D01*
X134680501Y-93664623D01*
X134695873Y-93761685D01*
X134755481Y-93878673D01*
X134794284Y-93917476D01*
X134804213Y-93930415D01*
X134821437Y-93960247D01*
X134821437Y-93960249D01*
X134834785Y-93983367D01*
X134834790Y-93983373D01*
X135126105Y-94274687D01*
X135136037Y-94287630D01*
X135146412Y-94305600D01*
X135146417Y-94305606D01*
X135254301Y-94413490D01*
X135254305Y-94413493D01*
X135254307Y-94413495D01*
X135386450Y-94489788D01*
X135533835Y-94529280D01*
X135541000Y-94529280D01*
X135585194Y-94547586D01*
X135603500Y-94591780D01*
X135603500Y-95638645D01*
X135613539Y-95707550D01*
X135613539Y-95707551D01*
X135665499Y-95813838D01*
X135671471Y-95819810D01*
X135687647Y-95847827D01*
X135699138Y-95890713D01*
X135702499Y-95903254D01*
X135707809Y-95912451D01*
X135744046Y-95975217D01*
X135752723Y-95990246D01*
X135752728Y-95990252D01*
X136102747Y-96340271D01*
X136102751Y-96340274D01*
X136102753Y-96340276D01*
X136189747Y-96390502D01*
X136232526Y-96401964D01*
X136286770Y-96416500D01*
X136286772Y-96416500D01*
X136286775Y-96416501D01*
X136286777Y-96416501D01*
X136391050Y-96416501D01*
X136391066Y-96416500D01*
X136537224Y-96416500D01*
X136537225Y-96416500D01*
X136634254Y-96390501D01*
X136676750Y-96365965D01*
X136724176Y-96359722D01*
X136739250Y-96365966D01*
X136781740Y-96390498D01*
X136781742Y-96390498D01*
X136781746Y-96390501D01*
X136841125Y-96406411D01*
X136878770Y-96416499D01*
X136878773Y-96416499D01*
X136878775Y-96416500D01*
X136878776Y-96416500D01*
X137187224Y-96416500D01*
X137187225Y-96416500D01*
X137284254Y-96390501D01*
X137371247Y-96340276D01*
X137427217Y-96284306D01*
X137471411Y-96266000D01*
X138113000Y-96266000D01*
X138157194Y-96284306D01*
X138175500Y-96328500D01*
X138175500Y-97078229D01*
X138201498Y-97175251D01*
X138201498Y-97175253D01*
X138232625Y-97229165D01*
X138244019Y-97248901D01*
X138251724Y-97262247D01*
X138958724Y-97969247D01*
X139029753Y-98040276D01*
X139116746Y-98090501D01*
X139159526Y-98101964D01*
X139213770Y-98116499D01*
X139213773Y-98116499D01*
X139213775Y-98116500D01*
X139314225Y-98116500D01*
X140403499Y-98116500D01*
X140418526Y-98118333D01*
X140562176Y-98153915D01*
X140600673Y-98182310D01*
X140607816Y-98229609D01*
X140603299Y-98242031D01*
X140594539Y-98259950D01*
X140584500Y-98328854D01*
X140584500Y-98395548D01*
X140566194Y-98439742D01*
X140538177Y-98455918D01*
X140418438Y-98488003D01*
X140418436Y-98488003D01*
X140286291Y-98564298D01*
X140286287Y-98564301D01*
X140178403Y-98672185D01*
X140178396Y-98672194D01*
X140102108Y-98804327D01*
X140102105Y-98804333D01*
X140092238Y-98841158D01*
X140063117Y-98879107D01*
X140025932Y-98886808D01*
X140025915Y-98887104D01*
X140024811Y-98887040D01*
X140024688Y-98887066D01*
X140024121Y-98887000D01*
X139954000Y-98887000D01*
X139954000Y-99319000D01*
X139935694Y-99363194D01*
X139891500Y-99381500D01*
X139827000Y-99381500D01*
X139827000Y-99446000D01*
X139808694Y-99490194D01*
X139764500Y-99508500D01*
X139390001Y-99508500D01*
X139390001Y-99615512D01*
X139371695Y-99659706D01*
X139327501Y-99678012D01*
X138525000Y-99678012D01*
X138480806Y-99659706D01*
X138462500Y-99615512D01*
X138462500Y-99126894D01*
X139390000Y-99126894D01*
X139390000Y-99254500D01*
X139700000Y-99254500D01*
X139700000Y-98887000D01*
X139629894Y-98887000D01*
X139606315Y-98889735D01*
X139509870Y-98932321D01*
X139435322Y-99006869D01*
X139392735Y-99103319D01*
X139390000Y-99126894D01*
X138462500Y-99126894D01*
X138462500Y-98671354D01*
X138461938Y-98667500D01*
X138452461Y-98602450D01*
X138442963Y-98583022D01*
X138400500Y-98496161D01*
X138326176Y-98421837D01*
X138316242Y-98408891D01*
X138314139Y-98405248D01*
X138313276Y-98403753D01*
X138242247Y-98332724D01*
X138242245Y-98332722D01*
X138029247Y-98119724D01*
X138029246Y-98119723D01*
X138013265Y-98110497D01*
X138013263Y-98110496D01*
X137953249Y-98075846D01*
X137941750Y-98060861D01*
X137940306Y-98062306D01*
X137922000Y-98044000D01*
X137853121Y-98044000D01*
X137845484Y-98043500D01*
X137845225Y-98043500D01*
X137591228Y-98043500D01*
X137591224Y-98043499D01*
X137490774Y-98043499D01*
X137489005Y-98043972D01*
X137483151Y-98043999D01*
X137483114Y-98043984D01*
X137482872Y-98044000D01*
X136583121Y-98044000D01*
X136575484Y-98043500D01*
X136575225Y-98043500D01*
X136220775Y-98043500D01*
X136220516Y-98043500D01*
X136212879Y-98044000D01*
X136144000Y-98044000D01*
X136128245Y-98059754D01*
X136125694Y-98065914D01*
X136112750Y-98075846D01*
X136036754Y-98119722D01*
X135969291Y-98187185D01*
X135969277Y-98187197D01*
X135815699Y-98340776D01*
X135815670Y-98340806D01*
X135752724Y-98403753D01*
X135746172Y-98415099D01*
X135741271Y-98420339D01*
X135740813Y-98420546D01*
X135739824Y-98421836D01*
X135665499Y-98496162D01*
X135613539Y-98602448D01*
X135613539Y-98602449D01*
X135603500Y-98671354D01*
X135603500Y-99963645D01*
X135613539Y-100032550D01*
X135613539Y-100032551D01*
X135665499Y-100138838D01*
X135749161Y-100222500D01*
X135789500Y-100242220D01*
X135855450Y-100274461D01*
X135924354Y-100284500D01*
X136191645Y-100284500D01*
X136191646Y-100284500D01*
X136260060Y-100274532D01*
X136306431Y-100286275D01*
X136329440Y-100320202D01*
X136352498Y-100406251D01*
X136352500Y-100406257D01*
X136385101Y-100462724D01*
X136402723Y-100493246D01*
X136402728Y-100493252D01*
X137052747Y-101143271D01*
X137052751Y-101143274D01*
X137052753Y-101143276D01*
X137139747Y-101193502D01*
X137182526Y-101204964D01*
X137236770Y-101219500D01*
X137236772Y-101219500D01*
X137236775Y-101219501D01*
X137236777Y-101219501D01*
X137341050Y-101219501D01*
X137341066Y-101219500D01*
X137501733Y-101219500D01*
X137545927Y-101237806D01*
X137564233Y-101282000D01*
X137545927Y-101326194D01*
X137532983Y-101336126D01*
X137439182Y-101390282D01*
X137439173Y-101390289D01*
X137331289Y-101498173D01*
X137331286Y-101498177D01*
X137254991Y-101630322D01*
X137254990Y-101630326D01*
X137215501Y-101777700D01*
X137215500Y-101777708D01*
X137215500Y-101930291D01*
X137215501Y-101930299D01*
X137254990Y-102077673D01*
X137254991Y-102077677D01*
X137254992Y-102077678D01*
X137316546Y-102184293D01*
X137331286Y-102209822D01*
X137331289Y-102209826D01*
X137439173Y-102317710D01*
X137439177Y-102317713D01*
X137439179Y-102317715D01*
X137533850Y-102372373D01*
X137562970Y-102410324D01*
X137556727Y-102457750D01*
X137518776Y-102486870D01*
X137502600Y-102489000D01*
X134264888Y-102489000D01*
X134220694Y-102470694D01*
X134026806Y-102276806D01*
X134008500Y-102232612D01*
X134008500Y-92389105D01*
X134437001Y-92389105D01*
X134439735Y-92412684D01*
X134482321Y-92509129D01*
X134556869Y-92583677D01*
X134653319Y-92626264D01*
X134676894Y-92628999D01*
X134746999Y-92628999D01*
X135001000Y-92628999D01*
X135071105Y-92628999D01*
X135094684Y-92626264D01*
X135191129Y-92583678D01*
X135265677Y-92509130D01*
X135308264Y-92412680D01*
X135311000Y-92389105D01*
X135311000Y-92261500D01*
X135001000Y-92261500D01*
X135001000Y-92628999D01*
X134746999Y-92628999D01*
X134747000Y-92628998D01*
X134747000Y-92261500D01*
X134437001Y-92261500D01*
X134437001Y-92389105D01*
X134008500Y-92389105D01*
X134008500Y-85407394D01*
X139644000Y-85407394D01*
X139644000Y-85535000D01*
X139954000Y-85535000D01*
X139954000Y-85167500D01*
X139883894Y-85167500D01*
X139860315Y-85170235D01*
X139763870Y-85212821D01*
X139689322Y-85287369D01*
X139646735Y-85383819D01*
X139644000Y-85407394D01*
X134008500Y-85407394D01*
X134008500Y-83822388D01*
X134026806Y-83778194D01*
X134220694Y-83584306D01*
X134264888Y-83566000D01*
X135269000Y-83566000D01*
X135313194Y-83584306D01*
G37*
G04 #@! TD.AperFunction*
G04 #@! TA.AperFunction,Conductor*
G36*
X143786072Y-98154445D02*
G01*
X143802250Y-98156575D01*
X143807391Y-98163276D01*
X143815194Y-98166508D01*
X143831370Y-98194526D01*
X143845497Y-98247249D01*
X143845498Y-98247251D01*
X143845499Y-98247254D01*
X143886490Y-98318253D01*
X143894844Y-98332723D01*
X143895725Y-98334248D01*
X143895726Y-98334250D01*
X144126194Y-98564716D01*
X144144500Y-98608910D01*
X144144500Y-100019089D01*
X144126194Y-100063283D01*
X143485569Y-100703907D01*
X143441375Y-100722213D01*
X143397181Y-100703907D01*
X143378875Y-100659713D01*
X143381004Y-100643538D01*
X143383500Y-100634225D01*
X143383500Y-98679910D01*
X143401806Y-98635716D01*
X143473225Y-98564297D01*
X143557684Y-98479838D01*
X143557691Y-98479832D01*
X143589011Y-98448512D01*
X143632276Y-98405247D01*
X143682501Y-98318254D01*
X143708500Y-98221225D01*
X143708500Y-98210702D01*
X143714743Y-98195629D01*
X143716873Y-98179452D01*
X143723574Y-98174310D01*
X143726806Y-98166508D01*
X143741879Y-98160264D01*
X143754824Y-98150332D01*
X143763196Y-98151434D01*
X143771000Y-98148202D01*
X143786072Y-98154445D01*
G37*
G04 #@! TD.AperFunction*
G04 #@! TA.AperFunction,Conductor*
G36*
X140370692Y-99542913D02*
G01*
X140377495Y-99559336D01*
X140399106Y-99562258D01*
X140414651Y-99566452D01*
X140418431Y-99568017D01*
X140418436Y-99568020D01*
X140565821Y-99607512D01*
X140565822Y-99607512D01*
X140660394Y-99607512D01*
X140704588Y-99625818D01*
X140708706Y-99630362D01*
X140712923Y-99635500D01*
X141589000Y-99635500D01*
X141633194Y-99653806D01*
X141651500Y-99698000D01*
X141651500Y-99827000D01*
X141633194Y-99871194D01*
X141589000Y-99889500D01*
X140712924Y-99889500D01*
X140713582Y-99892806D01*
X140704250Y-99939723D01*
X140664477Y-99966299D01*
X140652283Y-99967500D01*
X140397500Y-99967500D01*
X140353306Y-99949194D01*
X140335000Y-99905000D01*
X140335000Y-99678012D01*
X140326500Y-99678012D01*
X140282306Y-99659706D01*
X140264000Y-99615514D01*
X140263999Y-99587111D01*
X140282303Y-99542916D01*
X140326497Y-99524609D01*
X140370692Y-99542913D01*
G37*
G04 #@! TD.AperFunction*
G04 #@! TA.AperFunction,Conductor*
G36*
X147976888Y-95711267D02*
G01*
X147976926Y-95711219D01*
X147977559Y-95711704D01*
X147979306Y-95712843D01*
X147980173Y-95713710D01*
X147980177Y-95713713D01*
X147980179Y-95713715D01*
X148112322Y-95790008D01*
X148162677Y-95803500D01*
X148200626Y-95832619D01*
X148209000Y-95863870D01*
X148209000Y-98488078D01*
X148190694Y-98532272D01*
X148146500Y-98550578D01*
X148130324Y-98548448D01*
X148098799Y-98540001D01*
X148098794Y-98540000D01*
X148098793Y-98540000D01*
X147946207Y-98540000D01*
X147946204Y-98540000D01*
X147933784Y-98543328D01*
X147926164Y-98545370D01*
X147909990Y-98547500D01*
X147813448Y-98547500D01*
X147785073Y-98540687D01*
X147776956Y-98536551D01*
X147771449Y-98530103D01*
X147769254Y-98529194D01*
X147767918Y-98525968D01*
X147745890Y-98500177D01*
X147749644Y-98452489D01*
X147761137Y-98436670D01*
X147838677Y-98359130D01*
X147881264Y-98262680D01*
X147884000Y-98239105D01*
X147884000Y-98111500D01*
X147509500Y-98111500D01*
X147465306Y-98093194D01*
X147447000Y-98049000D01*
X147447000Y-97984500D01*
X147382500Y-97984500D01*
X147338306Y-97966194D01*
X147320000Y-97922000D01*
X147320000Y-97857500D01*
X147574000Y-97857500D01*
X147883999Y-97857500D01*
X147883999Y-97729894D01*
X147881264Y-97706315D01*
X147838678Y-97609870D01*
X147764130Y-97535322D01*
X147667680Y-97492735D01*
X147644106Y-97490000D01*
X147574000Y-97490000D01*
X147574000Y-97857500D01*
X147320000Y-97857500D01*
X147320000Y-97490000D01*
X147255500Y-97490000D01*
X147211306Y-97471694D01*
X147193000Y-97427500D01*
X147193000Y-96624999D01*
X147211306Y-96580805D01*
X147255500Y-96562499D01*
X147320000Y-96562499D01*
X147574000Y-96562499D01*
X147644105Y-96562499D01*
X147667684Y-96559764D01*
X147764129Y-96517178D01*
X147838677Y-96442630D01*
X147881264Y-96346180D01*
X147884000Y-96322605D01*
X147884000Y-96195000D01*
X147574000Y-96195000D01*
X147574000Y-96562499D01*
X147320000Y-96562499D01*
X147320000Y-96130500D01*
X147338306Y-96086306D01*
X147382500Y-96068000D01*
X147447000Y-96068000D01*
X147447000Y-96003500D01*
X147465306Y-95959306D01*
X147509500Y-95941000D01*
X147883999Y-95941000D01*
X147883999Y-95813394D01*
X147881264Y-95789816D01*
X147877938Y-95782284D01*
X147876832Y-95734461D01*
X147909865Y-95699863D01*
X147957688Y-95698757D01*
X147976888Y-95711267D01*
G37*
G04 #@! TD.AperFunction*
G04 #@! TA.AperFunction,Conductor*
G36*
X137758873Y-90658501D02*
G01*
X137833445Y-90696498D01*
X137928166Y-90711500D01*
X137928168Y-90711500D01*
X138291832Y-90711500D01*
X138291834Y-90711500D01*
X138386555Y-90696498D01*
X138465626Y-90656208D01*
X138513313Y-90652456D01*
X138549688Y-90683522D01*
X138556500Y-90711897D01*
X138556500Y-90871943D01*
X138556501Y-90871951D01*
X138591151Y-91001270D01*
X138591155Y-91001279D01*
X138658096Y-91117223D01*
X138658103Y-91117232D01*
X138852599Y-91311726D01*
X138905991Y-91365118D01*
X138917485Y-91380937D01*
X138955578Y-91455698D01*
X139047302Y-91547422D01*
X139116042Y-91582447D01*
X139147109Y-91618821D01*
X139143356Y-91666509D01*
X139131862Y-91682329D01*
X139054322Y-91759869D01*
X139011735Y-91856319D01*
X139009000Y-91879894D01*
X139009000Y-92007500D01*
X139383500Y-92007500D01*
X139427694Y-92025806D01*
X139446000Y-92070000D01*
X139446000Y-92134500D01*
X139510500Y-92134500D01*
X139554694Y-92152806D01*
X139573000Y-92197000D01*
X139573000Y-92628999D01*
X139643105Y-92628999D01*
X139666684Y-92626264D01*
X139763129Y-92583678D01*
X139838012Y-92508795D01*
X139847767Y-92504754D01*
X139854757Y-92496839D01*
X139869011Y-92495954D01*
X139882206Y-92490489D01*
X139891961Y-92494530D01*
X139902500Y-92493876D01*
X139913204Y-92503329D01*
X139926400Y-92508795D01*
X139938356Y-92525540D01*
X139965982Y-92582051D01*
X139968945Y-92629794D01*
X139965982Y-92636949D01*
X139919539Y-92731950D01*
X139909500Y-92800854D01*
X139909500Y-93068146D01*
X139919539Y-93137050D01*
X139938663Y-93176168D01*
X139965982Y-93232051D01*
X139968945Y-93279794D01*
X139965982Y-93286949D01*
X139919539Y-93381950D01*
X139909500Y-93450854D01*
X139909500Y-93718145D01*
X139919539Y-93787050D01*
X139919539Y-93787051D01*
X139971499Y-93893338D01*
X140055161Y-93977000D01*
X140108305Y-94002980D01*
X140161450Y-94028961D01*
X140230354Y-94039000D01*
X140399500Y-94039000D01*
X140443694Y-94057306D01*
X140462000Y-94101500D01*
X140462000Y-94800605D01*
X140443694Y-94844799D01*
X140399500Y-94863105D01*
X140374255Y-94857780D01*
X140301680Y-94825735D01*
X140278106Y-94823000D01*
X140208000Y-94823000D01*
X140208000Y-95255000D01*
X140189694Y-95299194D01*
X140145500Y-95317500D01*
X140081000Y-95317500D01*
X140081000Y-95382000D01*
X140062694Y-95426194D01*
X140018500Y-95444500D01*
X139644001Y-95444500D01*
X139644001Y-95572105D01*
X139646735Y-95595684D01*
X139672161Y-95653266D01*
X139673267Y-95701089D01*
X139640233Y-95735686D01*
X139614987Y-95741012D01*
X138851423Y-95741012D01*
X138807229Y-95722706D01*
X138480806Y-95396283D01*
X138462500Y-95352089D01*
X138462500Y-95062894D01*
X139644000Y-95062894D01*
X139644000Y-95190500D01*
X139954000Y-95190500D01*
X139954000Y-94823000D01*
X139883894Y-94823000D01*
X139860315Y-94825735D01*
X139763870Y-94868321D01*
X139689322Y-94942869D01*
X139646735Y-95039319D01*
X139644000Y-95062894D01*
X138462500Y-95062894D01*
X138462500Y-94346354D01*
X138452461Y-94277450D01*
X138422915Y-94217012D01*
X138400500Y-94171161D01*
X138400498Y-94171159D01*
X138316842Y-94087502D01*
X138314703Y-94085975D01*
X138306827Y-94079304D01*
X138168885Y-93941362D01*
X138163231Y-93927714D01*
X138153638Y-93916481D01*
X138154426Y-93906457D01*
X138150579Y-93897168D01*
X138157389Y-93868799D01*
X138191448Y-93801954D01*
X138227822Y-93770890D01*
X138275510Y-93774643D01*
X138291329Y-93786137D01*
X138368869Y-93863677D01*
X138465319Y-93906264D01*
X138488894Y-93908999D01*
X138616499Y-93908999D01*
X138870500Y-93908999D01*
X138998105Y-93908999D01*
X139021684Y-93906264D01*
X139118129Y-93863678D01*
X139192677Y-93789130D01*
X139235264Y-93692680D01*
X139238000Y-93669105D01*
X139238000Y-93599000D01*
X138870500Y-93599000D01*
X138870500Y-93908999D01*
X138616499Y-93908999D01*
X138616500Y-93908998D01*
X138616500Y-93345000D01*
X138870500Y-93345000D01*
X139237999Y-93345000D01*
X139237999Y-93274894D01*
X139235264Y-93251315D01*
X139192678Y-93154870D01*
X139118130Y-93080322D01*
X139021680Y-93037735D01*
X138998106Y-93035000D01*
X138870500Y-93035000D01*
X138870500Y-93345000D01*
X138616500Y-93345000D01*
X138616500Y-93035000D01*
X138488894Y-93035000D01*
X138465315Y-93037735D01*
X138368870Y-93080321D01*
X138291329Y-93157862D01*
X138247135Y-93176168D01*
X138202941Y-93157862D01*
X138191447Y-93142042D01*
X138156422Y-93073302D01*
X138064698Y-92981578D01*
X138006020Y-92951680D01*
X137974954Y-92915305D01*
X137978707Y-92867617D01*
X137983000Y-92861708D01*
X137983000Y-92858999D01*
X138237000Y-92858999D01*
X138301355Y-92858999D01*
X138324521Y-92856312D01*
X138324522Y-92856311D01*
X138419252Y-92814483D01*
X138419254Y-92814483D01*
X138492481Y-92741255D01*
X138534312Y-92646516D01*
X138537000Y-92623355D01*
X138537000Y-92389105D01*
X139009001Y-92389105D01*
X139011735Y-92412684D01*
X139054321Y-92509129D01*
X139128869Y-92583677D01*
X139225319Y-92626264D01*
X139248894Y-92628999D01*
X139318999Y-92628999D01*
X139319000Y-92628998D01*
X139319000Y-92261500D01*
X139009001Y-92261500D01*
X139009001Y-92389105D01*
X138537000Y-92389105D01*
X138537000Y-92196500D01*
X138237000Y-92196500D01*
X138237000Y-92858999D01*
X137983000Y-92858999D01*
X137983000Y-91942500D01*
X138237000Y-91942500D01*
X138536999Y-91942500D01*
X138536999Y-91515644D01*
X138534312Y-91492478D01*
X138534311Y-91492477D01*
X138492483Y-91397747D01*
X138492483Y-91397746D01*
X138419255Y-91324518D01*
X138324516Y-91282687D01*
X138301356Y-91280000D01*
X138237000Y-91280000D01*
X138237000Y-91942500D01*
X137983000Y-91942500D01*
X137983000Y-91280000D01*
X137918644Y-91280000D01*
X137895478Y-91282687D01*
X137895477Y-91282688D01*
X137800747Y-91324516D01*
X137774694Y-91350569D01*
X137730500Y-91368875D01*
X137686306Y-91350569D01*
X137668000Y-91306375D01*
X137668000Y-90714190D01*
X137686306Y-90669996D01*
X137730500Y-90651690D01*
X137758873Y-90658501D01*
G37*
G04 #@! TD.AperFunction*
G04 #@! TA.AperFunction,Conductor*
G36*
X145008844Y-93397806D02*
G01*
X145027150Y-93442000D01*
X145018776Y-93473251D01*
X145001992Y-93502319D01*
X145001991Y-93502322D01*
X144962501Y-93649700D01*
X144962500Y-93649708D01*
X144962500Y-93802291D01*
X144962501Y-93802299D01*
X145001990Y-93949673D01*
X145001991Y-93949677D01*
X145078286Y-94081822D01*
X145078289Y-94081826D01*
X145106781Y-94110318D01*
X145125087Y-94154512D01*
X145106781Y-94198706D01*
X145062587Y-94217012D01*
X142426239Y-94217012D01*
X142382045Y-94198706D01*
X142363739Y-94154512D01*
X142372113Y-94123262D01*
X142399005Y-94076683D01*
X142399004Y-94076683D01*
X142399008Y-94076678D01*
X142438500Y-93929293D01*
X142438500Y-93776707D01*
X142399008Y-93629322D01*
X142322715Y-93497179D01*
X142322713Y-93497177D01*
X142322710Y-93497173D01*
X142311731Y-93486194D01*
X142293425Y-93442000D01*
X142311731Y-93397806D01*
X142355925Y-93379500D01*
X143705415Y-93379500D01*
X144964650Y-93379500D01*
X145008844Y-93397806D01*
G37*
G04 #@! TD.AperFunction*
G04 #@! TA.AperFunction,Conductor*
G36*
X140018689Y-91461818D02*
G01*
X140036995Y-91506012D01*
X140036963Y-91506329D01*
X140037924Y-91507500D01*
X140839000Y-91507500D01*
X140883194Y-91525806D01*
X140901500Y-91570000D01*
X140901500Y-91699000D01*
X140883194Y-91743194D01*
X140839000Y-91761500D01*
X140037924Y-91761500D01*
X140050170Y-91823069D01*
X140050171Y-91823070D01*
X140051282Y-91824733D01*
X140051672Y-91826694D01*
X140052528Y-91828761D01*
X140052117Y-91828931D01*
X140054838Y-91842615D01*
X140061815Y-91859457D01*
X140059365Y-91865371D01*
X140060614Y-91871650D01*
X140043509Y-91903651D01*
X139989693Y-91957467D01*
X139945499Y-91975773D01*
X139901305Y-91957467D01*
X139882999Y-91913273D01*
X139882999Y-91879894D01*
X139880264Y-91856315D01*
X139837678Y-91759870D01*
X139760137Y-91682329D01*
X139741831Y-91638135D01*
X139760137Y-91593941D01*
X139775955Y-91582448D01*
X139844698Y-91547422D01*
X139930302Y-91461817D01*
X139974495Y-91443512D01*
X140018689Y-91461818D01*
G37*
G04 #@! TD.AperFunction*
G04 #@! TA.AperFunction,Conductor*
G36*
X147428694Y-87072806D02*
G01*
X147447000Y-87117000D01*
X147447000Y-87548999D01*
X147517105Y-87548999D01*
X147540684Y-87546264D01*
X147637127Y-87503679D01*
X147699926Y-87440880D01*
X147744121Y-87422574D01*
X147788315Y-87440879D01*
X147799809Y-87456699D01*
X147836482Y-87528674D01*
X147929326Y-87621518D01*
X148046311Y-87681125D01*
X148046313Y-87681125D01*
X148046316Y-87681127D01*
X148046319Y-87681127D01*
X148046321Y-87681128D01*
X148143363Y-87696498D01*
X148143365Y-87696498D01*
X148143377Y-87696500D01*
X148528622Y-87696499D01*
X148625684Y-87681127D01*
X148742674Y-87621518D01*
X148813342Y-87550850D01*
X148857536Y-87532544D01*
X148901730Y-87550850D01*
X148929694Y-87578814D01*
X148948000Y-87623008D01*
X148948000Y-87960120D01*
X148947347Y-87969131D01*
X148938500Y-88029854D01*
X148938500Y-88820512D01*
X148920194Y-88864706D01*
X148876000Y-88883012D01*
X147669954Y-88883012D01*
X147625760Y-88864706D01*
X147611416Y-88836117D01*
X147609894Y-88836588D01*
X147608460Y-88831948D01*
X147556500Y-88725661D01*
X147472838Y-88641999D01*
X147366550Y-88590039D01*
X147297646Y-88580000D01*
X146620500Y-88580000D01*
X146576306Y-88561694D01*
X146558000Y-88517500D01*
X146558000Y-87737608D01*
X146576306Y-87693414D01*
X146592126Y-87681920D01*
X146593681Y-87681127D01*
X146593684Y-87681127D01*
X146710674Y-87621518D01*
X146803518Y-87528674D01*
X146840190Y-87456699D01*
X146876564Y-87425633D01*
X146924252Y-87429386D01*
X146940072Y-87440880D01*
X147002869Y-87503677D01*
X147099319Y-87546264D01*
X147122894Y-87548999D01*
X147192999Y-87548999D01*
X147193000Y-87548998D01*
X147193000Y-87117000D01*
X147211306Y-87072806D01*
X147255500Y-87054500D01*
X147384500Y-87054500D01*
X147428694Y-87072806D01*
G37*
G04 #@! TD.AperFunction*
G04 #@! TA.AperFunction,Conductor*
G36*
X145487678Y-84201220D02*
G01*
X145487712Y-84200965D01*
X145491773Y-84201499D01*
X145491775Y-84201500D01*
X145592225Y-84201500D01*
X150311089Y-84201500D01*
X150355283Y-84219806D01*
X150984194Y-84848717D01*
X151002500Y-84892911D01*
X151002500Y-85302346D01*
X150984194Y-85346540D01*
X150977838Y-85351969D01*
X150884482Y-85445325D01*
X150856946Y-85499367D01*
X150820571Y-85530433D01*
X150772883Y-85526680D01*
X150757064Y-85515186D01*
X150693003Y-85451125D01*
X150693001Y-85451124D01*
X150594848Y-85407784D01*
X150570848Y-85405000D01*
X150495000Y-85405000D01*
X150495000Y-85827000D01*
X150476694Y-85871194D01*
X150432500Y-85889500D01*
X150303500Y-85889500D01*
X150259306Y-85871194D01*
X150241000Y-85827000D01*
X150241000Y-85405000D01*
X150165152Y-85405000D01*
X150141150Y-85407784D01*
X150042998Y-85451124D01*
X150006157Y-85487965D01*
X149961962Y-85506270D01*
X149917768Y-85487964D01*
X149899463Y-85443769D01*
X149899846Y-85436857D01*
X149927467Y-85189323D01*
X149927467Y-85189318D01*
X149927532Y-85186604D01*
X149927891Y-85186612D01*
X149929530Y-85170142D01*
X149931500Y-85162793D01*
X149931500Y-85010207D01*
X149892008Y-84862822D01*
X149815715Y-84730679D01*
X149815713Y-84730677D01*
X149815710Y-84730673D01*
X149707826Y-84622789D01*
X149707822Y-84622786D01*
X149707821Y-84622785D01*
X149616000Y-84569772D01*
X149575677Y-84546491D01*
X149575673Y-84546490D01*
X149428299Y-84507001D01*
X149428294Y-84507000D01*
X149428293Y-84507000D01*
X149275707Y-84507000D01*
X149275706Y-84507000D01*
X149275700Y-84507001D01*
X149128326Y-84546490D01*
X149128322Y-84546491D01*
X148996177Y-84622786D01*
X148996173Y-84622789D01*
X148888289Y-84730673D01*
X148888286Y-84730677D01*
X148811991Y-84862822D01*
X148811990Y-84862826D01*
X148772501Y-85010200D01*
X148772500Y-85010208D01*
X148772500Y-85037483D01*
X148754194Y-85081677D01*
X148710000Y-85099983D01*
X148665806Y-85081677D01*
X148560607Y-84976478D01*
X148549975Y-84962290D01*
X148458978Y-84796023D01*
X148453513Y-84786524D01*
X148453501Y-84786503D01*
X148452983Y-84785645D01*
X148446963Y-84776144D01*
X148443129Y-84772290D01*
X148433314Y-84759464D01*
X148418715Y-84734179D01*
X148418710Y-84734173D01*
X148310826Y-84626289D01*
X148310822Y-84626286D01*
X148310821Y-84626285D01*
X148212938Y-84569772D01*
X148178677Y-84549991D01*
X148178673Y-84549990D01*
X148031299Y-84510501D01*
X148031294Y-84510500D01*
X148031293Y-84510500D01*
X147878707Y-84510500D01*
X147878706Y-84510500D01*
X147878700Y-84510501D01*
X147731326Y-84549990D01*
X147731322Y-84549991D01*
X147599177Y-84626286D01*
X147599173Y-84626289D01*
X147491289Y-84734173D01*
X147491286Y-84734177D01*
X147414991Y-84866322D01*
X147414990Y-84866326D01*
X147375501Y-85013700D01*
X147375500Y-85013708D01*
X147375500Y-85166291D01*
X147375501Y-85166299D01*
X147389575Y-85218824D01*
X147383332Y-85266250D01*
X147345381Y-85295370D01*
X147329205Y-85297500D01*
X147132774Y-85297500D01*
X147132772Y-85297500D01*
X147132760Y-85297501D01*
X147036885Y-85312686D01*
X147036875Y-85312689D01*
X146921302Y-85371577D01*
X146900186Y-85392694D01*
X146855992Y-85411000D01*
X146795080Y-85411000D01*
X146750886Y-85392694D01*
X146710673Y-85352481D01*
X146593688Y-85292874D01*
X146593678Y-85292871D01*
X146496636Y-85277501D01*
X146496624Y-85277500D01*
X146496623Y-85277500D01*
X146496620Y-85277500D01*
X146111381Y-85277500D01*
X146111376Y-85277501D01*
X146014314Y-85292873D01*
X145897326Y-85352481D01*
X145858614Y-85391194D01*
X145814420Y-85409500D01*
X145616397Y-85409500D01*
X145588023Y-85402688D01*
X145540559Y-85378503D01*
X145540549Y-85378500D01*
X145467722Y-85366965D01*
X145426936Y-85341971D01*
X145415000Y-85305235D01*
X145415000Y-84262380D01*
X145433306Y-84218186D01*
X145477500Y-84199880D01*
X145487678Y-84201220D01*
G37*
G04 #@! TD.AperFunction*
G04 #@! TD*
G04 #@! TA.AperFunction,Conductor*
G04 #@! TO.N,GNDD*
G36*
X152296412Y-87511372D02*
G01*
X152317063Y-87523295D01*
X152352341Y-87543663D01*
X152352344Y-87543664D01*
X152392711Y-87554480D01*
X152467427Y-87574500D01*
X152467428Y-87574500D01*
X152586571Y-87574500D01*
X152586573Y-87574500D01*
X152586581Y-87574498D01*
X152605233Y-87569500D01*
X152661287Y-87554480D01*
X152708711Y-87560723D01*
X152721656Y-87570656D01*
X152889694Y-87738694D01*
X152908000Y-87782888D01*
X152908000Y-102209112D01*
X152889694Y-102253306D01*
X152672306Y-102470694D01*
X152628112Y-102489000D01*
X146887933Y-102489000D01*
X146843739Y-102470694D01*
X146626351Y-102253306D01*
X146608045Y-102209112D01*
X146608045Y-101581450D01*
X146609376Y-101571488D01*
X146609217Y-101571470D01*
X146612500Y-101543173D01*
X146612500Y-101543105D01*
X146758001Y-101543105D01*
X146760735Y-101566684D01*
X146803321Y-101663129D01*
X146877869Y-101737677D01*
X146974319Y-101780264D01*
X146997894Y-101782999D01*
X147125499Y-101782999D01*
X147379500Y-101782999D01*
X147507105Y-101782999D01*
X147530684Y-101780264D01*
X147627129Y-101737678D01*
X147701677Y-101663130D01*
X147744264Y-101566680D01*
X147747000Y-101543105D01*
X147747000Y-101473000D01*
X147379500Y-101473000D01*
X147379500Y-101782999D01*
X147125499Y-101782999D01*
X147125500Y-101782998D01*
X147125500Y-101473000D01*
X146758001Y-101473000D01*
X146758001Y-101543105D01*
X146612500Y-101543105D01*
X146612500Y-101148894D01*
X146758000Y-101148894D01*
X146758000Y-101219000D01*
X147125500Y-101219000D01*
X147379500Y-101219000D01*
X147746999Y-101219000D01*
X147746999Y-101148894D01*
X147744264Y-101125315D01*
X147701678Y-101028870D01*
X147627130Y-100954322D01*
X147530680Y-100911735D01*
X147507106Y-100909000D01*
X147379500Y-100909000D01*
X147379500Y-101219000D01*
X147125500Y-101219000D01*
X147125500Y-100909000D01*
X146997894Y-100909000D01*
X146974315Y-100911735D01*
X146877870Y-100954321D01*
X146803322Y-101028869D01*
X146760735Y-101125319D01*
X146758000Y-101148894D01*
X146612500Y-101148894D01*
X146612500Y-101148818D01*
X146609218Y-101120533D01*
X146609376Y-101120514D01*
X146608045Y-101110550D01*
X146608045Y-100863888D01*
X146626351Y-100819694D01*
X146843739Y-100602306D01*
X146887933Y-100584000D01*
X147696194Y-100584000D01*
X147740388Y-100602306D01*
X148048947Y-100910865D01*
X148060579Y-100926958D01*
X148081228Y-100967986D01*
X148293704Y-101390159D01*
X148295188Y-101393109D01*
X148295337Y-101393659D01*
X148296341Y-101395399D01*
X148297145Y-101396996D01*
X148297153Y-101397010D01*
X148322486Y-101447343D01*
X148326250Y-101454297D01*
X148326953Y-101455508D01*
X148332727Y-101461676D01*
X148341222Y-101473134D01*
X148354910Y-101496842D01*
X148354914Y-101496846D01*
X148439152Y-101581085D01*
X148439156Y-101581088D01*
X148439158Y-101581090D01*
X148542341Y-101640663D01*
X148542344Y-101640664D01*
X148612769Y-101659534D01*
X148657427Y-101671500D01*
X148657428Y-101671500D01*
X148776572Y-101671500D01*
X148776573Y-101671500D01*
X148891659Y-101640663D01*
X148994842Y-101581090D01*
X149079090Y-101496842D01*
X149138663Y-101393659D01*
X149169500Y-101278573D01*
X149169500Y-101159427D01*
X149138663Y-101044341D01*
X149079090Y-100941158D01*
X149079088Y-100941156D01*
X149079085Y-100941152D01*
X148994847Y-100856914D01*
X148994841Y-100856909D01*
X148968053Y-100841443D01*
X148968053Y-100841442D01*
X148964281Y-100839264D01*
X148945342Y-100824486D01*
X148893433Y-100798360D01*
X148891869Y-100797457D01*
X148891419Y-100797197D01*
X148888138Y-100795695D01*
X148702625Y-100702328D01*
X148671379Y-100666108D01*
X148674895Y-100618402D01*
X148711115Y-100587156D01*
X148730723Y-100584000D01*
X148971000Y-100584000D01*
X149352000Y-100151343D01*
X149352000Y-97792000D01*
X149370306Y-97747806D01*
X149414500Y-97729500D01*
X149427924Y-97729500D01*
X149451963Y-97726711D01*
X149550291Y-97683295D01*
X149626295Y-97607291D01*
X149629623Y-97599754D01*
X149638111Y-97591648D01*
X149642603Y-97580806D01*
X149654727Y-97575783D01*
X149664220Y-97566720D01*
X149686797Y-97562500D01*
X149779203Y-97562500D01*
X149823397Y-97580806D01*
X149836377Y-97599754D01*
X149839705Y-97607291D01*
X149915709Y-97683295D01*
X150014037Y-97726711D01*
X150038076Y-97729500D01*
X150443924Y-97729500D01*
X150467963Y-97726711D01*
X150566291Y-97683295D01*
X150642295Y-97607291D01*
X150645623Y-97599754D01*
X150654111Y-97591648D01*
X150658603Y-97580806D01*
X150670727Y-97575783D01*
X150680220Y-97566720D01*
X150702797Y-97562500D01*
X150795203Y-97562500D01*
X150839397Y-97580806D01*
X150852377Y-97599754D01*
X150855705Y-97607291D01*
X150931709Y-97683295D01*
X151030037Y-97726711D01*
X151054076Y-97729500D01*
X151459924Y-97729500D01*
X151483963Y-97726711D01*
X151582291Y-97683295D01*
X151658295Y-97607291D01*
X151701711Y-97508963D01*
X151704500Y-97484924D01*
X151704500Y-97469105D01*
X151836001Y-97469105D01*
X151838735Y-97492684D01*
X151881321Y-97589129D01*
X151955869Y-97663677D01*
X152052319Y-97706264D01*
X152075894Y-97708999D01*
X152145999Y-97708999D01*
X152400000Y-97708999D01*
X152470105Y-97708999D01*
X152493684Y-97706264D01*
X152590129Y-97663678D01*
X152664677Y-97589130D01*
X152707264Y-97492680D01*
X152710000Y-97469105D01*
X152710000Y-97341500D01*
X152400000Y-97341500D01*
X152400000Y-97708999D01*
X152145999Y-97708999D01*
X152146000Y-97708998D01*
X152146000Y-97341500D01*
X151836001Y-97341500D01*
X151836001Y-97469105D01*
X151704500Y-97469105D01*
X151704500Y-97004076D01*
X151701711Y-96980037D01*
X151701708Y-96980031D01*
X151701676Y-96979909D01*
X151701686Y-96979827D01*
X151701169Y-96975367D01*
X151702272Y-96975238D01*
X151707737Y-96932459D01*
X151745575Y-96903192D01*
X151761984Y-96901000D01*
X151773500Y-96901000D01*
X151817694Y-96919306D01*
X151836000Y-96963500D01*
X151836000Y-97087500D01*
X152146000Y-97087500D01*
X152400000Y-97087500D01*
X152709999Y-97087500D01*
X152709999Y-96959894D01*
X152707264Y-96936315D01*
X152664678Y-96839870D01*
X152590130Y-96765322D01*
X152493680Y-96722735D01*
X152470106Y-96720000D01*
X152400000Y-96720000D01*
X152400000Y-97087500D01*
X152146000Y-97087500D01*
X152146000Y-96720000D01*
X152075894Y-96720000D01*
X152052316Y-96722735D01*
X151979745Y-96754779D01*
X151966624Y-96755081D01*
X151954500Y-96760104D01*
X151943655Y-96755612D01*
X151931922Y-96755883D01*
X151922430Y-96746820D01*
X151910306Y-96741798D01*
X151905814Y-96730955D01*
X151897325Y-96722849D01*
X151892000Y-96697604D01*
X151892000Y-96596940D01*
X151910306Y-96552746D01*
X151954500Y-96534440D01*
X151979743Y-96539765D01*
X152052201Y-96571759D01*
X152075826Y-96574500D01*
X152470174Y-96574500D01*
X152493799Y-96571759D01*
X152590416Y-96529098D01*
X152665098Y-96454416D01*
X152707759Y-96357799D01*
X152710500Y-96334174D01*
X152710500Y-95824826D01*
X152707759Y-95801201D01*
X152702841Y-95790064D01*
X152698170Y-95755799D01*
X152721257Y-95597561D01*
X152721007Y-95591209D01*
X152723088Y-95572571D01*
X152725500Y-95563573D01*
X152725500Y-95444427D01*
X152708933Y-95382598D01*
X152694664Y-95329344D01*
X152694663Y-95329341D01*
X152677159Y-95299023D01*
X152635090Y-95226158D01*
X152635088Y-95226156D01*
X152635085Y-95226152D01*
X152550847Y-95141914D01*
X152550843Y-95141911D01*
X152550842Y-95141910D01*
X152453841Y-95085906D01*
X152447658Y-95082336D01*
X152447655Y-95082335D01*
X152332579Y-95051501D01*
X152332574Y-95051500D01*
X152332573Y-95051500D01*
X152213427Y-95051500D01*
X152213426Y-95051500D01*
X152213420Y-95051501D01*
X152098344Y-95082335D01*
X152098341Y-95082336D01*
X151995156Y-95141911D01*
X151995152Y-95141914D01*
X151910914Y-95226152D01*
X151910911Y-95226156D01*
X151851336Y-95329341D01*
X151851335Y-95329344D01*
X151820501Y-95444420D01*
X151820500Y-95444428D01*
X151820500Y-95563571D01*
X151820501Y-95563579D01*
X151822972Y-95572803D01*
X151825099Y-95588454D01*
X151825114Y-95590323D01*
X151824742Y-95597562D01*
X151825201Y-95600710D01*
X151825237Y-95604978D01*
X151817748Y-95623492D01*
X151812854Y-95642846D01*
X151808988Y-95645150D01*
X151807301Y-95649324D01*
X151788915Y-95657119D01*
X151771769Y-95667344D01*
X151763363Y-95667954D01*
X151763261Y-95667998D01*
X151763185Y-95667967D01*
X151762739Y-95668000D01*
X151665474Y-95668000D01*
X151621280Y-95649694D01*
X151594347Y-95622761D01*
X151576041Y-95578567D01*
X151594347Y-95534373D01*
X151597460Y-95531260D01*
X151597463Y-95531257D01*
X151628500Y-95477499D01*
X151639329Y-95458743D01*
X151661000Y-95377865D01*
X151661000Y-95139820D01*
X151662201Y-95127627D01*
X151670500Y-95085906D01*
X151670500Y-93766094D01*
X151662201Y-93724371D01*
X151661000Y-93712178D01*
X151661000Y-92246136D01*
X151660999Y-92246130D01*
X151641459Y-92173207D01*
X151641458Y-92173203D01*
X151639329Y-92165257D01*
X151639329Y-92165256D01*
X151637503Y-92162094D01*
X151597465Y-92092746D01*
X151597458Y-92092737D01*
X150884762Y-91380041D01*
X150884756Y-91380036D01*
X150812246Y-91338171D01*
X150812243Y-91338170D01*
X150731371Y-91316501D01*
X150731366Y-91316500D01*
X150731365Y-91316500D01*
X150731364Y-91316500D01*
X149414500Y-91316500D01*
X149370306Y-91298194D01*
X149352000Y-91254000D01*
X149352000Y-89628500D01*
X149370306Y-89584306D01*
X149414500Y-89566000D01*
X149515406Y-89566000D01*
X149581766Y-89552800D01*
X149657018Y-89502518D01*
X149666033Y-89489025D01*
X149705806Y-89462449D01*
X149752722Y-89471781D01*
X149769967Y-89489026D01*
X149778981Y-89502517D01*
X149854232Y-89552799D01*
X149854234Y-89552800D01*
X149920594Y-89566000D01*
X150165406Y-89566000D01*
X150231766Y-89552800D01*
X150307018Y-89502518D01*
X150316033Y-89489025D01*
X150355806Y-89462449D01*
X150402722Y-89471781D01*
X150419967Y-89489026D01*
X150428981Y-89502517D01*
X150504232Y-89552799D01*
X150504234Y-89552800D01*
X150570594Y-89566000D01*
X150815406Y-89566000D01*
X150881766Y-89552800D01*
X150957018Y-89502518D01*
X150966333Y-89488576D01*
X151006106Y-89462000D01*
X151053022Y-89471332D01*
X151070267Y-89488576D01*
X151079342Y-89502157D01*
X151154426Y-89552327D01*
X151154430Y-89552329D01*
X151215999Y-89564576D01*
X151470000Y-89564576D01*
X151531569Y-89552329D01*
X151531573Y-89552327D01*
X151606657Y-89502157D01*
X151656828Y-89427072D01*
X151656829Y-89427070D01*
X151669999Y-89360856D01*
X151670000Y-89360856D01*
X151670000Y-88828000D01*
X151470000Y-88828000D01*
X151470000Y-89564576D01*
X151215999Y-89564576D01*
X151216000Y-89564575D01*
X151216000Y-88574000D01*
X151470000Y-88574000D01*
X151670000Y-88574000D01*
X151670000Y-88041144D01*
X151669999Y-88041143D01*
X151656829Y-87974929D01*
X151656828Y-87974927D01*
X151606657Y-87899842D01*
X151531571Y-87849671D01*
X151470000Y-87837423D01*
X151470000Y-88574000D01*
X151216000Y-88574000D01*
X151216000Y-87810357D01*
X151234305Y-87766164D01*
X151412664Y-87587806D01*
X151456858Y-87569500D01*
X151586924Y-87569500D01*
X151610963Y-87566711D01*
X151709291Y-87523295D01*
X151711280Y-87521306D01*
X151713593Y-87520347D01*
X151714069Y-87520022D01*
X151714137Y-87520122D01*
X151755474Y-87503000D01*
X152265164Y-87503000D01*
X152296412Y-87511372D01*
G37*
G04 #@! TD.AperFunction*
G04 #@! TD*
G04 #@! TA.AperFunction,Conductor*
G04 #@! TO.N,+3.3V*
G36*
X152580816Y-95565262D02*
G01*
X152588277Y-95570214D01*
X152590145Y-95578433D01*
X152528461Y-96001234D01*
X152523876Y-96008926D01*
X152516884Y-96011245D01*
X152029116Y-96011245D01*
X152020843Y-96007818D01*
X152017539Y-96001234D01*
X151955854Y-95578433D01*
X151958050Y-95569752D01*
X151965181Y-95565262D01*
X152270753Y-95505440D01*
X152275247Y-95505440D01*
X152580816Y-95565262D01*
G37*
G04 #@! TD.AperFunction*
G04 #@! TD*
G04 #@! TA.AperFunction,Conductor*
G04 #@! TO.N,+3.3V*
G36*
X149660257Y-85147782D02*
G01*
X149667687Y-85152779D01*
X149669567Y-85160547D01*
X149607161Y-85719852D01*
X149602838Y-85727695D01*
X149595533Y-85730255D01*
X149108467Y-85730255D01*
X149100194Y-85726828D01*
X149096839Y-85719852D01*
X149034432Y-85160545D01*
X149036920Y-85151945D01*
X149043740Y-85147783D01*
X149349684Y-85085968D01*
X149354316Y-85085968D01*
X149660257Y-85147782D01*
G37*
G04 #@! TD.AperFunction*
G04 #@! TD*
G04 #@! TA.AperFunction,Conductor*
G04 #@! TO.N,+3.3V*
G36*
X146365484Y-101530139D02*
G01*
X146368911Y-101538412D01*
X146368681Y-101540720D01*
X146244051Y-102159993D01*
X146239059Y-102167428D01*
X146230333Y-102169167D01*
X145925318Y-102109453D01*
X145921041Y-102107683D01*
X145661492Y-101933298D01*
X145656536Y-101925839D01*
X145657661Y-101918141D01*
X145860211Y-101532965D01*
X145867094Y-101527239D01*
X145870566Y-101526712D01*
X146357211Y-101526712D01*
X146365484Y-101530139D01*
G37*
G04 #@! TD.AperFunction*
G04 #@! TD*
G04 #@! TA.AperFunction,Conductor*
G04 #@! TO.N,GNDA*
G36*
X147326228Y-88445560D02*
G01*
X147056000Y-88266000D01*
X146785772Y-88084440D01*
X147002500Y-87730597D01*
X147637500Y-87730597D01*
X147326228Y-88445560D01*
G37*
G04 #@! TD.AperFunction*
G04 #@! TD*
G04 #@! TA.AperFunction,Conductor*
G04 #@! TO.N,GNDA*
G36*
X142114000Y-91313000D02*
G01*
X142176404Y-91631755D01*
X141602414Y-91825000D01*
X141602414Y-91444000D01*
X141842772Y-91132440D01*
X142114000Y-91313000D01*
G37*
G04 #@! TD.AperFunction*
G04 #@! TD*
G04 #@! TA.AperFunction,Conductor*
G04 #@! TO.N,GNDA*
G36*
X147526261Y-96658225D02*
G01*
X147463857Y-96976980D01*
X147399453Y-97295735D01*
X146841294Y-97114000D01*
X146841294Y-96606000D01*
X147526261Y-96658225D01*
G37*
G04 #@! TD.AperFunction*
G04 #@! TD*
G04 #@! TA.AperFunction,Conductor*
G04 #@! TO.N,Net-(D1-A)*
G36*
X142880991Y-84184378D02*
G01*
X143130049Y-84298421D01*
X143424109Y-84433071D01*
X143430204Y-84439631D01*
X143429876Y-84448580D01*
X143428986Y-84450180D01*
X143258014Y-84707737D01*
X143254737Y-84711014D01*
X142996353Y-84882535D01*
X142987565Y-84884255D01*
X142980134Y-84879258D01*
X142979637Y-84878438D01*
X142698243Y-84368301D01*
X142697248Y-84359402D01*
X142700213Y-84354379D01*
X142867849Y-84186743D01*
X142876121Y-84183317D01*
X142880991Y-84184378D01*
G37*
G04 #@! TD.AperFunction*
G04 #@! TD*
G04 #@! TA.AperFunction,Conductor*
G04 #@! TO.N,Net-(D1-A)*
G36*
X142995552Y-84535033D02*
G01*
X142996763Y-84535736D01*
X143254737Y-84706985D01*
X143258014Y-84710262D01*
X143429263Y-84968236D01*
X143430983Y-84977024D01*
X143425986Y-84984455D01*
X143424775Y-84985158D01*
X142898152Y-85250204D01*
X142889221Y-85250862D01*
X142884619Y-85248026D01*
X142716973Y-85080380D01*
X142713546Y-85072107D01*
X142714794Y-85066850D01*
X142979841Y-84540223D01*
X142986621Y-84534375D01*
X142995552Y-84535033D01*
G37*
G04 #@! TD.AperFunction*
G04 #@! TD*
G04 #@! TA.AperFunction,Conductor*
G04 #@! TO.N,Net-(D1-K)*
G36*
X144267213Y-84703562D02*
G01*
X144274671Y-84708513D01*
X144274703Y-84708560D01*
X144445198Y-84964670D01*
X144446930Y-84973456D01*
X144441943Y-84980893D01*
X144440661Y-84981634D01*
X144099459Y-85151003D01*
X144049248Y-85175929D01*
X144020458Y-85190220D01*
X144015256Y-85191440D01*
X143780405Y-85191440D01*
X143772132Y-85188013D01*
X143768705Y-85179740D01*
X143769343Y-85175929D01*
X143949928Y-84651721D01*
X143955863Y-84645017D01*
X143963236Y-84644052D01*
X144267213Y-84703562D01*
G37*
G04 #@! TD.AperFunction*
G04 #@! TD*
G04 #@! TA.AperFunction,Conductor*
G04 #@! TO.N,Net-(D1-K)*
G36*
X144643380Y-84166473D02*
G01*
X144811026Y-84334119D01*
X144814453Y-84342392D01*
X144813204Y-84347652D01*
X144548158Y-84874275D01*
X144541378Y-84880124D01*
X144532447Y-84879466D01*
X144531236Y-84878763D01*
X144273262Y-84707514D01*
X144269985Y-84704237D01*
X144098736Y-84446263D01*
X144097016Y-84437475D01*
X144102013Y-84430044D01*
X144103224Y-84429341D01*
X144629849Y-84164294D01*
X144638778Y-84163637D01*
X144643380Y-84166473D01*
G37*
G04 #@! TD.AperFunction*
G04 #@! TD*
G04 #@! TA.AperFunction,Conductor*
G04 #@! TO.N,VCC*
G36*
X139956969Y-100539478D02*
G01*
X140315434Y-100781766D01*
X140320369Y-100789238D01*
X140318621Y-100797943D01*
X140147203Y-101055439D01*
X140139766Y-101060426D01*
X140139712Y-101060437D01*
X139837015Y-101119697D01*
X139828237Y-101117924D01*
X139823329Y-101110676D01*
X139812517Y-101060426D01*
X139703047Y-100551632D01*
X139704657Y-100542823D01*
X139712024Y-100537733D01*
X139714485Y-100537471D01*
X139950417Y-100537471D01*
X139956969Y-100539478D01*
G37*
G04 #@! TD.AperFunction*
G04 #@! TD*
G04 #@! TA.AperFunction,Conductor*
G04 #@! TO.N,VCC*
G36*
X146029760Y-90793875D02*
G01*
X146037996Y-90797390D01*
X146041334Y-90805574D01*
X146041334Y-91167505D01*
X146037907Y-91175778D01*
X146034526Y-91178133D01*
X145611569Y-91372829D01*
X145602621Y-91373176D01*
X145596965Y-91368726D01*
X145423684Y-91110820D01*
X145421915Y-91102043D01*
X145483448Y-90797497D01*
X145488445Y-90790067D01*
X145495041Y-90788116D01*
X146029760Y-90793875D01*
G37*
G04 #@! TD.AperFunction*
G04 #@! TD*
G04 #@! TA.AperFunction,Conductor*
G04 #@! TO.N,VCC*
G36*
X147849785Y-94663914D02*
G01*
X148504342Y-94973984D01*
X148510350Y-94980622D01*
X148509906Y-94989566D01*
X148509077Y-94991032D01*
X148338302Y-95248039D01*
X148335041Y-95251303D01*
X148074318Y-95424870D01*
X148065532Y-95426602D01*
X148059020Y-95422825D01*
X147835963Y-95167306D01*
X147833077Y-95159612D01*
X147833077Y-94674489D01*
X147836504Y-94666216D01*
X147844777Y-94662789D01*
X147849785Y-94663914D01*
G37*
G04 #@! TD.AperFunction*
G04 #@! TD*
G04 #@! TA.AperFunction,Conductor*
G04 #@! TO.N,VEE*
G36*
X140331965Y-96469672D02*
G01*
X140335385Y-96477547D01*
X140354417Y-97036692D01*
X140351274Y-97045077D01*
X140345041Y-97048558D01*
X140038317Y-97110531D01*
X140033683Y-97110531D01*
X139728571Y-97048884D01*
X139721140Y-97043887D01*
X139719392Y-97035242D01*
X139825198Y-96475770D01*
X139830102Y-96468279D01*
X139836694Y-96466245D01*
X140323692Y-96466245D01*
X140331965Y-96469672D01*
G37*
G04 #@! TD.AperFunction*
G04 #@! TD*
G04 #@! TA.AperFunction,Conductor*
G04 #@! TO.N,VEE*
G36*
X139402276Y-90456646D02*
G01*
X139409712Y-90461632D01*
X139411673Y-90468177D01*
X139410017Y-90785972D01*
X139406590Y-90794184D01*
X139063329Y-91137445D01*
X139055056Y-91140872D01*
X139046783Y-91137445D01*
X139044193Y-91133517D01*
X138907105Y-90790783D01*
X138779429Y-90471580D01*
X138779538Y-90462627D01*
X138785947Y-90456373D01*
X138787980Y-90455767D01*
X139089955Y-90394896D01*
X139094569Y-90394894D01*
X139402276Y-90456646D01*
G37*
G04 #@! TD.AperFunction*
G04 #@! TD*
G04 #@! TA.AperFunction,Conductor*
G04 #@! TO.N,VEE*
G36*
X148230830Y-84919765D02*
G01*
X148231348Y-84920623D01*
X148580522Y-85558623D01*
X148581488Y-85567525D01*
X148575876Y-85574503D01*
X148570259Y-85575940D01*
X148085694Y-85575940D01*
X148078976Y-85573819D01*
X147783789Y-85366785D01*
X147778983Y-85359229D01*
X147780768Y-85350722D01*
X147953697Y-85090956D01*
X147956958Y-85087698D01*
X148214610Y-84916494D01*
X148223397Y-84914771D01*
X148230830Y-84919765D01*
G37*
G04 #@! TD.AperFunction*
G04 #@! TD*
G04 #@! TA.AperFunction,Conductor*
G04 #@! TO.N,/AD_ID*
G36*
X146071945Y-88475688D02*
G01*
X146072407Y-88476443D01*
X146277334Y-88841331D01*
X146278833Y-88847059D01*
X146278833Y-89206649D01*
X146275406Y-89214922D01*
X146267133Y-89218349D01*
X146262196Y-89217256D01*
X145627781Y-88921972D01*
X145621726Y-88915374D01*
X145622111Y-88906428D01*
X145622968Y-88904897D01*
X145793698Y-88647958D01*
X145796956Y-88644697D01*
X146055724Y-88472432D01*
X146064508Y-88470701D01*
X146071945Y-88475688D01*
G37*
G04 #@! TD.AperFunction*
G04 #@! TD*
G04 #@! TA.AperFunction,Conductor*
G04 #@! TO.N,/SW_VRH*
G36*
X148359150Y-100677794D02*
G01*
X148363479Y-100679973D01*
X148885775Y-100942841D01*
X148891624Y-100949621D01*
X148890966Y-100958552D01*
X148890263Y-100959763D01*
X148719014Y-101217737D01*
X148715737Y-101221014D01*
X148457763Y-101392263D01*
X148448975Y-101393983D01*
X148441544Y-101388986D01*
X148440841Y-101387775D01*
X148321564Y-101150782D01*
X148175794Y-100861151D01*
X148175137Y-100852221D01*
X148177971Y-100847621D01*
X148345620Y-100679972D01*
X148353892Y-100676546D01*
X148359150Y-100677794D01*
G37*
G04 #@! TD.AperFunction*
G04 #@! TD*
G04 #@! TA.AperFunction,Conductor*
G04 #@! TO.N,/AD_IRP*
G36*
X146149816Y-93397498D02*
G01*
X146153405Y-93405702D01*
X146153407Y-93405932D01*
X146153407Y-93767855D01*
X146149980Y-93776128D01*
X146147051Y-93778263D01*
X145731814Y-93991476D01*
X145722889Y-93992207D01*
X145716758Y-93987593D01*
X145542316Y-93727958D01*
X145540546Y-93723681D01*
X145540514Y-93723519D01*
X145481272Y-93420915D01*
X145483045Y-93412139D01*
X145490506Y-93407187D01*
X145492516Y-93406971D01*
X146141477Y-93394234D01*
X146149816Y-93397498D01*
G37*
G04 #@! TD.AperFunction*
G04 #@! TD*
G04 #@! TA.AperFunction,Conductor*
G04 #@! TO.N,/AD_IIN*
G36*
X139380741Y-88634306D02*
G01*
X139798787Y-88840780D01*
X139804687Y-88847516D01*
X139805306Y-88851270D01*
X139805306Y-89213191D01*
X139801879Y-89221464D01*
X139793606Y-89224891D01*
X139793498Y-89224891D01*
X139141675Y-89218884D01*
X139133434Y-89215381D01*
X139130083Y-89207076D01*
X139130301Y-89204936D01*
X139189546Y-88902318D01*
X139191316Y-88898041D01*
X139222741Y-88851270D01*
X139365849Y-88638271D01*
X139373308Y-88633316D01*
X139380741Y-88634306D01*
G37*
G04 #@! TD.AperFunction*
G04 #@! TD*
G04 #@! TA.AperFunction,Conductor*
G04 #@! TO.N,/AD_CMP*
G36*
X150810031Y-92833816D02*
G01*
X150814983Y-92841277D01*
X150815132Y-92842260D01*
X150882090Y-93457823D01*
X150879578Y-93466418D01*
X150871724Y-93470719D01*
X150870459Y-93470788D01*
X150508596Y-93470788D01*
X150500323Y-93467361D01*
X150499007Y-93465792D01*
X150231601Y-93083328D01*
X150229669Y-93074584D01*
X150234486Y-93067035D01*
X150234591Y-93066962D01*
X150493041Y-92893315D01*
X150497317Y-92891546D01*
X150801254Y-92832043D01*
X150810031Y-92833816D01*
G37*
G04 #@! TD.AperFunction*
G04 #@! TD*
G04 #@! TA.AperFunction,Conductor*
G04 #@! TO.N,/AD_IRN*
G36*
X141340840Y-93397383D02*
G01*
X141354081Y-93400500D01*
X141911437Y-93531664D01*
X141918705Y-93536895D01*
X141920239Y-93545301D01*
X141860453Y-93850681D01*
X141858683Y-93854958D01*
X141686327Y-94111489D01*
X141678868Y-94116445D01*
X141670090Y-94114676D01*
X141668386Y-94113281D01*
X141329932Y-93778434D01*
X141326461Y-93770180D01*
X141326461Y-93408773D01*
X141329888Y-93400500D01*
X141338161Y-93397073D01*
X141340840Y-93397383D01*
G37*
G04 #@! TD.AperFunction*
G04 #@! TD*
G04 #@! TA.AperFunction,Conductor*
G04 #@! TO.N,VREF*
G36*
X146297519Y-97615914D02*
G01*
X146297697Y-97616029D01*
X146556737Y-97787985D01*
X146560014Y-97791262D01*
X146731970Y-98050302D01*
X146733690Y-98059090D01*
X146728693Y-98066521D01*
X146728515Y-98066636D01*
X146245422Y-98374852D01*
X146236604Y-98376413D01*
X146230856Y-98373262D01*
X145974737Y-98117143D01*
X145971310Y-98108870D01*
X145973147Y-98102577D01*
X146171768Y-97791262D01*
X146281364Y-97619482D01*
X146288701Y-97614353D01*
X146297519Y-97615914D01*
G37*
G04 #@! TD.AperFunction*
G04 #@! TD*
G04 #@! TA.AperFunction,Conductor*
G04 #@! TO.N,/AD_REF+*
G36*
X143632824Y-96962620D02*
G01*
X143640255Y-96967617D01*
X143641975Y-96976405D01*
X143641616Y-96977759D01*
X143456653Y-97537555D01*
X143450804Y-97544335D01*
X143445544Y-97545584D01*
X143208456Y-97545584D01*
X143200183Y-97542157D01*
X143197347Y-97537555D01*
X143012383Y-96977757D01*
X143013041Y-96968828D01*
X143019821Y-96962979D01*
X143021166Y-96962622D01*
X143324684Y-96901297D01*
X143329316Y-96901297D01*
X143632824Y-96962620D01*
G37*
G04 #@! TD.AperFunction*
G04 #@! TD*
G04 #@! TA.AperFunction,Conductor*
G04 #@! TO.N,/AD_REF+*
G36*
X143453817Y-96261501D02*
G01*
X143456653Y-96266103D01*
X143641616Y-96825898D01*
X143640958Y-96834829D01*
X143634178Y-96840678D01*
X143632824Y-96841037D01*
X143329317Y-96902360D01*
X143324683Y-96902360D01*
X143021175Y-96841037D01*
X143013744Y-96836040D01*
X143012024Y-96827252D01*
X143012378Y-96825914D01*
X143197347Y-96266102D01*
X143203196Y-96259323D01*
X143208456Y-96258074D01*
X143445544Y-96258074D01*
X143453817Y-96261501D01*
G37*
G04 #@! TD.AperFunction*
G04 #@! TD*
G04 #@! TA.AperFunction,Conductor*
G04 #@! TO.N,Net-(RN1-Pad6)*
G36*
X145362955Y-91969277D02*
G01*
X145922561Y-92091984D01*
X145929908Y-92097103D01*
X145931755Y-92103412D01*
X145931755Y-92465619D01*
X145928328Y-92473892D01*
X145922598Y-92477039D01*
X145363051Y-92601660D01*
X145354231Y-92600114D01*
X145349088Y-92592783D01*
X145349040Y-92592557D01*
X145323392Y-92465619D01*
X145287468Y-92287816D01*
X145287468Y-92283183D01*
X145349048Y-91978401D01*
X145354045Y-91970972D01*
X145362833Y-91969252D01*
X145362955Y-91969277D01*
G37*
G04 #@! TD.AperFunction*
G04 #@! TD*
G04 #@! TA.AperFunction,Conductor*
G04 #@! TO.N,/AD_REF-*
G36*
X144506824Y-96961791D02*
G01*
X144514255Y-96966788D01*
X144515975Y-96975576D01*
X144515616Y-96976930D01*
X144330653Y-97536726D01*
X144324804Y-97543506D01*
X144319544Y-97544755D01*
X144082456Y-97544755D01*
X144074183Y-97541328D01*
X144071347Y-97536726D01*
X143886383Y-96976928D01*
X143887041Y-96967999D01*
X143893821Y-96962150D01*
X143895166Y-96961793D01*
X144198684Y-96900468D01*
X144203316Y-96900468D01*
X144506824Y-96961791D01*
G37*
G04 #@! TD.AperFunction*
G04 #@! TD*
G04 #@! TA.AperFunction,Conductor*
G04 #@! TO.N,/AD_REF-*
G36*
X144327817Y-96260672D02*
G01*
X144330653Y-96265274D01*
X144515616Y-96825069D01*
X144514958Y-96834000D01*
X144508178Y-96839849D01*
X144506824Y-96840208D01*
X144203317Y-96901531D01*
X144198683Y-96901531D01*
X143895175Y-96840208D01*
X143887744Y-96835211D01*
X143886024Y-96826423D01*
X143886378Y-96825085D01*
X144071347Y-96265273D01*
X144077196Y-96258494D01*
X144082456Y-96257245D01*
X144319544Y-96257245D01*
X144327817Y-96260672D01*
G37*
G04 #@! TD.AperFunction*
G04 #@! TD*
G04 #@! TA.AperFunction,Conductor*
G04 #@! TO.N,Net-(RN1-Pad5)*
G36*
X142002280Y-91969876D02*
G01*
X142007411Y-91977214D01*
X142007455Y-91977422D01*
X142069031Y-92282183D01*
X142069031Y-92286817D01*
X142007455Y-92591577D01*
X142002458Y-92599008D01*
X141993670Y-92600728D01*
X141993462Y-92600684D01*
X141433920Y-92477027D01*
X141426582Y-92471896D01*
X141424745Y-92465603D01*
X141424745Y-92103396D01*
X141428172Y-92095123D01*
X141433918Y-92091972D01*
X141993464Y-91968315D01*
X142002280Y-91969876D01*
G37*
G04 #@! TD.AperFunction*
G04 #@! TD*
G04 #@! TA.AperFunction,Conductor*
G04 #@! TO.N,Net-(RN1-Pad7)*
G36*
X142935502Y-89347589D02*
G01*
X142940899Y-89354734D01*
X142941043Y-89355359D01*
X143002531Y-89659683D01*
X143002531Y-89664317D01*
X142940869Y-89969504D01*
X142935872Y-89976935D01*
X142927303Y-89978697D01*
X142367847Y-89876749D01*
X142360323Y-89871895D01*
X142358245Y-89865239D01*
X142358245Y-89503048D01*
X142361672Y-89494775D01*
X142366999Y-89491725D01*
X142926634Y-89346352D01*
X142935502Y-89347589D01*
G37*
G04 #@! TD.AperFunction*
G04 #@! TD*
G04 #@! TA.AperFunction,Conductor*
G04 #@! TO.N,Net-(RN2-Pad7)*
G36*
X140832096Y-98764680D02*
G01*
X140850234Y-98776800D01*
X140865921Y-98779920D01*
X140868874Y-98780933D01*
X141270677Y-98982264D01*
X141276539Y-98989033D01*
X141277136Y-98992723D01*
X141277136Y-99229791D01*
X141273709Y-99238064D01*
X141267594Y-99241290D01*
X140716858Y-99344638D01*
X140708095Y-99342796D01*
X140703232Y-99335457D01*
X140642081Y-99032798D01*
X140643800Y-99024013D01*
X140815889Y-98767881D01*
X140823345Y-98762928D01*
X140832096Y-98764680D01*
G37*
G04 #@! TD.AperFunction*
G04 #@! TD*
G04 #@! TA.AperFunction,Conductor*
G04 #@! TO.N,Net-(U3B--)*
G36*
X144906817Y-97022672D02*
G01*
X144909653Y-97027274D01*
X145094616Y-97587069D01*
X145093958Y-97596000D01*
X145087178Y-97601849D01*
X145085824Y-97602208D01*
X144782317Y-97663531D01*
X144777683Y-97663531D01*
X144474175Y-97602208D01*
X144466744Y-97597211D01*
X144465024Y-97588423D01*
X144465378Y-97587085D01*
X144650347Y-97027273D01*
X144656196Y-97020494D01*
X144661456Y-97019245D01*
X144898544Y-97019245D01*
X144906817Y-97022672D01*
G37*
G04 #@! TD.AperFunction*
G04 #@! TD*
G04 #@! TA.AperFunction,Conductor*
G04 #@! TO.N,Net-(U3B--)*
G36*
X141039152Y-97373675D02*
G01*
X141045479Y-97380013D01*
X141046133Y-97382163D01*
X141107256Y-97684683D01*
X141107256Y-97689317D01*
X141045741Y-97993777D01*
X141040744Y-98001208D01*
X141031956Y-98002928D01*
X141031460Y-98002817D01*
X140471857Y-97864201D01*
X140464650Y-97858885D01*
X140462970Y-97852844D01*
X140462970Y-97615825D01*
X140466397Y-97607552D01*
X140470199Y-97605013D01*
X141030198Y-97373666D01*
X141039152Y-97373675D01*
G37*
G04 #@! TD.AperFunction*
G04 #@! TD*
M02*
