G04 #@! TF.GenerationSoftware,KiCad,Pcbnew,9.0.3*
G04 #@! TF.CreationDate,2025-08-06T23:44:27+02:00*
G04 #@! TF.ProjectId,MADC,4d414443-2e6b-4696-9361-645f70636258,rev?*
G04 #@! TF.SameCoordinates,Original*
G04 #@! TF.FileFunction,Soldermask,Bot*
G04 #@! TF.FilePolarity,Negative*
%FSLAX46Y46*%
G04 Gerber Fmt 4.6, Leading zero omitted, Abs format (unit mm)*
G04 Created by KiCad (PCBNEW 9.0.3) date 2025-08-06 23:44:27*
%MOMM*%
%LPD*%
G01*
G04 APERTURE LIST*
G04 Aperture macros list*
%AMRoundRect*
0 Rectangle with rounded corners*
0 $1 Rounding radius*
0 $2 $3 $4 $5 $6 $7 $8 $9 X,Y pos of 4 corners*
0 Add a 4 corners polygon primitive as box body*
4,1,4,$2,$3,$4,$5,$6,$7,$8,$9,$2,$3,0*
0 Add four circle primitives for the rounded corners*
1,1,$1+$1,$2,$3*
1,1,$1+$1,$4,$5*
1,1,$1+$1,$6,$7*
1,1,$1+$1,$8,$9*
0 Add four rect primitives between the rounded corners*
20,1,$1+$1,$2,$3,$4,$5,0*
20,1,$1+$1,$4,$5,$6,$7,0*
20,1,$1+$1,$6,$7,$8,$9,0*
20,1,$1+$1,$8,$9,$2,$3,0*%
G04 Aperture macros list end*
%ADD10RoundRect,0.112500X-0.187500X-0.112500X0.187500X-0.112500X0.187500X0.112500X-0.187500X0.112500X0*%
%ADD11RoundRect,0.155000X0.212500X0.155000X-0.212500X0.155000X-0.212500X-0.155000X0.212500X-0.155000X0*%
%ADD12RoundRect,0.160000X0.197500X0.160000X-0.197500X0.160000X-0.197500X-0.160000X0.197500X-0.160000X0*%
%ADD13RoundRect,0.100000X0.100000X-0.612500X0.100000X0.612500X-0.100000X0.612500X-0.100000X-0.612500X0*%
%ADD14R,1.850000X1.730000*%
%ADD15R,0.740000X2.400000*%
%ADD16RoundRect,0.100000X0.612500X0.100000X-0.612500X0.100000X-0.612500X-0.100000X0.612500X-0.100000X0*%
%ADD17R,1.730000X1.850000*%
%ADD18RoundRect,0.155000X0.155000X-0.212500X0.155000X0.212500X-0.155000X0.212500X-0.155000X-0.212500X0*%
G04 APERTURE END LIST*
D10*
G04 #@! TO.C,D2*
X142714000Y-84201000D03*
X144814000Y-84201000D03*
G04 #@! TD*
D11*
G04 #@! TO.C,C14*
X144331500Y-85725000D03*
X143196500Y-85725000D03*
G04 #@! TD*
D12*
G04 #@! TO.C,R4*
X144361500Y-86741000D03*
X143166500Y-86741000D03*
G04 #@! TD*
D13*
G04 #@! TO.C,RN1*
X144739000Y-95507500D03*
X144089000Y-95507500D03*
X143439000Y-95507500D03*
X142789000Y-95507500D03*
X142789000Y-91182500D03*
X143439000Y-91182500D03*
X144089000Y-91182500D03*
X144739000Y-91182500D03*
D14*
X143764000Y-93345000D03*
G04 #@! TD*
D15*
G04 #@! TO.C,J1*
X151765000Y-90850000D03*
X151765000Y-86950000D03*
X150495000Y-90850000D03*
X150495000Y-86950000D03*
X149225000Y-90850000D03*
X149225000Y-86950000D03*
X147955000Y-90850000D03*
X147955000Y-86950000D03*
G04 #@! TD*
G04 #@! TO.C,J2*
X135255000Y-97110000D03*
X135255000Y-101010000D03*
X136525000Y-97110000D03*
X136525000Y-101010000D03*
X137795000Y-97110000D03*
X137795000Y-101010000D03*
X139065000Y-97110000D03*
X139065000Y-101010000D03*
G04 #@! TD*
D16*
G04 #@! TO.C,RN2*
X145926500Y-98466000D03*
X145926500Y-99116000D03*
X145926500Y-99766000D03*
X145926500Y-100416000D03*
X141601500Y-100416000D03*
X141601500Y-99766000D03*
X141601500Y-99116000D03*
X141601500Y-98466000D03*
D17*
X143764000Y-99441000D03*
G04 #@! TD*
D18*
G04 #@! TO.C,C5*
X146177000Y-92515500D03*
X146177000Y-91380500D03*
G04 #@! TD*
M02*
